<svg xmlns="http://www.w3.org/2000/svg" xmlns:xlink="http://www.w3.org/1999/xlink" width="1842" zoomAndPan="magnify" viewBox="0 0 1381.5 788.999998" height="1052" preserveAspectRatio="xMidYMid meet" version="1.0"><defs><filter x="0%" y="0%" width="100%" height="100%" id="8c8f53575a"><feColorMatrix values="0 0 0 0 1 0 0 0 0 1 0 0 0 0 1 0 0 0 1 0" color-interpolation-filters="sRGB"/></filter><mask id="4bb5d82909"><g filter="url(#8c8f53575a)"><rect x="-138.15" width="1657.8" fill="#000000" y="-78.9" height="946.799998" fill-opacity="0.298"/></g></mask><clipPath id="8c00755dbc"><path d="M 5 0.9375 L 1093.265625 0.9375 L 1093.265625 753 L 5 753 Z M 5 0.9375 " clip-rule="nonzero"/></clipPath><clipPath id="6a2f4c4e1d"><rect x="0" width="1094" y="0" height="754"/></clipPath><mask id="06b5d5064f"><g filter="url(#8c8f53575a)"><rect x="-138.15" width="1657.8" fill="#000000" y="-78.9" height="946.799998" fill-opacity="0.8"/></g></mask><clipPath id="e6162c3daf"><path d="M 4 0.265625 L 687 0.265625 L 687 629.515625 L 4 629.515625 Z M 4 0.265625 " clip-rule="nonzero"/></clipPath><clipPath id="28b2d02afd"><rect x="0" width="691" y="0" height="630"/></clipPath></defs><g mask="url(#4bb5d82909)"><g transform="matrix(1, 0, 0, 1, 161, 16)"><g clip-path="url(#6a2f4c4e1d)"><g clip-path="url(#8c00755dbc)"><path fill="#6fceae" d="M 318.25 2.410156 C 315.671875 2.011719 313.09375 1.429688 310.476562 1.25 C 290.1875 -0.152344 270.398438 3.546875 255.410156 17.078125 C 243.109375 28.90625 232.652344 42.1875 224.039062 56.917969 C 215.9375 71.386719 208.683594 86.273438 202.28125 101.570312 C 191.328125 124.734375 182.816406 149.277344 166.074219 169.257812 C 155.996094 182.402344 144.847656 194.5625 132.625 205.734375 C 117.742188 217.070312 102.253906 227.515625 86.167969 237.066406 C 70.929688 247.0625 57.402344 258.082031 54.117188 277.796875 C 53.484375 281.601562 48.558594 284.847656 45.289062 288.023438 C 41.683594 291.535156 37.25 294.277344 33.953125 298.050781 C 23.015625 310.628906 18.878906 326.390625 14.605469 341.945312 C 8.730469 363.429688 2.613281 385.097656 7.695312 407.609375 C 10.828125 422.558594 14.953125 437.230469 20.066406 451.625 C 21.125 454.671875 22.320312 457.660156 23.65625 460.59375 C 24.996094 463.527344 26.464844 466.394531 28.066406 469.191406 C 29.671875 471.988281 31.398438 474.707031 33.253906 477.34375 C 35.109375 479.980469 37.085938 482.527344 39.175781 484.980469 C 41.269531 487.433594 43.46875 489.785156 45.78125 492.035156 C 48.089844 494.285156 50.5 496.421875 53.007812 498.449219 C 55.515625 500.472656 58.113281 502.378906 60.800781 504.164062 C 63.484375 505.945312 66.25 507.601562 69.089844 509.128906 C 108.734375 530.046875 151.722656 538.578125 196.421875 539.613281 C 220.449219 539.398438 244.261719 541.523438 267.871094 545.988281 C 273.429688 547.097656 278.929688 548.457031 284.367188 550.066406 C 289.804688 551.679688 295.15625 553.535156 300.421875 555.636719 C 305.6875 557.742188 310.847656 560.078125 315.898438 562.65625 C 320.949219 565.230469 325.875 568.03125 330.667969 571.058594 C 335.464844 574.085938 340.109375 577.328125 344.605469 580.78125 C 349.105469 584.234375 353.433594 587.886719 357.597656 591.738281 C 361.757812 595.589844 365.734375 599.621094 369.527344 603.839844 C 373.320312 608.054688 376.910156 612.433594 380.300781 616.980469 C 395.246094 636.796875 410.566406 656.300781 426.03125 675.722656 C 444.933594 699.347656 466.605469 720.085938 491.042969 737.929688 C 493.59375 739.902344 496.265625 741.695312 499.0625 743.304688 C 501.859375 744.910156 504.75 746.320312 507.742188 747.53125 C 510.730469 748.742188 513.789062 749.746094 516.917969 750.539062 C 520.042969 751.328125 523.210938 751.90625 526.414062 752.261719 C 529.621094 752.621094 532.835938 752.757812 536.0625 752.675781 C 539.285156 752.589844 542.492188 752.289062 545.675781 751.765625 C 548.859375 751.242188 551.988281 750.507812 555.074219 749.554688 C 558.15625 748.601562 561.15625 747.445312 564.082031 746.078125 C 593.71875 733.523438 620.054688 715.398438 636.921875 686.664062 C 642.492188 676.871094 647.507812 666.804688 651.972656 656.460938 C 657.65625 644.671875 662.582031 632.570312 666.757812 620.164062 C 674.851562 593.601562 682.050781 566.921875 694.070312 541.5625 C 697.304688 534.542969 701.054688 527.808594 705.316406 521.363281 C 709.582031 514.914062 714.308594 508.832031 719.503906 503.105469 C 724.695312 497.382812 730.292969 492.085938 736.296875 487.214844 C 742.300781 482.347656 748.640625 477.960938 755.3125 474.058594 C 759.25 471.179688 763.609375 469.261719 768.390625 468.304688 C 780.5 467.382812 790.796875 461.71875 801.8125 457.734375 C 815.0625 453.292969 828.597656 450.011719 842.414062 447.886719 C 856.230469 445.765625 870.128906 444.839844 884.105469 445.101562 C 909.640625 444.84375 935.027344 442.773438 960.269531 438.898438 C 985.511719 435.023438 1010.347656 429.375 1034.785156 421.960938 C 1041.953125 419.925781 1048.820312 417.144531 1055.382812 413.609375 C 1061.945312 410.078125 1068.046875 405.878906 1073.691406 401.011719 C 1075.917969 399.246094 1077.976562 397.304688 1079.871094 395.1875 C 1081.769531 393.070312 1083.472656 390.808594 1084.984375 388.402344 C 1086.496094 385.996094 1087.792969 383.480469 1088.878906 380.855469 C 1089.964844 378.230469 1090.820312 375.53125 1091.445312 372.761719 C 1092.933594 364.785156 1093.378906 356.753906 1092.789062 348.664062 C 1092.199219 340.574219 1090.585938 332.691406 1087.957031 325.019531 C 1079.515625 299.003906 1063.417969 277.871094 1044.515625 259.0625 C 1036.902344 251.40625 1028.910156 244.167969 1020.539062 237.347656 C 1012.167969 230.527344 1003.464844 224.164062 994.425781 218.257812 C 985.386719 212.351562 976.0625 206.929688 966.457031 202.003906 C 956.851562 197.074219 947.011719 192.660156 936.941406 188.761719 C 920.726562 182.28125 904.027344 177.488281 886.839844 174.386719 C 869.65625 171.285156 852.332031 169.933594 834.875 170.335938 C 796.542969 171.886719 758.238281 171.4375 719.953125 168.984375 C 687.839844 165.71875 656.058594 160.429688 624.617188 153.121094 C 605.546875 148.59375 586.792969 143.011719 568.351562 136.378906 C 561.449219 133.691406 554.800781 130.472656 548.414062 126.722656 C 544.550781 124.71875 541.082031 121.847656 537.078125 120.1875 C 506.507812 107.492188 481.246094 86.945312 455.773438 66.484375 C 440.476562 53.566406 424.199219 42.03125 406.9375 31.886719 C 379.425781 16.65625 350.523438 4.0625 318.25 2.410156 Z M 318.25 2.410156 " fill-opacity="1" fill-rule="nonzero"/></g></g></g></g><g mask="url(#06b5d5064f)"><g transform="matrix(1, 0, 0, 1, 330, 57)"><g clip-path="url(#28b2d02afd)"><path fill="#d6b85a" d="M 678.601562 133.542969 C 677.679688 132.566406 676.542969 131.699219 675.132812 130.996094 C 675.078125 130.996094 675.023438 130.941406 674.972656 130.941406 C 671.394531 129.207031 667.386719 129.695312 664.1875 131.644531 C 664.785156 130.617188 670.527344 120.535156 665.433594 110.074219 C 661.859375 102.703125 655.085938 99.832031 653.351562 99.125 C 656.765625 94.085938 660.125 89.097656 663.539062 84.058594 C 668.035156 77.390625 667.058594 67.960938 660.558594 63.136719 C 660.503906 63.136719 660.449219 63.082031 660.449219 63.03125 C 652.917969 57.609375 644.410156 61.078125 643.976562 61.242188 C 644.519531 59.996094 644.898438 58.695312 645.058594 57.285156 C 645.546875 52.730469 645.441406 43.679688 638.613281 36.308594 C 638.558594 36.253906 638.449219 36.148438 638.394531 36.09375 C 631.1875 28.503906 618.347656 31.8125 614.933594 41.675781 L 594.9375 99.832031 C 594.125 85.628906 593.367188 71.375 592.609375 57.175781 C 592.554688 55.441406 592.011719 53.816406 591.039062 52.351562 C 589.519531 50.074219 586.648438 46.933594 581.933594 45.847656 C 581.878906 45.847656 581.824219 45.792969 581.773438 45.792969 C 575.917969 44.546875 570.5 49.316406 570.394531 55.277344 L 569.199219 127.308594 L 569.199219 127.417969 C 555.492188 129.097656 542.921875 137.714844 536.363281 150.722656 C 532.625 158.203125 528.886719 165.628906 525.148438 173.109375 C 518.265625 167.796875 508.621094 161.835938 501.578125 148.664062 C 492.746094 132.023438 497.078125 121.835938 487.976562 115.386719 C 478.492188 108.71875 463.917969 112.785156 452.917969 117.390625 C 447.714844 113.109375 441.324219 109.152344 434.550781 108.015625 L 434.550781 107.90625 C 432.058594 97.609375 424.253906 89.316406 414.175781 86.335938 C 403.339844 83.136719 391.472656 86.496094 383.777344 94.953125 C 383.5625 90.183594 382.421875 75.984375 373.917969 69.535156 C 365.464844 63.191406 351.15625 63.410156 337.285156 71.105469 C 325.421875 77.773438 311.441406 79.777344 297.949219 77.988281 C 286.136719 76.363281 274.214844 79.398438 265.21875 86.824219 C 247.773438 101.238281 250.535156 124.597656 250.753906 126.0625 C 247.230469 122.972656 243.328125 120.101562 236.339844 119.125 C 229.945312 118.257812 221.925781 119.070312 215.800781 121.996094 C 223.984375 96.253906 232.816406 72.242188 241.757812 50.5625 C 234.875 51.648438 220.734375 54.953125 206.96875 65.902344 C 191.851562 77.988281 185.40625 92.949219 182.695312 101.132812 C 183.453125 75.441406 184.265625 49.75 185.078125 24.058594 C 179.28125 26.878906 166.820312 33.871094 157.554688 48.289062 C 144.875 68.070312 146.824219 88.230469 147.582031 94.085938 C 129.429688 54.140625 107.105469 24.980469 90.417969 6.230469 C 91.609375 31.648438 95.511719 65.359375 106.617188 103.460938 C 99.574219 101.621094 91.285156 99.992188 81.964844 99.070312 C 67.820312 97.71875 55.414062 98.421875 45.550781 99.667969 C 53.191406 106.007812 62.296875 112.675781 72.859375 119.125 C 89.929688 129.421875 106.023438 136.199219 119.460938 140.640625 C 109.382812 137.714844 97.839844 135.003906 84.945312 133.109375 C 66.574219 130.398438 50.101562 130.019531 36.394531 130.667969 C 50.644531 143.839844 66.847656 157.605469 85.160156 171.480469 C 61.375 181.019531 44.792969 202.484375 44.792969 227.414062 C 44.792969 227.578125 44.792969 227.738281 44.792969 227.957031 C 37.425781 237.765625 33.089844 249.582031 33.089844 262.320312 C 33.089844 268.769531 34.226562 274.949219 36.285156 280.800781 L 10.277344 280.800781 C 20.191406 322.316406 22.304688 356.355469 22.414062 379.714844 C 22.632812 447.625 6.160156 479.875 10.277344 548.433594 C 12.226562 580.902344 17.972656 607.1875 22.414062 624.097656 C 125.203125 624.097656 228.046875 624.097656 330.894531 624.097656 C 433.738281 624.097656 536.582031 624.097656 639.371094 624.097656 C 643.8125 607.1875 649.558594 580.902344 651.507812 548.433594 C 655.625 479.875 639.152344 447.625 639.371094 379.714844 C 639.480469 356.355469 641.59375 322.316406 651.507812 280.800781 L 617.371094 280.800781 C 622.898438 277.386719 629.941406 272.292969 636.878906 264.976562 C 639.804688 261.886719 642.351562 258.796875 644.519531 255.816406 C 654.921875 241.667969 656.113281 222.210938 645.820312 208.011719 C 645.277344 207.253906 644.734375 206.496094 644.085938 205.789062 C 655.953125 186.332031 667.820312 166.875 679.683594 147.472656 C 682.394531 143.082031 682.230469 137.226562 678.601562 133.542969 Z M 678.601562 133.542969 " fill-opacity="1" fill-rule="nonzero"/><path fill="#349370" d="M 615.148438 155.765625 C 623.117188 143.949219 631.082031 132.1875 639.046875 120.371094 C 638.773438 122.917969 630.59375 194.40625 630.320312 195.003906 C 621.652344 190.777344 613.796875 190.453125 611.953125 190.398438 C 618.023438 179.503906 618.941406 166.820312 615.097656 155.765625 Z M 615.148438 155.765625 " fill-opacity="1" fill-rule="nonzero"/><path fill="#3fa07f" d="M 434.550781 107.90625 L 434.550781 108.015625 C 431.839844 107.472656 429.078125 107.417969 426.257812 108.015625 C 419.105469 109.476562 417.425781 113.976562 409.625 119.34375 C 404.746094 107.636719 395.210938 98.800781 383.777344 94.953125 C 391.472656 86.496094 403.339844 83.136719 414.175781 86.335938 C 424.253906 89.316406 432.058594 97.609375 434.550781 107.90625 Z M 434.550781 107.90625 " fill-opacity="1" fill-rule="nonzero"/><path fill="#4aaf8f" d="M 409.625 119.34375 C 408.59375 120.101562 407.457031 120.804688 406.15625 121.5625 C 394.019531 128.554688 381.71875 129.695312 373.484375 129.585938 L 373.429688 129.585938 C 360.75 120.535156 360.855469 111.15625 346.660156 108.015625 C 344.003906 107.417969 341.40625 107.148438 338.859375 107.203125 C 340.375 105.523438 353.597656 91.265625 373.917969 92.894531 C 377.328125 93.164062 380.636719 93.867188 383.777344 94.953125 C 395.210938 98.800781 404.746094 107.636719 409.625 119.34375 Z M 409.625 119.34375 " fill-opacity="1" fill-rule="nonzero"/><path fill="#53b79a" d="M 429.835938 146.277344 C 417.644531 141.238281 404.261719 143.785156 385.730469 136.199219 C 380.582031 134.085938 376.625 131.863281 373.484375 129.585938 C 381.71875 129.695312 394.019531 128.554688 406.15625 121.5625 C 407.457031 120.804688 408.59375 120.101562 409.625 119.34375 C 417.425781 113.976562 419.105469 109.476562 426.257812 108.015625 C 429.078125 107.417969 431.839844 107.472656 434.550781 108.015625 C 441.324219 109.152344 447.714844 113.109375 452.917969 117.390625 C 458.664062 122.050781 462.941406 127.039062 464.730469 129.152344 C 472.101562 137.769531 480.554688 147.632812 478.113281 157.390625 C 475.515625 167.523438 462.78125 170.886719 452.917969 174.949219 C 451.023438 168.175781 447.285156 159.234375 439.371094 152.296875 C 436.230469 149.53125 433.085938 147.632812 429.835938 146.277344 Z M 429.835938 146.277344 " fill-opacity="1" fill-rule="nonzero"/><path fill="#89a25b" d="M 282.015625 134.03125 C 275.625 136.414062 269.230469 137.011719 262.671875 134.464844 C 257.363281 132.402344 254.167969 129.152344 250.753906 126.0625 C 250.535156 124.597656 247.773438 101.238281 265.21875 86.824219 C 274.214844 79.398438 286.136719 76.363281 297.949219 77.988281 C 311.441406 79.777344 325.421875 77.773438 337.285156 71.105469 C 351.15625 63.410156 365.464844 63.191406 373.917969 69.535156 C 382.421875 75.984375 383.5625 90.183594 383.777344 94.953125 C 380.636719 93.867188 377.328125 93.164062 373.917969 92.894531 C 353.597656 91.265625 340.375 105.523438 338.859375 107.203125 C 317.726562 107.527344 299.953125 127.472656 282.015625 134.03125 Z M 282.015625 134.03125 " fill-opacity="1" fill-rule="nonzero"/><path fill="#89a25b" d="M 512.792969 237.765625 C 508.730469 247.578125 496.539062 258.523438 460.558594 263.347656 C 468.253906 254.949219 477.03125 242.480469 474.917969 229.257812 C 471.339844 206.65625 438.777344 198.742188 440.996094 185.25 C 441.8125 180.316406 446.796875 177.496094 452.917969 174.949219 C 462.78125 170.886719 475.515625 167.523438 478.113281 157.390625 C 480.554688 147.632812 472.101562 137.769531 464.730469 129.152344 C 462.941406 127.039062 458.664062 122.050781 452.917969 117.390625 C 463.917969 112.785156 478.496094 108.71875 487.976562 115.386719 C 497.078125 121.835938 492.746094 132.023438 501.578125 148.664062 C 508.621094 161.835938 518.265625 167.796875 525.148438 173.109375 C 530.296875 177.0625 533.925781 180.640625 533.816406 186.550781 C 533.761719 191.644531 531 193.757812 527.261719 198.417969 C 524.878906 201.398438 522.113281 205.410156 519.351562 211.96875 C 513.929688 224.867188 515.828125 230.503906 512.792969 237.765625 Z M 512.792969 237.765625 " fill-opacity="1" fill-rule="nonzero"/><path fill="#a7d676" d="M 296.972656 280.800781 L 273.457031 280.800781 C 274.378906 276.734375 274.917969 272.453125 274.917969 268.117188 C 274.917969 247.304688 263.324219 228.933594 245.660156 217.875 L 245.660156 217.820312 C 239.808594 204.488281 232.382812 188.769531 223.117188 171.375 C 216.667969 159.234375 211.738281 150.777344 208.976562 144.328125 C 206.210938 137.933594 205.5625 133.488281 207.730469 129.316406 C 209.355469 126.117188 212.28125 123.730469 215.804688 121.996094 C 221.925781 119.070312 229.945312 118.257812 236.339844 119.125 C 243.328125 120.101562 247.230469 122.972656 250.753906 126.0625 C 254.167969 129.152344 257.363281 132.402344 262.671875 134.464844 C 269.230469 137.011719 275.625 136.414062 282.015625 134.03125 C 299.953125 127.472656 317.726562 107.527344 338.859375 107.203125 C 341.40625 107.148438 344.003906 107.417969 346.660156 108.015625 C 360.855469 111.15625 360.75 120.535156 373.429688 129.585938 L 373.484375 129.585938 C 376.625 131.863281 380.582031 134.085938 385.730469 136.199219 C 404.261719 143.785156 417.644531 141.238281 429.835938 146.277344 C 433.085938 147.632812 436.230469 149.53125 439.371094 152.296875 C 447.285156 159.234375 451.023438 168.175781 452.917969 174.949219 C 446.796875 177.496094 441.8125 180.316406 440.996094 185.25 C 438.777344 198.742188 471.339844 206.65625 474.917969 229.257812 C 477.03125 242.480469 468.253906 254.949219 460.558594 263.347656 L 453.570312 263.347656 C 454.4375 269.257812 454.921875 275.054688 455.140625 280.800781 Z M 296.972656 280.800781 " fill-opacity="1" fill-rule="nonzero"/><path fill="#d14b62" d="M 223.117188 171.375 C 232.382812 188.769531 239.808594 204.488281 245.660156 217.820312 C 234.605469 210.882812 221.113281 206.820312 206.589844 206.820312 C 201.929688 206.820312 197.433594 207.253906 193.042969 208.066406 C 197.269531 187.957031 202.527344 166.65625 208.976562 144.328125 C 211.738281 150.777344 216.667969 159.234375 223.117188 171.375 Z M 223.117188 171.375 " fill-opacity="1" fill-rule="nonzero"/><path fill="#894687" d="M 162.375 221.398438 C 160.371094 222.96875 158.472656 224.542969 156.6875 226.277344 C 144.277344 210.992188 124.175781 201.019531 101.417969 201.019531 C 77.847656 201.019531 57.09375 211.695312 44.792969 227.957031 C 44.792969 227.738281 44.792969 227.578125 44.792969 227.414062 C 44.792969 202.484375 61.375 181.019531 85.160156 171.480469 C 86.785156 172.675781 88.414062 173.921875 90.039062 175.113281 C 115.558594 193.972656 140.105469 209.148438 162.375 221.398438 Z M 162.375 221.398438 " fill-opacity="1" fill-rule="nonzero"/><path fill="#894687" d="M 274.917969 268.117188 C 274.917969 272.453125 274.378906 276.734375 273.457031 280.800781 L 206.644531 280.800781 C 206.863281 275.054688 207.351562 269.257812 208.214844 263.347656 L 169.746094 263.347656 C 169.746094 263.023438 169.746094 262.644531 169.746094 262.320312 C 169.746094 248.824219 164.921875 236.410156 156.6875 226.277344 C 158.472656 224.542969 160.371094 222.96875 162.375 221.398438 C 167.035156 217.875 172.238281 214.839844 177.925781 212.511719 C 178.359375 212.292969 178.792969 212.128906 179.28125 211.96875 C 183.617188 210.234375 188.222656 208.933594 193.042969 208.066406 C 197.433594 207.253906 201.929688 206.820312 206.589844 206.820312 C 221.113281 206.820312 234.605469 210.882812 245.660156 217.820312 L 245.660156 217.875 C 263.324219 228.933594 274.917969 247.304688 274.917969 268.117188 Z M 274.917969 268.117188 " fill-opacity="1" fill-rule="nonzero"/><path fill="#e15c63" d="M 44.792969 227.957031 C 57.09375 211.695312 77.847656 201.019531 101.417969 201.019531 C 124.175781 201.019531 144.277344 210.992188 156.6875 226.277344 C 164.921875 236.410156 169.746094 248.824219 169.746094 262.320312 C 169.746094 262.644531 169.746094 263.023438 169.746094 263.347656 L 155.65625 263.347656 C 154.789062 269.203125 154.195312 275.054688 153.867188 280.800781 L 36.285156 280.800781 C 34.226562 274.949219 33.089844 268.769531 33.089844 262.320312 C 33.089844 249.582031 37.425781 237.765625 44.792969 227.957031 Z M 44.792969 227.957031 " fill-opacity="1" fill-rule="nonzero"/><path fill="#4aaf8f" d="M 113.769531 125.574219 C 115.613281 130.722656 117.511719 135.765625 119.460938 140.640625 C 106.023438 136.199219 89.929688 129.421875 72.859375 119.125 C 62.296875 112.675781 53.191406 106.007812 45.550781 99.667969 C 55.414062 98.421875 67.820312 97.71875 81.964844 99.070312 C 91.285156 99.992188 99.574219 101.621094 106.617188 103.460938 C 108.730469 110.671875 111.117188 118.042969 113.769531 125.574219 Z M 113.769531 125.574219 " fill-opacity="1" fill-rule="nonzero"/><path fill="#4aaf8f" d="M 206.96875 65.902344 C 220.734375 54.953125 234.875 51.648438 241.757812 50.5625 C 232.816406 72.242188 223.984375 96.253906 215.804688 121.996094 C 212.28125 123.730469 209.355469 126.117188 207.730469 129.316406 C 205.5625 133.488281 206.210938 137.933594 208.976562 144.328125 C 202.527344 166.65625 197.269531 187.957031 193.042969 208.066406 C 188.222656 208.933594 183.617188 210.234375 179.28125 211.96875 L 179.28125 211.914062 C 180.417969 175.003906 181.558594 138.039062 182.695312 101.132812 C 185.40625 92.949219 191.851562 77.988281 206.96875 65.902344 Z M 206.96875 65.902344 " fill-opacity="1" fill-rule="nonzero"/><path fill="#53b79a" d="M 185.078125 24.058594 C 184.265625 49.75 183.453125 75.441406 182.695312 101.132812 C 181.558594 138.039062 180.417969 175.003906 179.28125 211.914062 L 179.28125 211.96875 C 178.792969 212.128906 178.359375 212.292969 177.925781 212.511719 C 175.921875 185.953125 169.960938 147.144531 151.808594 103.785156 C 150.453125 100.480469 149.046875 97.285156 147.582031 94.140625 L 147.582031 94.085938 C 146.824219 88.230469 144.875 68.070312 157.554688 48.289062 C 166.820312 33.871094 179.28125 26.878906 185.078125 24.058594 Z M 185.078125 24.058594 " fill-opacity="1" fill-rule="nonzero"/><path fill="#53b79a" d="M 119.460938 140.640625 C 132.84375 174.300781 148.667969 201.292969 162.375 221.398438 C 140.105469 209.148438 115.558594 193.972656 90.039062 175.113281 C 88.414062 173.921875 86.785156 172.675781 85.160156 171.480469 C 66.847656 157.605469 50.644531 143.839844 36.394531 130.667969 C 50.101562 130.019531 66.574219 130.398438 84.945312 133.109375 C 97.839844 135.003906 109.382812 137.714844 119.460938 140.640625 Z M 119.460938 140.640625 " fill-opacity="1" fill-rule="nonzero"/><path fill="#6fceae" d="M 151.808594 103.789062 C 169.960938 147.144531 175.921875 185.953125 177.925781 212.511719 C 172.238281 214.839844 167.035156 217.875 162.375 221.398438 C 148.667969 201.292969 132.84375 174.300781 119.460938 140.640625 C 117.511719 135.765625 115.613281 130.722656 113.769531 125.574219 C 111.117188 118.042969 108.730469 110.671875 106.617188 103.460938 C 95.511719 65.359375 91.609375 31.648438 90.417969 6.230469 C 107.105469 24.980469 129.429688 54.140625 147.582031 94.085938 L 147.582031 94.140625 C 149.046875 97.285156 150.453125 100.480469 151.808594 103.789062 Z M 151.808594 103.789062 " fill-opacity="1" fill-rule="nonzero"/><path fill="#4aaf8f" d="M 678.601562 133.542969 C 682.230469 137.226562 682.394531 143.082031 679.683594 147.472656 C 667.820312 166.875 655.953125 186.332031 644.085938 205.789062 C 643.867188 205.519531 643.652344 205.300781 643.433594 205.03125 C 639.371094 200.316406 634.710938 197.171875 630.320312 195.003906 L 659.636719 136.632812 C 660.664062 134.570312 662.292969 132.835938 664.1875 131.699219 C 664.1875 131.699219 664.1875 131.699219 664.1875 131.644531 C 667.386719 129.695312 671.394531 129.207031 674.972656 130.941406 C 675.023438 130.941406 675.078125 130.996094 675.132812 130.996094 C 676.542969 131.699219 677.679688 132.566406 678.601562 133.542969 Z M 678.601562 133.542969 " fill-opacity="1" fill-rule="nonzero"/><path fill="#3fa07f" d="M 665.433594 110.074219 C 670.527344 120.535156 664.785156 130.617188 664.1875 131.644531 C 664.1875 131.699219 664.1875 131.699219 664.1875 131.699219 C 662.292969 132.835938 660.664062 134.570312 659.636719 136.632812 L 630.320312 195.003906 C 630.59375 194.40625 638.773438 122.917969 639.046875 120.371094 C 639.046875 120.316406 639.046875 120.316406 639.046875 120.316406 C 643.8125 113.273438 648.582031 106.171875 653.351562 99.125 C 655.085938 99.832031 661.859375 102.703125 665.433594 110.074219 Z M 665.433594 110.074219 " fill-opacity="1" fill-rule="nonzero"/><path fill="#53b79a" d="M 660.558594 63.136719 C 667.058594 67.960938 668.035156 77.390625 663.539062 84.058594 C 660.125 89.097656 656.765625 94.085938 653.351562 99.125 C 648.582031 106.171875 643.8125 113.273438 639.046875 120.316406 C 639.046875 120.316406 639.046875 120.316406 639.046875 120.371094 C 631.082031 132.1875 623.117188 143.949219 615.148438 155.765625 L 615.097656 155.765625 C 613.199219 150.019531 610.003906 144.707031 605.613281 140.316406 C 618.292969 114.191406 631.027344 88.015625 643.707031 61.890625 C 643.8125 61.675781 643.921875 61.457031 643.976562 61.242188 C 644.410156 61.078125 652.917969 57.609375 660.449219 63.03125 C 660.449219 63.082031 660.503906 63.136719 660.558594 63.136719 Z M 660.558594 63.136719 " fill-opacity="1" fill-rule="nonzero"/><path fill="#dd864a" d="M 588.492188 231.640625 C 590.277344 228.660156 592.011719 225.679688 593.746094 222.644531 C 600.03125 211.75 606.101562 201.019531 611.953125 190.398438 C 613.796875 190.453125 621.652344 190.777344 630.320312 195.003906 C 634.710938 197.171875 639.371094 200.316406 643.433594 205.03125 C 643.652344 205.300781 643.867188 205.519531 644.085938 205.789062 C 644.734375 206.492188 645.277344 207.253906 645.820312 208.011719 C 656.113281 222.210938 654.921875 241.667969 644.519531 255.816406 C 642.351562 258.796875 639.804688 261.886719 636.878906 264.976562 C 629.941406 272.292969 622.898438 277.386719 617.371094 280.800781 L 558.6875 280.800781 C 568.660156 264.976562 578.574219 248.605469 588.492188 231.640625 Z M 588.492188 231.640625 " fill-opacity="1" fill-rule="nonzero"/><path fill="#6fceae" d="M 594.9375 99.832031 L 614.933594 41.675781 C 618.347656 31.8125 631.1875 28.503906 638.394531 36.09375 C 638.449219 36.148438 638.558594 36.253906 638.613281 36.308594 C 645.441406 43.679688 645.546875 52.730469 645.0625 57.285156 C 644.898438 58.695312 644.519531 59.996094 643.976562 61.242188 C 643.921875 61.457031 643.8125 61.675781 643.707031 61.890625 C 631.027344 88.015625 618.292969 114.191406 605.613281 140.316406 C 603.988281 138.636719 602.144531 137.121094 600.140625 135.710938 C 599.925781 135.601562 599.761719 135.492188 599.597656 135.332031 C 595.914062 132.835938 592.175781 130.996094 588.492188 129.585938 C 587.351562 129.152344 586.214844 128.773438 585.078125 128.5 Z M 594.9375 99.832031 " fill-opacity="1" fill-rule="nonzero"/><path fill="#f69552" d="M 527.261719 198.417969 C 531 193.757812 533.761719 191.644531 533.816406 186.550781 C 533.925781 180.640625 530.296875 177.0625 525.148438 173.109375 C 528.886719 165.628906 532.625 158.203125 536.363281 150.722656 C 542.921875 137.714844 555.492188 129.097656 569.199219 127.417969 C 574.457031 126.660156 579.820312 126.984375 585.078125 128.5 C 586.214844 128.773438 587.351562 129.152344 588.492188 129.585938 C 592.175781 130.996094 595.914062 132.835938 599.597656 135.332031 C 599.761719 135.492188 599.925781 135.601562 600.140625 135.710938 C 602.144531 137.121094 603.988281 138.636719 605.613281 140.316406 C 610.003906 144.707031 613.199219 150.019531 615.097656 155.765625 C 618.941406 166.820312 618.023438 179.503906 611.953125 190.398438 C 606.101562 201.019531 600.03125 211.75 593.746094 222.644531 C 592.011719 225.679688 590.277344 228.660156 588.492188 231.640625 C 578.574219 248.605469 568.660156 264.976562 558.6875 280.800781 L 507.917969 280.800781 C 507.589844 275.054688 506.996094 269.203125 506.128906 263.347656 L 460.558594 263.347656 C 496.539062 258.523438 508.730469 247.578125 512.792969 237.765625 C 515.828125 230.503906 513.929688 224.867188 519.351562 211.96875 C 522.113281 205.410156 524.878906 201.398438 527.261719 198.417969 Z M 527.261719 198.417969 " fill-opacity="1" fill-rule="nonzero"/><path fill="#53b79a" d="M 592.609375 57.175781 C 593.367188 71.375 594.125 85.628906 594.9375 99.832031 L 585.078125 128.5 C 579.820312 126.984375 574.457031 126.660156 569.199219 127.417969 L 569.199219 127.308594 L 570.394531 55.277344 C 570.5 49.316406 575.917969 44.546875 581.773438 45.792969 C 581.824219 45.792969 581.878906 45.847656 581.933594 45.847656 C 586.648438 46.933594 589.519531 50.074219 591.039062 52.351562 C 592.011719 53.816406 592.554688 55.441406 592.609375 57.175781 Z M 592.609375 57.175781 " fill-opacity="1" fill-rule="nonzero"/><path fill="#7f5d46" d="M 507.917969 280.800781 C 514.472656 393.316406 424.796875 484.480469 330.894531 484.480469 C 236.988281 484.480469 147.3125 393.316406 153.867188 280.800781 C 154.195312 275.054688 154.789062 269.203125 155.65625 263.347656 L 208.214844 263.347656 C 207.351562 269.257812 206.863281 275.054688 206.644531 280.800781 C 203.015625 370.71875 270.964844 437.921875 330.894531 437.921875 C 390.820312 437.921875 458.769531 370.71875 455.140625 280.800781 C 454.921875 275.054688 454.4375 269.257812 453.570312 263.347656 L 506.128906 263.347656 C 506.996094 269.203125 507.59375 275.054688 507.917969 280.800781 Z M 507.917969 280.800781 " fill-opacity="1" fill-rule="nonzero"/><path fill="#c4a653" d="M 383.777344 421.609375 C 366.816406 432.125 348.503906 437.921875 330.894531 437.921875 C 270.964844 437.921875 203.015625 370.71875 206.644531 280.800781 L 234.714844 280.800781 C 234.714844 280.800781 231.136719 413.695312 383.777344 421.609375 Z M 383.777344 421.609375 " fill-opacity="1" fill-rule="nonzero"/><path fill="#c4a653" d="M 542.054688 280.800781 C 542.054688 280.800781 544.328125 483.832031 341.1875 484.101562 C 431.246094 477.8125 514.257812 389.199219 507.917969 280.800781 Z M 542.054688 280.800781 " fill-opacity="1" fill-rule="nonzero"/><path fill="#c4a653" d="M 639.371094 379.714844 C 639.152344 447.625 655.625 479.875 651.507812 548.433594 C 649.558594 580.902344 643.8125 607.1875 639.371094 624.097656 C 536.582031 624.097656 433.738281 624.097656 330.894531 624.097656 C 228.046875 624.097656 125.203125 624.097656 22.414062 624.097656 C 17.972656 607.1875 12.226562 580.902344 10.277344 548.433594 C 9.085938 528.597656 9.625 511.851562 10.980469 496.351562 C 11.738281 498.625 36.230469 569.300781 313.390625 575.15625 C 599.382812 581.171875 582.042969 484.480469 582.042969 484.480469 C 582.042969 484.480469 572.613281 410.5 599.382812 353.265625 C 626.203125 295.976562 617.371094 280.800781 617.371094 280.800781 L 651.507812 280.800781 C 641.59375 322.316406 639.480469 356.355469 639.371094 379.714844 Z M 639.371094 379.714844 " fill-opacity="1" fill-rule="nonzero"/><g clip-path="url(#e6162c3daf)"><path fill="#3a322b" d="M 682.453125 129.722656 C 681.039062 128.28125 679.402344 127.09375 677.324219 126.042969 C 675.742188 125.277344 674.078125 124.882812 672.40625 124.664062 C 673.3125 119.890625 673.316406 113.882812 670.320312 107.726562 C 667.90625 102.75 664.355469 99.433594 661.175781 97.246094 L 668.011719 87.109375 C 674.253906 77.859375 672.359375 65.160156 663.59375 58.660156 C 659.128906 55.421875 654.476562 54.601562 650.597656 54.644531 C 650.71875 48.714844 649.472656 40.070312 642.675781 32.742188 C 642.628906 32.683594 642.355469 32.394531 642.300781 32.335938 C 637.722656 27.519531 631.046875 25.507812 624.4375 26.953125 C 617.550781 28.449219 612.078125 33.296875 609.808594 39.902344 L 598.820312 71.851562 L 598.015625 56.878906 C 597.871094 54.144531 597.019531 51.542969 595.550781 49.351562 C 593.40625 46.152344 589.515625 42.03125 582.910156 40.511719 C 578.6875 39.578125 574.289062 40.625 570.832031 43.359375 C 567.183594 46.25 565.050781 50.5625 564.972656 55.199219 L 563.867188 122.742188 C 550.367188 125.808594 538.289062 134.828125 531.53125 148.289062 L 523.203125 164.878906 C 517.421875 160.507812 511.226562 155.234375 506.367188 146.109375 C 502.703125 139.222656 501.527344 133.582031 500.492188 128.609375 C 499.117188 121.980469 497.8125 115.726562 491.101562 110.984375 C 482.507812 104.910156 469.960938 104.992188 453.769531 111.191406 C 448.246094 107.078125 443.25 104.714844 438.78125 103.429688 C 435.101562 92.757812 426.535156 84.363281 415.6875 81.164062 C 406.328125 78.40625 396.257812 79.84375 387.964844 84.710938 C 386.523438 77.722656 383.5 70.003906 377.144531 65.222656 C 366.6875 57.371094 350.007812 57.835938 334.652344 66.40625 C 324.378906 72.144531 311.597656 74.347656 298.683594 72.601562 C 285.160156 70.78125 271.707031 74.4375 261.757812 82.648438 C 249.570312 92.707031 246.121094 106.550781 245.296875 116.058594 C 242.972656 115.042969 240.300781 114.226562 237.050781 113.78125 C 232.917969 113.207031 228.488281 113.300781 224.167969 113.964844 C 231.132812 92.839844 238.695312 72.226562 246.785156 52.632812 C 247.535156 50.820312 247.242188 48.738281 246.023438 47.199219 C 244.804688 45.660156 242.835938 44.882812 240.90625 45.214844 C 231.34375 46.773438 217.109375 50.894531 203.601562 61.683594 C 197.484375 66.570312 192.6875 71.914062 188.863281 77.234375 L 190.507812 24.246094 C 190.570312 22.347656 189.632812 20.558594 188.039062 19.53125 C 186.457031 18.496094 184.433594 18.375 182.726562 19.195312 C 174.195312 23.328125 162.117188 31.230469 153.011719 45.386719 C 147.105469 54.574219 144.132812 63.804688 142.710938 72.085938 C 129.46875 47.164062 113.34375 23.886719 94.453125 2.644531 C 92.925781 0.929688 90.492188 0.359375 88.359375 1.226562 C 86.230469 2.089844 84.878906 4.207031 84.988281 6.5 C 86.417969 36.878906 91.101562 66.914062 98.957031 96.15625 C 93.507812 95.0625 87.988281 94.238281 82.480469 93.699219 C 69.980469 92.476562 57.320312 92.6875 44.832031 94.339844 C 42.691406 94.621094 40.925781 96.140625 40.328125 98.214844 C 39.730469 100.285156 40.421875 102.511719 42.082031 103.890625 C 50.871094 111.164062 60.289062 117.851562 70.070312 123.785156 C 71.515625 124.660156 72.976562 125.519531 74.4375 126.371094 C 61.742188 125.066406 48.910156 124.679688 36.167969 125.25 C 33.984375 125.347656 32.070312 126.746094 31.316406 128.800781 C 30.5625 130.847656 31.117188 133.15625 32.726562 134.644531 C 46.210938 147.128906 60.367188 159.097656 74.898438 170.390625 C 53.390625 182.195312 39.8125 203.289062 39.417969 226.375 C 32.03125 236.757812 27.691406 249.082031 27.691406 262.320312 C 27.691406 266.734375 28.222656 271.109375 29.167969 275.402344 L 10.289062 275.402344 C 8.628906 275.402344 7.0625 276.167969 6.035156 277.46875 C 5.011719 278.769531 4.632812 280.46875 5.015625 282.085938 C 12.824219 314.773438 16.851562 347.640625 16.96875 379.761719 C 17.082031 410.492188 13.695312 434.039062 10.421875 456.800781 C 6.40625 484.71875 2.609375 511.09375 4.886719 548.804688 C 6.433594 574.570312 10.5625 600.375 17.152344 625.488281 C 17.769531 627.851562 19.921875 629.515625 22.386719 629.515625 L 639.394531 629.515625 C 641.859375 629.515625 644.007812 627.851562 644.632812 625.472656 C 651.222656 600.351562 655.351562 574.546875 656.898438 548.789062 C 659.171875 511.074219 655.378906 484.707031 651.363281 456.785156 C 648.089844 434.019531 644.699219 410.476562 644.816406 379.746094 C 644.941406 347.613281 648.960938 314.75 656.769531 282.070312 C 657.15625 280.453125 656.78125 278.757812 655.75 277.453125 C 654.722656 276.152344 653.15625 275.386719 651.496094 275.386719 L 633.761719 275.386719 C 636.207031 273.257812 638.585938 271.046875 640.816406 268.6875 C 643.707031 265.636719 646.421875 262.382812 648.886719 259.035156 C 660.953125 242.632812 661.578125 221.230469 650.609375 205.484375 L 684.324219 150.285156 C 688.445312 143.515625 687.6875 135.058594 682.453125 129.722656 Z M 660.578125 112.46875 C 663.832031 119.152344 661.097656 125.824219 659.988281 128.066406 C 657.890625 129.65625 656.078125 131.683594 654.808594 134.191406 L 639.410156 164.832031 C 640.613281 154.4375 642.199219 140.617188 644.292969 122.269531 L 655.113281 106.230469 C 657.046875 107.570312 659.148438 109.515625 660.578125 112.46875 Z M 619.917969 185.875 C 623.429688 176.203125 623.71875 165.984375 621.109375 156.621094 L 631.144531 141.75 C 629.09375 159.597656 626.96875 177.894531 625.824219 187.398438 C 623.722656 186.726562 621.722656 186.222656 619.917969 185.875 Z M 657.34375 67.515625 C 661.320312 70.464844 662.085938 76.542969 659.039062 81.050781 L 615.988281 144.835938 C 614.824219 142.941406 613.523438 141.121094 612.074219 139.394531 L 647.851562 65.738281 C 650.019531 65.269531 653.832031 64.976562 657.34375 67.515625 Z M 620.070312 43.425781 C 621.101562 40.429688 623.597656 38.234375 626.757812 37.546875 C 629.695312 36.882812 632.488281 37.734375 634.636719 39.996094 C 639.949219 45.734375 640.058594 52.910156 639.652344 56.683594 C 639.550781 57.648438 639.269531 58.601562 638.824219 59.523438 L 603.769531 131.6875 C 603.582031 131.554688 603.40625 131.394531 603.21875 131.265625 L 602.628906 130.859375 C 599.269531 128.589844 595.664062 126.734375 591.949219 125.210938 L 600.011719 101.761719 C 600.011719 101.761719 600.011719 101.753906 600.011719 101.75 Z M 577.566406 51.863281 C 578.09375 51.445312 579.183594 50.765625 580.71875 51.128906 C 583.648438 51.800781 585.511719 53.816406 586.5625 55.375 C 586.953125 55.957031 587.167969 56.65625 587.210938 57.457031 L 589.449219 99.148438 L 581.535156 122.160156 C 579.269531 121.792969 577 121.625 574.734375 121.597656 L 575.816406 55.375 C 575.839844 54.023438 576.492188 52.710938 577.566406 51.863281 Z M 586.578125 134.660156 C 590.066406 135.96875 593.421875 137.710938 596.519531 139.8125 L 597.023438 140.160156 C 612.066406 150.613281 616.449219 171.085938 607.222656 187.777344 C 601.359375 198.375 595.308594 209.089844 589.050781 219.902344 C 578.261719 238.558594 567.027344 257.191406 555.660156 275.382812 L 512.902344 275.382812 C 512.550781 271.109375 512.105469 266.839844 511.480469 262.570312 C 511.09375 259.90625 508.8125 257.933594 506.117188 257.933594 L 499.886719 257.933594 C 508.769531 253.214844 514.710938 247.226562 517.769531 239.875 C 519.332031 236.121094 519.789062 232.863281 520.277344 229.414062 C 520.871094 225.183594 521.496094 220.800781 524.339844 214.058594 C 525.859375 210.46875 527.371094 207.742188 528.816406 205.519531 L 554.089844 219.84375 C 554.933594 220.320312 555.847656 220.546875 556.753906 220.546875 C 558.644531 220.546875 560.476562 219.554688 561.472656 217.800781 C 562.949219 215.199219 562.039062 211.886719 559.429688 210.414062 L 535.539062 196.867188 C 537.578125 194.167969 539.171875 191.160156 539.253906 186.625 C 539.367188 179.949219 536.195312 175.519531 531.910156 171.683594 L 541.214844 153.152344 C 549.652344 136.371094 569.5625 128.261719 586.578125 134.660156 Z M 160.398438 268.773438 L 202.09375 268.773438 C 201.683594 272.664062 201.449219 276.550781 201.292969 280.425781 C 201.28125 280.558594 201.214844 280.671875 201.214844 280.804688 C 201.214844 280.902344 201.265625 280.984375 201.269531 281.082031 C 199.730469 324.035156 213.902344 365.605469 241.480469 397.367188 C 266.472656 426.144531 299.894531 443.320312 330.886719 443.320312 C 361.882812 443.320312 395.304688 426.140625 420.292969 397.367188 C 447.875 365.613281 462.042969 324.035156 460.503906 281.082031 C 460.511719 280.984375 460.558594 280.902344 460.558594 280.804688 C 460.558594 280.671875 460.492188 280.5625 460.484375 280.425781 C 460.332031 276.550781 460.09375 272.664062 459.679688 268.773438 L 501.382812 268.773438 C 507.921875 322.691406 491.5 376.8125 455.953125 417.929688 C 422.386719 456.761719 376.796875 479.035156 330.882812 479.035156 C 284.96875 479.035156 239.382812 456.761719 205.816406 417.929688 C 170.28125 376.8125 153.859375 322.695312 160.398438 268.773438 Z M 206.582031 212.261719 C 241.265625 212.261719 269.484375 237.324219 269.484375 268.125 C 269.484375 270.5625 269.246094 272.984375 268.894531 275.390625 L 212.433594 275.390625 C 212.703125 271.640625 213.0625 267.878906 213.59375 264.117188 C 213.8125 262.570312 213.347656 260.992188 212.320312 259.808594 C 211.289062 258.621094 209.800781 257.941406 208.226562 257.941406 L 174.9375 257.941406 C 174.125 246.671875 170.226562 236.183594 163.96875 227.121094 C 175.539062 217.652344 190.785156 212.261719 206.582031 212.261719 Z M 212.660156 163.367188 C 214.386719 166.542969 216.296875 170.039062 218.355469 173.914062 C 223.996094 184.53125 229.289062 195.425781 234.386719 206.378906 C 225.800781 203.203125 216.421875 201.414062 206.582031 201.414062 C 204.359375 201.414062 202.164062 201.539062 199.976562 201.714844 C 203.117188 187.507812 206.601562 173.296875 210.425781 159.25 C 211.152344 160.597656 211.863281 161.910156 212.660156 163.367188 Z M 296.945312 286.226562 L 321.46875 286.226562 C 321.480469 286.226562 321.492188 286.230469 321.503906 286.230469 C 321.519531 286.230469 321.535156 286.226562 321.550781 286.226562 L 346.207031 286.226562 C 346.261719 286.226562 346.3125 286.230469 346.367188 286.230469 C 346.378906 286.230469 346.382812 286.226562 346.394531 286.226562 L 449.777344 286.226562 C 450.046875 324.746094 436.863281 361.757812 412.117188 390.253906 C 389.160156 416.699219 358.792969 432.480469 330.894531 432.480469 C 302.992188 432.480469 272.628906 416.699219 249.667969 390.253906 C 224.917969 361.757812 211.734375 324.746094 212.011719 286.226562 Z M 484.855469 119.828125 C 487.949219 122.019531 488.636719 124.777344 489.894531 130.8125 C 491.023438 136.214844 492.417969 142.941406 496.808594 151.199219 C 503.488281 163.753906 512.535156 170.46875 519.140625 175.367188 C 525.933594 180.40625 528.492188 182.667969 528.425781 186.441406 C 528.386719 188.570312 527.644531 189.535156 525.082031 192.574219 C 523.003906 195.042969 520.367188 198.195312 517.621094 203.144531 C 516.964844 200.5 516.195312 197.824219 515.183594 195.101562 C 512.789062 188.695312 509.5 182.613281 505.40625 177.027344 C 503.640625 174.613281 500.253906 174.082031 497.839844 175.855469 C 495.425781 177.621094 494.902344 181.015625 496.667969 183.425781 C 500.167969 188.210938 502.984375 193.421875 505.035156 198.894531 C 510.453125 213.394531 509.460938 226.980469 507.597656 236.039062 C 503.640625 245.019531 492.171875 251.605469 473.363281 255.664062 C 479.34375 246.199219 481.667969 237.066406 480.289062 228.394531 C 478.039062 214.265625 466.648438 205.421875 457.496094 198.308594 C 451.757812 193.859375 445.832031 189.253906 446.351562 186.125 C 446.867188 183.058594 453.546875 180.472656 459.449219 178.195312 C 468.820312 174.582031 480.484375 170.078125 483.359375 158.707031 C 486.519531 146.21875 476.726562 134.804688 468.867188 125.628906 C 466.921875 123.351562 465.011719 121.28125 463.148438 119.40625 C 472.851562 116.476562 480.269531 116.589844 484.855469 119.828125 Z M 460.628906 132.691406 C 467.191406 140.34375 474.628906 149.023438 472.847656 156.054688 C 471.390625 161.828125 463.738281 164.921875 456.167969 167.851562 C 453.109375 159.941406 448.734375 153.320312 442.964844 148.242188 C 440.40625 145.992188 437.828125 144.273438 435.238281 142.898438 L 435.238281 129.289062 C 435.238281 126.289062 432.808594 123.867188 429.820312 123.867188 C 426.828125 123.867188 424.402344 126.289062 424.402344 129.289062 L 424.402344 138.96875 C 420.660156 138.117188 416.867188 137.625 412.988281 137.125 C 406.566406 136.300781 399.910156 135.351562 392.382812 132.84375 C 398.261719 131.386719 403.761719 129.199219 408.859375 126.242188 C 414.1875 123.15625 417.382812 120.242188 419.953125 117.894531 C 422.828125 115.273438 424.277344 113.949219 427.386719 113.300781 C 432.648438 112.195312 443.972656 113.25 460.628906 132.691406 Z M 402.570312 117.273438 C 394.632812 121.679688 385.425781 123.976562 375.164062 124.117188 C 371.53125 121.261719 369.105469 118.359375 366.773438 115.511719 C 363.09375 111.015625 359.296875 106.394531 351.609375 103.761719 C 356.941406 100.507812 364.429688 97.53125 373.449219 98.296875 C 385.65625 99.277344 396.441406 106.433594 402.570312 117.273438 Z M 412.625 91.554688 C 418.515625 93.289062 423.421875 97.273438 426.496094 102.480469 C 426.054688 102.550781 425.585938 102.601562 425.171875 102.6875 C 419.167969 103.9375 416.007812 106.828125 412.652344 109.878906 C 412.273438 110.226562 411.863281 110.589844 411.460938 110.953125 C 407.136719 103.683594 401.105469 97.8125 394.046875 93.726562 C 399.671875 90.621094 406.375 89.71875 412.625 91.554688 Z M 268.65625 91 C 276.285156 84.703125 286.699219 81.917969 297.234375 83.335938 C 312.457031 85.402344 327.625 82.742188 339.929688 75.863281 C 351.375 69.484375 363.714844 68.6875 370.632812 73.890625 C 374.71875 76.964844 376.648438 82.96875 377.558594 87.984375 C 376.480469 87.820312 375.421875 87.578125 374.324219 87.488281 C 354.878906 85.933594 341.308594 97.078125 336.386719 101.933594 C 322.714844 102.984375 310.621094 110.839844 299.6875 117.988281 C 295.015625 121.042969 290.578125 123.925781 286.289062 126.1875 C 286.066406 122.378906 286.375 117.917969 287.886719 113.164062 C 289.207031 108.988281 291.28125 105.109375 294.050781 101.609375 C 295.910156 99.257812 295.515625 95.847656 293.164062 93.992188 C 290.816406 92.132812 287.414062 92.523438 285.550781 94.875 C 281.964844 99.414062 279.269531 104.464844 277.550781 109.882812 C 275.125 117.539062 275.058594 124.597656 275.769531 130.160156 C 272 130.925781 268.292969 130.871094 264.613281 129.441406 C 261.003906 128.035156 258.636719 125.921875 255.925781 123.472656 C 255.601562 117.972656 255.785156 101.621094 268.65625 91 Z M 235.570312 124.496094 C 241.082031 125.261719 244.027344 127.390625 247.179688 130.175781 C 247.1875 130.183594 247.191406 130.183594 247.191406 130.1875 C 247.640625 130.589844 248.101562 131 248.570312 131.421875 C 251.667969 134.21875 255.183594 137.394531 260.695312 139.53125 C 276.898438 145.839844 291.503906 136.285156 305.625 127.058594 C 318.90625 118.367188 331.449219 110.171875 345.5 113.28125 C 352.148438 114.75 354.5 117.625 358.390625 122.382812 C 363.066406 128.09375 368.894531 135.207031 383.648438 141.238281 C 394.5 145.671875 403.589844 146.84375 411.609375 147.878906 C 417.816406 148.675781 422.9375 149.339844 427.671875 151.285156 C 427.695312 151.296875 427.71875 151.308594 427.738281 151.320312 C 430.511719 152.46875 433.164062 154.058594 435.8125 156.386719 C 440.332031 160.359375 443.777344 165.675781 446.210938 172.105469 C 440.90625 174.847656 436.652344 178.433594 435.664062 184.359375 C 434.082031 193.859375 442.226562 200.183594 450.855469 206.882812 C 458.894531 213.128906 468.007812 220.207031 469.589844 230.109375 C 470.898438 238.3125 466.992188 247.675781 458.105469 257.945312 L 453.558594 257.945312 C 451.988281 257.945312 450.496094 258.628906 449.46875 259.816406 C 448.4375 260.996094 447.972656 262.574219 448.195312 264.125 C 448.726562 267.886719 449.078125 271.648438 449.351562 275.398438 L 352.117188 275.398438 L 358.304688 172.109375 C 359.167969 157.726562 353.429688 144.019531 342.527344 134.472656 C 342.460938 134.414062 342.300781 134.28125 342.226562 134.21875 C 339.925781 132.378906 336.65625 132.777344 334.765625 135.039062 C 332.875 137.296875 333.210938 140.722656 335.433594 142.664062 C 343.757812 149.949219 348.15625 160.445312 347.496094 171.460938 L 341.269531 275.390625 L 325.925781 275.390625 C 323.308594 262.957031 321.355469 250.292969 320.195312 237.667969 C 319.042969 225.09375 318.613281 212.304688 318.914062 199.664062 C 318.984375 196.671875 316.621094 194.191406 313.625 194.121094 C 310.785156 194.078125 308.144531 196.417969 308.082031 199.414062 C 307.765625 212.46875 308.210938 225.675781 309.410156 238.667969 C 310.535156 250.949219 312.394531 263.269531 314.859375 275.390625 L 302.234375 275.390625 C 301.871094 256.738281 299.519531 238.15625 295.023438 220.085938 C 290.972656 203.832031 285.246094 187.902344 277.996094 172.753906 C 276.707031 170.050781 273.46875 168.917969 270.773438 170.203125 C 268.074219 171.492188 266.933594 174.734375 268.226562 177.433594 C 275.164062 191.929688 280.640625 207.160156 284.511719 222.710938 C 288.796875 239.925781 291.039062 257.625 291.402344 275.398438 L 279.886719 275.398438 C 280.175781 272.992188 280.335938 270.5625 280.335938 268.128906 C 280.335938 246.03125 268.347656 226.464844 249.992188 214.320312 C 243.21875 198.960938 235.820312 183.664062 227.941406 168.835938 C 225.863281 164.921875 223.9375 161.394531 222.191406 158.191406 C 213.699219 142.617188 210.339844 136.128906 212.574219 131.78125 C 215.542969 125.933594 226.863281 123.292969 235.570312 124.496094 Z M 210.363281 70.136719 C 218.007812 64.03125 225.929688 60.394531 232.816406 58.234375 C 225.117188 77.558594 217.910156 97.738281 211.304688 118.378906 C 207.738281 120.503906 204.738281 123.253906 202.90625 126.832031 C 200.082031 132.34375 200.570312 137.703125 203.269531 144.609375 C 197.703125 163.992188 192.746094 183.769531 188.480469 203.507812 C 187.289062 203.777344 186.082031 204.023438 184.910156 204.34375 L 188.085938 102.128906 C 191.164062 93.070312 197.484375 80.421875 210.363281 70.136719 Z M 162.132812 51.234375 C 167.289062 43.207031 173.59375 37.539062 179.378906 33.605469 L 175.445312 160.089844 C 170.921875 140.164062 164.734375 120.636719 156.804688 101.691406 C 155.566406 98.726562 154.226562 95.808594 152.910156 92.886719 C 151.992188 85.640625 151.289062 68.089844 162.132812 51.234375 Z M 96.910156 22.273438 C 117.433594 47.667969 134.183594 75.71875 146.804688 105.875 C 160.59375 138.832031 169.078125 173.558594 172.144531 209.144531 C 169.277344 210.519531 166.488281 212.042969 163.828125 213.769531 C 145.226562 185.6875 130.085938 155.449219 118.882812 123.757812 C 116.34375 116.59375 114.011719 109.359375 111.878906 102.074219 C 111.859375 101.988281 111.832031 101.910156 111.808594 101.832031 C 104.238281 75.886719 99.253906 49.253906 96.910156 22.273438 Z M 59.769531 103.890625 C 67 103.574219 74.25 103.777344 81.433594 104.46875 C 88.441406 105.160156 95.457031 106.335938 102.328125 107.972656 C 104.285156 114.480469 106.398438 120.953125 108.667969 127.375 C 109.160156 128.761719 109.660156 130.148438 110.164062 131.53125 C 98.199219 126.839844 86.644531 121.128906 75.695312 114.492188 C 70.25 111.195312 64.921875 107.652344 59.769531 103.890625 Z M 84.148438 138.480469 C 94.675781 140.03125 105.175781 142.269531 115.402344 145.140625 C 123.894531 166.082031 134.0625 186.335938 145.8125 205.6875 C 127.71875 194.910156 110.109375 183.199219 93.257812 170.726562 C 78.480469 159.789062 64.046875 148.089844 50.207031 135.828125 C 61.574219 135.949219 72.941406 136.832031 84.148438 138.480469 Z M 84.496094 177.683594 C 85.269531 178.261719 86.035156 178.867188 86.808594 179.445312 C 94.601562 185.214844 102.605469 190.753906 110.695312 196.183594 C 107.652344 195.839844 104.574219 195.601562 101.433594 195.601562 C 82.65625 195.601562 65.550781 202.035156 52.519531 212.519531 C 57.179688 197.636719 68.667969 184.878906 84.496094 177.683594 Z M 38.535156 262.304688 C 38.535156 231.5 66.753906 206.441406 101.4375 206.441406 C 134.464844 206.441406 161.570312 229.175781 164.09375 257.933594 L 155.65625 257.933594 C 152.964844 257.933594 150.683594 259.90625 150.292969 262.570312 C 149.667969 266.839844 149.226562 271.109375 148.871094 275.382812 L 40.285156 275.382812 C 39.128906 271.121094 38.535156 266.734375 38.535156 262.304688 Z M 640.632812 458.328125 C 644.574219 485.6875 648.289062 511.527344 646.085938 548.125 C 644.652344 571.804688 640.996094 595.519531 635.1875 618.675781 L 26.59375 618.675781 C 20.789062 595.523438 17.125 571.8125 15.695312 548.125 C 13.492188 511.527344 17.207031 485.6875 21.148438 458.328125 C 24.480469 435.179688 27.925781 411.234375 27.804688 379.703125 C 27.691406 348.933594 24.089844 317.519531 17.097656 286.226562 L 36.25 286.226562 C 36.257812 286.226562 36.269531 286.230469 36.28125 286.230469 C 36.292969 286.230469 36.300781 286.226562 36.3125 286.226562 L 148.269531 286.226562 C 146.824219 336.816406 164.203125 386.359375 197.628906 425.019531 C 233.261719 466.230469 281.832031 489.875 330.894531 489.875 C 379.953125 489.875 428.523438 466.238281 464.15625 425.023438 C 497.578125 386.363281 514.960938 336.816406 513.515625 286.230469 L 644.679688 286.230469 C 637.691406 317.519531 634.09375 348.933594 633.972656 379.707031 C 633.855469 411.234375 637.300781 435.179688 640.632812 458.328125 Z M 640.144531 252.605469 C 637.941406 255.605469 635.519531 258.507812 632.933594 261.242188 C 627.820312 266.644531 622.03125 271.382812 615.757812 275.386719 L 568.382812 275.386719 C 575.953125 263.175781 583.398438 250.824219 590.730469 238.386719 L 608.261719 245.5 C 608.929688 245.773438 609.617188 245.898438 610.296875 245.898438 C 612.433594 245.898438 614.46875 244.625 615.316406 242.515625 C 616.445312 239.738281 615.105469 236.578125 612.332031 235.453125 L 596.292969 228.941406 C 596.992188 227.738281 597.730469 226.535156 598.421875 225.332031 C 604.117188 215.484375 609.601562 205.746094 614.972656 196.078125 C 620.703125 196.734375 631.171875 199.21875 639.371094 208.609375 C 640.109375 209.453125 640.789062 210.308594 641.414062 211.175781 C 649.949219 222.964844 649.429688 240 640.144531 252.605469 Z M 675.0625 144.632812 L 643.0625 197.027344 C 641.230469 195.421875 639.355469 194.015625 637.46875 192.8125 L 664.484375 139.066406 C 666.066406 135.933594 669.773438 134.4375 672.710938 135.851562 C 673.480469 136.242188 674.136719 136.71875 674.722656 137.320312 C 676.4375 139.070312 676.582031 142.144531 675.0625 144.632812 Z M 675.0625 144.632812 " fill-opacity="1" fill-rule="nonzero"/></g><path fill="#3a322b" d="M 371.28125 268.339844 C 371.976562 268.636719 372.695312 268.773438 373.40625 268.773438 C 375.515625 268.773438 377.519531 267.539062 378.390625 265.480469 C 382.488281 255.863281 385.761719 245.832031 388.117188 235.675781 C 390.511719 225.355469 391.996094 214.757812 392.539062 204.179688 C 392.691406 201.1875 390.394531 198.644531 387.402344 198.488281 C 384.558594 198.292969 381.871094 200.636719 381.71875 203.628906 C 381.210938 213.566406 379.8125 223.523438 377.5625 233.214844 C 375.347656 242.765625 372.269531 252.1875 368.421875 261.230469 C 367.25 263.988281 368.53125 267.167969 371.28125 268.339844 Z M 371.28125 268.339844 " fill-opacity="1" fill-rule="nonzero"/><path fill="#3a322b" d="M 409.804688 267.164062 C 411.503906 267.164062 413.179688 266.367188 414.234375 264.867188 C 418.523438 258.796875 422.347656 252.339844 425.609375 245.683594 C 428.984375 238.8125 431.808594 231.625 434.011719 224.320312 C 434.875 221.453125 433.253906 218.429688 430.386719 217.566406 C 427.527344 216.695312 424.503906 218.324219 423.636719 221.1875 C 421.605469 227.933594 419 234.574219 415.882812 240.914062 C 412.871094 247.0625 409.335938 253.019531 405.382812 258.628906 C 403.660156 261.074219 404.238281 264.453125 406.683594 266.183594 C 407.636719 266.839844 408.726562 267.164062 409.804688 267.164062 Z M 409.804688 267.164062 " fill-opacity="1" fill-rule="nonzero"/></g></g></g></svg>