<svg xmlns="http://www.w3.org/2000/svg" xmlns:xlink="http://www.w3.org/1999/xlink" width="720" zoomAndPan="magnify" viewBox="0 0 540 1199.999942" height="1600" preserveAspectRatio="xMidYMid meet" version="1.0"><defs><clipPath id="0135ccfc3f"><path d="M 31 380 L 509 380 L 509 820.117188 L 31 820.117188 Z M 31 380 " clip-rule="nonzero"/></clipPath><clipPath id="1e8001fe64"><path d="M 0 0 L 240 0 L 240 281.25 L 0 281.25 Z M 0 0 " clip-rule="nonzero"/></clipPath></defs><rect x="-54" width="648" fill="#ffffff" y="-119.999994" height="1439.999931" fill-opacity="1"/><rect x="-54" width="648" fill="#ffffff" y="-119.999994" height="1439.999931" fill-opacity="1"/><rect x="-54" width="648" fill="#ffffff" y="-119.999994" height="1439.999931" fill-opacity="1"/><path fill="#d6b85a" d="M 502.964844 473.113281 C 502.320312 472.429688 501.523438 471.824219 500.539062 471.332031 C 500.5 471.332031 500.460938 471.292969 500.425781 471.292969 C 497.921875 470.082031 495.117188 470.421875 492.878906 471.785156 C 493.296875 471.066406 497.316406 464.011719 493.75 456.695312 C 491.25 451.539062 486.511719 449.527344 485.296875 449.035156 C 487.683594 445.507812 490.035156 442.019531 492.425781 438.492188 C 495.570312 433.828125 494.890625 427.230469 490.339844 423.855469 C 490.300781 423.855469 490.261719 423.816406 490.261719 423.78125 C 484.992188 419.988281 479.042969 422.414062 478.738281 422.527344 C 479.117188 421.65625 479.382812 420.746094 479.496094 419.761719 C 479.835938 416.574219 479.761719 410.242188 474.984375 405.085938 C 474.945312 405.046875 474.871094 404.972656 474.832031 404.933594 C 469.789062 399.625 460.804688 401.9375 458.417969 408.839844 L 444.425781 449.527344 C 443.859375 439.59375 443.328125 429.621094 442.796875 419.683594 C 442.757812 418.472656 442.378906 417.332031 441.699219 416.308594 C 440.636719 414.71875 438.625 412.519531 435.328125 411.757812 C 435.289062 411.757812 435.253906 411.722656 435.214844 411.722656 C 431.121094 410.847656 427.328125 414.1875 427.253906 418.359375 L 426.417969 468.753906 L 426.417969 468.828125 C 416.828125 470.003906 408.03125 476.035156 403.445312 485.132812 C 400.828125 490.367188 398.210938 495.5625 395.59375 500.796875 C 390.78125 497.078125 384.03125 492.90625 379.105469 483.695312 C 372.925781 472.050781 375.957031 464.921875 369.585938 460.410156 C 362.953125 455.746094 352.753906 458.589844 345.058594 461.8125 C 341.417969 458.816406 336.945312 456.050781 332.207031 455.253906 L 332.207031 455.179688 C 330.460938 447.972656 325.003906 442.171875 317.949219 440.085938 C 310.367188 437.847656 302.066406 440.199219 296.679688 446.113281 C 296.53125 442.777344 295.734375 432.84375 289.78125 428.332031 C 283.867188 423.894531 273.859375 424.046875 264.152344 429.429688 C 255.851562 434.09375 246.066406 435.496094 236.628906 434.246094 C 228.363281 433.109375 220.023438 435.230469 213.730469 440.425781 C 201.519531 450.515625 203.453125 466.855469 203.605469 467.882812 C 201.140625 465.71875 198.410156 463.710938 193.519531 463.027344 C 189.046875 462.421875 183.4375 462.988281 179.152344 465.035156 C 184.878906 447.023438 191.058594 430.226562 197.3125 415.058594 C 192.496094 415.816406 182.601562 418.128906 172.972656 425.789062 C 162.394531 434.246094 157.882812 444.710938 155.988281 450.4375 C 156.519531 432.464844 157.085938 414.488281 157.65625 396.515625 C 153.597656 398.488281 144.878906 403.378906 138.394531 413.464844 C 129.523438 427.308594 130.890625 441.414062 131.421875 445.507812 C 118.71875 417.5625 103.101562 397.160156 91.421875 384.039062 C 92.257812 401.824219 94.988281 425.410156 102.757812 452.070312 C 97.828125 450.777344 92.03125 449.640625 85.507812 448.996094 C 75.613281 448.050781 66.929688 448.542969 60.03125 449.414062 C 65.375 453.851562 71.746094 458.515625 79.140625 463.027344 C 91.082031 470.230469 102.339844 474.972656 111.742188 478.082031 C 104.691406 476.035156 96.617188 474.136719 87.59375 472.8125 C 74.742188 470.914062 63.214844 470.648438 53.625 471.105469 C 63.59375 480.320312 74.929688 489.949219 87.746094 499.65625 C 71.101562 506.332031 59.5 521.347656 59.5 538.792969 C 59.5 538.90625 59.5 539.019531 59.5 539.171875 C 54.34375 546.035156 51.3125 554.300781 51.3125 563.210938 C 51.3125 567.722656 52.105469 572.046875 53.546875 576.140625 L 35.351562 576.140625 C 42.289062 605.1875 43.765625 629.003906 43.84375 645.347656 C 43.992188 692.859375 32.46875 715.421875 35.351562 763.390625 C 36.714844 786.105469 40.734375 804.496094 43.84375 816.328125 C 115.761719 816.328125 187.722656 816.328125 259.679688 816.328125 C 331.636719 816.328125 403.59375 816.328125 475.515625 816.328125 C 478.625 804.496094 482.644531 786.105469 484.007812 763.390625 C 486.890625 715.421875 475.363281 692.859375 475.515625 645.347656 C 475.589844 629.003906 477.070312 605.1875 484.007812 576.140625 L 460.121094 576.140625 C 463.988281 573.753906 468.917969 570.1875 473.769531 565.070312 C 475.820312 562.910156 477.601562 560.746094 479.117188 558.660156 C 486.394531 548.765625 487.230469 535.152344 480.027344 525.214844 C 479.648438 524.683594 479.269531 524.152344 478.8125 523.660156 C 487.117188 510.046875 495.417969 496.433594 503.722656 482.859375 C 505.617188 479.789062 505.503906 475.691406 502.964844 473.113281 Z M 502.964844 473.113281 " fill-opacity="1" fill-rule="nonzero"/><path fill="#349370" d="M 458.570312 488.660156 C 464.140625 480.394531 469.714844 472.164062 475.289062 463.898438 C 475.097656 465.683594 469.375 515.699219 469.183594 516.113281 C 463.117188 513.15625 457.621094 512.929688 456.332031 512.890625 C 460.578125 505.269531 461.222656 496.398438 458.53125 488.660156 Z M 458.570312 488.660156 " fill-opacity="1" fill-rule="nonzero"/><path fill="#3fa07f" d="M 332.207031 455.179688 L 332.207031 455.253906 C 330.308594 454.875 328.375 454.835938 326.40625 455.253906 C 321.402344 456.277344 320.226562 459.425781 314.765625 463.179688 C 311.355469 454.988281 304.679688 448.808594 296.679688 446.113281 C 302.066406 440.199219 310.367188 437.847656 317.949219 440.085938 C 325.003906 442.171875 330.460938 447.972656 332.207031 455.179688 Z M 332.207031 455.179688 " fill-opacity="1" fill-rule="nonzero"/><path fill="#4aaf8f" d="M 314.765625 463.179688 C 314.046875 463.710938 313.25 464.203125 312.339844 464.734375 C 303.847656 469.625 295.242188 470.421875 289.476562 470.347656 L 289.441406 470.347656 C 280.570312 464.011719 280.644531 457.453125 270.710938 455.253906 C 268.855469 454.835938 267.035156 454.648438 265.253906 454.683594 C 266.3125 453.507812 275.5625 443.535156 289.78125 444.675781 C 292.171875 444.863281 294.484375 445.355469 296.679688 446.113281 C 304.679688 448.808594 311.355469 454.988281 314.765625 463.179688 Z M 314.765625 463.179688 " fill-opacity="1" fill-rule="nonzero"/><path fill="#53b79a" d="M 328.90625 482.023438 C 320.378906 478.5 311.011719 480.28125 298.046875 474.972656 C 294.445312 473.492188 291.675781 471.9375 289.476562 470.347656 C 295.242188 470.421875 303.847656 469.625 312.339844 464.734375 C 313.25 464.203125 314.046875 463.710938 314.765625 463.179688 C 320.226562 459.425781 321.402344 456.277344 326.40625 455.253906 C 328.375 454.835938 330.308594 454.875 332.207031 455.253906 C 336.945312 456.050781 341.417969 458.816406 345.058594 461.8125 C 349.078125 465.074219 352.070312 468.5625 353.324219 470.042969 C 358.480469 476.070312 364.394531 482.972656 362.6875 489.796875 C 360.867188 496.890625 351.957031 499.242188 345.058594 502.085938 C 343.730469 497.34375 341.113281 491.089844 335.578125 486.234375 C 333.382812 484.300781 331.183594 482.972656 328.90625 482.023438 Z M 328.90625 482.023438 " fill-opacity="1" fill-rule="nonzero"/><path fill="#89a25b" d="M 225.480469 473.457031 C 221.007812 475.125 216.535156 475.539062 211.945312 473.757812 C 208.230469 472.316406 205.996094 470.042969 203.605469 467.882812 C 203.453125 466.855469 201.519531 450.515625 213.730469 440.425781 C 220.023438 435.230469 228.363281 433.109375 236.628906 434.246094 C 246.066406 435.496094 255.851562 434.09375 264.152344 429.429688 C 273.859375 424.046875 283.867188 423.894531 289.78125 428.332031 C 295.734375 432.84375 296.53125 442.777344 296.679688 446.113281 C 294.484375 445.355469 292.171875 444.863281 289.78125 444.675781 C 275.5625 443.535156 266.3125 453.507812 265.253906 454.683594 C 250.464844 454.914062 238.03125 468.867188 225.480469 473.457031 Z M 225.480469 473.457031 " fill-opacity="1" fill-rule="nonzero"/><path fill="#89a25b" d="M 386.953125 546.035156 C 384.109375 552.898438 375.578125 560.558594 350.402344 563.933594 C 355.789062 558.054688 361.929688 549.332031 360.449219 540.082031 C 357.949219 524.269531 335.164062 518.730469 336.71875 509.289062 C 337.285156 505.839844 340.773438 503.867188 345.058594 502.085938 C 351.957031 499.242188 360.867188 496.890625 362.6875 489.796875 C 364.394531 482.972656 358.480469 476.070312 353.324219 470.042969 C 352.070312 468.5625 349.078125 465.074219 345.058594 461.8125 C 352.753906 458.589844 362.953125 455.746094 369.585938 460.410156 C 375.957031 464.921875 372.925781 472.050781 379.105469 483.695312 C 384.03125 492.90625 390.78125 497.078125 395.59375 500.796875 C 399.199219 503.5625 401.738281 506.066406 401.660156 510.199219 C 401.625 513.765625 399.691406 515.242188 397.074219 518.503906 C 395.40625 520.589844 393.472656 523.394531 391.539062 527.984375 C 387.746094 537.007812 389.074219 540.953125 386.953125 546.035156 Z M 386.953125 546.035156 " fill-opacity="1" fill-rule="nonzero"/><path fill="#a7d676" d="M 235.945312 576.140625 L 219.492188 576.140625 C 220.136719 573.296875 220.515625 570.300781 220.515625 567.269531 C 220.515625 552.707031 212.402344 539.851562 200.042969 532.117188 L 200.042969 532.078125 C 195.949219 522.75 190.753906 511.753906 184.269531 499.582031 C 179.757812 491.089844 176.308594 485.171875 174.375 480.660156 C 172.441406 476.183594 171.988281 473.074219 173.503906 470.15625 C 174.640625 467.917969 176.6875 466.25 179.152344 465.035156 C 183.4375 462.988281 189.046875 462.421875 193.519531 463.027344 C 198.414062 463.710938 201.140625 465.71875 203.605469 467.882812 C 205.996094 470.042969 208.230469 472.316406 211.945312 473.757812 C 216.535156 475.539062 221.007812 475.125 225.480469 473.457031 C 238.03125 468.867188 250.464844 454.914062 265.253906 454.683594 C 267.035156 454.648438 268.855469 454.835938 270.710938 455.253906 C 280.644531 457.453125 280.570312 464.011719 289.441406 470.347656 L 289.476562 470.347656 C 291.675781 471.9375 294.445312 473.492188 298.046875 474.972656 C 311.011719 480.28125 320.378906 478.5 328.90625 482.023438 C 331.183594 482.972656 333.382812 484.300781 335.578125 486.234375 C 341.113281 491.089844 343.730469 497.34375 345.058594 502.085938 C 340.773438 503.867188 337.285156 505.839844 336.71875 509.289062 C 335.164062 518.730469 357.949219 524.269531 360.449219 540.082031 C 361.929688 549.332031 355.789062 558.054688 350.402344 563.933594 L 345.511719 563.933594 C 346.121094 568.066406 346.460938 572.121094 346.613281 576.140625 Z M 235.945312 576.140625 " fill-opacity="1" fill-rule="nonzero"/><path fill="#d14b62" d="M 184.269531 499.582031 C 190.753906 511.753906 195.949219 522.75 200.042969 532.078125 C 192.308594 527.226562 182.867188 524.382812 172.707031 524.382812 C 169.445312 524.382812 166.300781 524.683594 163.230469 525.253906 C 166.1875 511.183594 169.863281 496.28125 174.375 480.660156 C 176.308594 485.171875 179.757812 491.089844 184.269531 499.582031 Z M 184.269531 499.582031 " fill-opacity="1" fill-rule="nonzero"/><path fill="#894687" d="M 141.769531 534.582031 C 140.367188 535.683594 139.039062 536.78125 137.789062 537.996094 C 129.109375 527.300781 115.042969 520.324219 99.117188 520.324219 C 82.628906 520.324219 68.105469 527.792969 59.5 539.171875 C 59.5 539.019531 59.5 538.90625 59.5 538.792969 C 59.5 521.347656 71.101562 506.332031 87.746094 499.65625 C 88.882812 500.492188 90.019531 501.363281 91.15625 502.199219 C 109.015625 515.394531 126.1875 526.011719 141.769531 534.582031 Z M 141.769531 534.582031 " fill-opacity="1" fill-rule="nonzero"/><path fill="#894687" d="M 220.515625 567.269531 C 220.515625 570.300781 220.136719 573.296875 219.492188 576.140625 L 172.746094 576.140625 C 172.898438 572.121094 173.238281 568.066406 173.84375 563.933594 L 146.925781 563.933594 C 146.925781 563.703125 146.925781 563.4375 146.925781 563.210938 C 146.925781 553.769531 143.550781 545.085938 137.789062 537.996094 C 139.039062 536.78125 140.367188 535.683594 141.769531 534.582031 C 145.03125 532.117188 148.671875 529.992188 152.652344 528.363281 C 152.953125 528.210938 153.257812 528.097656 153.597656 527.984375 C 156.632812 526.769531 159.855469 525.859375 163.230469 525.253906 C 166.300781 524.683594 169.445312 524.382812 172.707031 524.382812 C 182.867188 524.382812 192.308594 527.226562 200.042969 532.078125 L 200.042969 532.117188 C 212.402344 539.851562 220.515625 552.707031 220.515625 567.269531 Z M 220.515625 567.269531 " fill-opacity="1" fill-rule="nonzero"/><path fill="#e15c63" d="M 59.5 539.171875 C 68.105469 527.792969 82.628906 520.324219 99.117188 520.324219 C 115.042969 520.324219 129.109375 527.300781 137.789062 537.996094 C 143.550781 545.085938 146.925781 553.769531 146.925781 563.210938 C 146.925781 563.4375 146.925781 563.703125 146.925781 563.933594 L 137.070312 563.933594 C 136.464844 568.027344 136.046875 572.121094 135.820312 576.140625 L 53.546875 576.140625 C 52.105469 572.046875 51.3125 567.722656 51.3125 563.210938 C 51.3125 554.300781 54.34375 546.035156 59.5 539.171875 Z M 59.5 539.171875 " fill-opacity="1" fill-rule="nonzero"/><path fill="#4aaf8f" d="M 107.761719 467.539062 C 109.050781 471.140625 110.378906 474.667969 111.742188 478.082031 C 102.339844 474.972656 91.082031 470.230469 79.140625 463.027344 C 71.746094 458.515625 65.375 453.851562 60.03125 449.414062 C 66.929688 448.542969 75.613281 448.050781 85.507812 448.996094 C 92.03125 449.640625 97.828125 450.777344 102.757812 452.070312 C 104.238281 457.113281 105.90625 462.269531 107.761719 467.539062 Z M 107.761719 467.539062 " fill-opacity="1" fill-rule="nonzero"/><path fill="#4aaf8f" d="M 172.972656 425.789062 C 182.601562 418.128906 192.496094 415.816406 197.3125 415.058594 C 191.058594 430.226562 184.878906 447.023438 179.152344 465.035156 C 176.6875 466.25 174.640625 467.917969 173.503906 470.15625 C 171.988281 473.074219 172.441406 476.183594 174.375 480.660156 C 169.863281 496.28125 166.1875 511.183594 163.230469 525.253906 C 159.855469 525.859375 156.632812 526.769531 153.597656 527.984375 L 153.597656 527.945312 C 154.394531 502.121094 155.191406 476.261719 155.988281 450.4375 C 157.882812 444.710938 162.394531 434.246094 172.972656 425.789062 Z M 172.972656 425.789062 " fill-opacity="1" fill-rule="nonzero"/><path fill="#53b79a" d="M 157.65625 396.515625 C 157.085938 414.488281 156.519531 432.464844 155.988281 450.4375 C 155.191406 476.261719 154.394531 502.121094 153.597656 527.945312 L 153.597656 527.984375 C 153.257812 528.097656 152.953125 528.210938 152.652344 528.363281 C 151.25 509.78125 147.078125 482.632812 134.378906 452.296875 C 133.429688 449.984375 132.445312 447.746094 131.421875 445.546875 L 131.421875 445.507812 C 130.890625 441.414062 129.523438 427.308594 138.394531 413.464844 C 144.878906 403.378906 153.597656 398.488281 157.65625 396.515625 Z M 157.65625 396.515625 " fill-opacity="1" fill-rule="nonzero"/><path fill="#53b79a" d="M 111.742188 478.082031 C 121.109375 501.628906 132.179688 520.515625 141.769531 534.582031 C 126.1875 526.011719 109.015625 515.394531 91.15625 502.199219 C 90.019531 501.363281 88.882812 500.492188 87.746094 499.65625 C 74.929688 489.949219 63.59375 480.320312 53.625 471.105469 C 63.214844 470.648438 74.742188 470.914062 87.59375 472.8125 C 96.617188 474.136719 104.691406 476.035156 111.742188 478.082031 Z M 111.742188 478.082031 " fill-opacity="1" fill-rule="nonzero"/><path fill="#6fceae" d="M 134.378906 452.296875 C 147.078125 482.632812 151.25 509.78125 152.652344 528.363281 C 148.671875 529.992188 145.03125 532.117188 141.769531 534.582031 C 132.179688 520.515625 121.109375 501.628906 111.742188 478.082031 C 110.378906 474.667969 109.050781 471.140625 107.761719 467.539062 C 105.90625 462.269531 104.238281 457.113281 102.757812 452.070312 C 94.988281 425.410156 92.257812 401.824219 91.421875 384.039062 C 103.101562 397.160156 118.71875 417.5625 131.421875 445.507812 L 131.421875 445.546875 C 132.445312 447.746094 133.429688 449.984375 134.378906 452.296875 Z M 134.378906 452.296875 " fill-opacity="1" fill-rule="nonzero"/><path fill="#4aaf8f" d="M 502.964844 473.113281 C 505.503906 475.691406 505.617188 479.789062 503.722656 482.859375 C 495.417969 496.433594 487.117188 510.046875 478.8125 523.660156 C 478.664062 523.472656 478.511719 523.320312 478.359375 523.128906 C 475.515625 519.832031 472.253906 517.632812 469.183594 516.113281 L 489.695312 475.273438 C 490.414062 473.835938 491.550781 472.621094 492.878906 471.824219 C 492.878906 471.824219 492.878906 471.824219 492.878906 471.785156 C 495.117188 470.421875 497.921875 470.082031 500.425781 471.292969 C 500.460938 471.292969 500.5 471.332031 500.539062 471.332031 C 501.523438 471.824219 502.320312 472.429688 502.964844 473.113281 Z M 502.964844 473.113281 " fill-opacity="1" fill-rule="nonzero"/><path fill="#3fa07f" d="M 493.75 456.695312 C 497.316406 464.011719 493.296875 471.066406 492.878906 471.785156 C 492.878906 471.824219 492.878906 471.824219 492.878906 471.824219 C 491.550781 472.621094 490.414062 473.835938 489.695312 475.273438 L 469.183594 516.113281 C 469.375 515.699219 475.097656 465.683594 475.289062 463.898438 C 475.289062 463.863281 475.289062 463.863281 475.289062 463.863281 C 478.625 458.933594 481.960938 453.964844 485.296875 449.035156 C 486.511719 449.527344 491.25 451.539062 493.75 456.695312 Z M 493.75 456.695312 " fill-opacity="1" fill-rule="nonzero"/><path fill="#53b79a" d="M 490.339844 423.855469 C 494.890625 427.230469 495.570312 433.828125 492.425781 438.492188 C 490.035156 442.019531 487.683594 445.507812 485.296875 449.035156 C 481.960938 453.964844 478.625 458.933594 475.289062 463.863281 C 475.289062 463.863281 475.289062 463.863281 475.289062 463.898438 C 469.714844 472.164062 464.140625 480.394531 458.570312 488.660156 L 458.53125 488.660156 C 457.203125 484.640625 454.96875 480.925781 451.894531 477.855469 C 460.765625 459.578125 469.675781 441.261719 478.546875 422.984375 C 478.625 422.832031 478.699219 422.679688 478.738281 422.527344 C 479.042969 422.414062 484.992188 419.988281 490.261719 423.78125 C 490.261719 423.816406 490.300781 423.855469 490.339844 423.855469 Z M 490.339844 423.855469 " fill-opacity="1" fill-rule="nonzero"/><path fill="#dd864a" d="M 439.914062 541.75 C 441.167969 539.664062 442.378906 537.578125 443.59375 535.453125 C 447.992188 527.832031 452.238281 520.324219 456.332031 512.890625 C 457.621094 512.929688 463.117188 513.15625 469.183594 516.113281 C 472.253906 517.632812 475.515625 519.832031 478.359375 523.128906 C 478.511719 523.320312 478.664062 523.472656 478.8125 523.660156 C 479.269531 524.152344 479.648438 524.683594 480.027344 525.214844 C 487.230469 535.152344 486.394531 548.765625 479.117188 558.660156 C 477.601562 560.746094 475.820312 562.910156 473.769531 565.070312 C 468.917969 570.1875 463.988281 573.753906 460.121094 576.140625 L 419.0625 576.140625 C 426.039062 565.070312 432.976562 553.617188 439.914062 541.75 Z M 439.914062 541.75 " fill-opacity="1" fill-rule="nonzero"/><path fill="#6fceae" d="M 444.425781 449.527344 L 458.417969 408.839844 C 460.804688 401.9375 469.789062 399.625 474.832031 404.933594 C 474.871094 404.972656 474.945312 405.046875 474.984375 405.085938 C 479.761719 410.242188 479.835938 416.574219 479.496094 419.761719 C 479.382812 420.746094 479.117188 421.65625 478.738281 422.527344 C 478.699219 422.679688 478.625 422.832031 478.546875 422.984375 C 469.675781 441.261719 460.765625 459.578125 451.894531 477.855469 C 450.757812 476.679688 449.46875 475.617188 448.066406 474.628906 C 447.914062 474.554688 447.800781 474.480469 447.6875 474.367188 C 445.109375 472.621094 442.492188 471.332031 439.914062 470.347656 C 439.121094 470.042969 438.324219 469.777344 437.527344 469.585938 Z M 444.425781 449.527344 " fill-opacity="1" fill-rule="nonzero"/><path fill="#f69552" d="M 397.074219 518.503906 C 399.691406 515.242188 401.625 513.765625 401.660156 510.199219 C 401.738281 506.066406 399.199219 503.5625 395.59375 500.796875 C 398.210938 495.5625 400.828125 490.367188 403.445312 485.132812 C 408.03125 476.035156 416.828125 470.003906 426.417969 468.828125 C 430.097656 468.296875 433.847656 468.527344 437.527344 469.585938 C 438.324219 469.777344 439.121094 470.042969 439.914062 470.347656 C 442.492188 471.332031 445.109375 472.621094 447.6875 474.367188 C 447.800781 474.480469 447.914062 474.554688 448.066406 474.628906 C 449.46875 475.617188 450.757812 476.679688 451.894531 477.855469 C 454.964844 480.925781 457.203125 484.640625 458.53125 488.660156 C 461.222656 496.398438 460.578125 505.269531 456.332031 512.890625 C 452.238281 520.324219 447.992188 527.832031 443.59375 535.453125 C 442.378906 537.578125 441.167969 539.664062 439.914062 541.75 C 432.976562 553.617188 426.039062 565.070312 419.0625 576.140625 L 383.539062 576.140625 C 383.3125 572.121094 382.894531 568.027344 382.289062 563.933594 L 350.402344 563.933594 C 375.578125 560.558594 384.109375 552.898438 386.953125 546.035156 C 389.074219 540.953125 387.746094 537.007812 391.539062 527.984375 C 393.472656 523.394531 395.40625 520.589844 397.074219 518.503906 Z M 397.074219 518.503906 " fill-opacity="1" fill-rule="nonzero"/><path fill="#53b79a" d="M 442.796875 419.683594 C 443.328125 429.621094 443.859375 439.59375 444.425781 449.527344 L 437.527344 469.585938 C 433.847656 468.527344 430.097656 468.296875 426.417969 468.828125 L 426.417969 468.753906 L 427.253906 418.359375 C 427.328125 414.1875 431.121094 410.847656 435.214844 411.722656 C 435.253906 411.722656 435.289062 411.757812 435.328125 411.757812 C 438.625 412.519531 440.636719 414.71875 441.699219 416.308594 C 442.378906 417.332031 442.757812 418.472656 442.796875 419.683594 Z M 442.796875 419.683594 " fill-opacity="1" fill-rule="nonzero"/><path fill="#7f5d46" d="M 383.539062 576.140625 C 388.125 654.863281 325.382812 718.644531 259.679688 718.644531 C 193.976562 718.644531 131.230469 654.863281 135.820312 576.140625 C 136.046875 572.121094 136.464844 568.027344 137.070312 563.933594 L 173.84375 563.933594 C 173.238281 568.066406 172.898438 572.121094 172.746094 576.140625 C 170.207031 639.050781 217.746094 686.070312 259.679688 686.070312 C 301.609375 686.070312 349.152344 639.050781 346.613281 576.140625 C 346.460938 572.121094 346.121094 568.066406 345.511719 563.933594 L 382.289062 563.933594 C 382.894531 568.027344 383.3125 572.121094 383.539062 576.140625 Z M 383.539062 576.140625 " fill-opacity="1" fill-rule="nonzero"/><path fill="#c4a653" d="M 296.679688 674.65625 C 284.816406 682.015625 272 686.070312 259.679688 686.070312 C 217.746094 686.070312 170.207031 639.050781 172.746094 576.140625 L 192.382812 576.140625 C 192.382812 576.140625 189.882812 669.121094 296.679688 674.65625 Z M 296.679688 674.65625 " fill-opacity="1" fill-rule="nonzero"/><path fill="#c4a653" d="M 407.425781 576.140625 C 407.425781 576.140625 409.015625 718.191406 266.882812 718.378906 C 329.894531 713.980469 387.976562 651.980469 383.539062 576.140625 Z M 407.425781 576.140625 " fill-opacity="1" fill-rule="nonzero"/><path fill="#c4a653" d="M 475.515625 645.347656 C 475.363281 692.859375 486.890625 715.421875 484.007812 763.390625 C 482.644531 786.105469 478.625 804.496094 475.515625 816.328125 C 403.59375 816.328125 331.636719 816.328125 259.679688 816.328125 C 187.722656 816.328125 115.761719 816.328125 43.84375 816.328125 C 40.734375 804.496094 36.714844 786.105469 35.351562 763.390625 C 34.515625 749.511719 34.894531 737.792969 35.84375 726.949219 C 36.375 728.542969 53.511719 777.988281 247.433594 782.085938 C 447.535156 786.292969 435.402344 718.644531 435.402344 718.644531 C 435.402344 718.644531 428.808594 666.882812 447.535156 626.839844 C 466.300781 586.761719 460.121094 576.140625 460.121094 576.140625 L 484.007812 576.140625 C 477.070312 605.1875 475.589844 629.003906 475.515625 645.347656 Z M 475.515625 645.347656 " fill-opacity="1" fill-rule="nonzero"/><g clip-path="url(#0135ccfc3f)"><path fill="#3a322b" d="M 505.660156 470.441406 C 504.671875 469.433594 503.523438 468.601562 502.070312 467.867188 C 500.960938 467.332031 499.796875 467.054688 498.628906 466.902344 C 499.265625 463.5625 499.269531 459.359375 497.171875 455.050781 C 495.480469 451.570312 492.996094 449.25 490.769531 447.71875 L 495.554688 440.628906 C 499.921875 434.15625 498.597656 425.269531 492.460938 420.722656 C 489.339844 418.457031 486.085938 417.882812 483.371094 417.914062 C 483.453125 413.765625 482.582031 407.71875 477.828125 402.589844 C 477.792969 402.546875 477.605469 402.347656 477.566406 402.304688 C 474.363281 398.933594 469.691406 397.527344 465.066406 398.539062 C 460.246094 399.585938 456.417969 402.976562 454.832031 407.601562 L 447.140625 429.953125 L 446.582031 419.476562 C 446.476562 417.566406 445.882812 415.746094 444.855469 414.210938 C 443.355469 411.972656 440.632812 409.089844 436.011719 408.023438 C 433.058594 407.371094 429.980469 408.105469 427.558594 410.019531 C 425.007812 412.039062 423.515625 415.058594 423.460938 418.300781 L 422.6875 465.554688 C 413.238281 467.703125 404.789062 474.011719 400.0625 483.433594 L 394.234375 495.039062 C 390.1875 491.980469 385.855469 488.289062 382.453125 481.90625 C 379.890625 477.089844 379.070312 473.140625 378.34375 469.664062 C 377.382812 465.027344 376.46875 460.648438 371.773438 457.332031 C 365.761719 453.082031 356.980469 453.136719 345.652344 457.476562 C 341.789062 454.597656 338.292969 452.945312 335.167969 452.046875 C 332.59375 444.578125 326.597656 438.707031 319.007812 436.46875 C 312.460938 434.539062 305.414062 435.542969 299.613281 438.949219 C 298.605469 434.058594 296.488281 428.660156 292.042969 425.316406 C 284.722656 419.820312 273.054688 420.148438 262.308594 426.140625 C 255.121094 430.160156 246.179688 431.699219 237.144531 430.476562 C 227.679688 429.203125 218.265625 431.761719 211.304688 437.507812 C 202.78125 444.546875 200.363281 454.230469 199.789062 460.882812 C 198.160156 460.171875 196.292969 459.597656 194.019531 459.289062 C 191.128906 458.886719 188.027344 458.949219 185.007812 459.417969 C 189.878906 444.636719 195.171875 430.214844 200.832031 416.507812 C 201.355469 415.238281 201.148438 413.78125 200.296875 412.703125 C 199.441406 411.625 198.066406 411.085938 196.71875 411.316406 C 190.027344 412.40625 180.066406 415.289062 170.613281 422.839844 C 166.335938 426.257812 162.980469 429.996094 160.300781 433.71875 L 161.453125 396.644531 C 161.496094 395.316406 160.839844 394.066406 159.726562 393.34375 C 158.617188 392.621094 157.203125 392.539062 156.011719 393.109375 C 150.039062 396.003906 141.589844 401.53125 135.21875 411.4375 C 131.085938 417.863281 129.003906 424.324219 128.011719 430.117188 C 118.746094 412.679688 107.464844 396.394531 94.246094 381.535156 C 93.179688 380.332031 91.476562 379.933594 89.980469 380.539062 C 88.492188 381.144531 87.546875 382.625 87.625 384.230469 C 88.625 405.484375 91.898438 426.5 97.398438 446.957031 C 93.582031 446.191406 89.722656 445.613281 85.867188 445.238281 C 77.121094 444.382812 68.265625 444.53125 59.527344 445.6875 C 58.027344 445.882812 56.792969 446.945312 56.375 448.398438 C 55.960938 449.847656 56.441406 451.40625 57.605469 452.367188 C 63.753906 457.457031 70.34375 462.136719 77.1875 466.289062 C 78.199219 466.898438 79.21875 467.5 80.242188 468.097656 C 71.359375 467.183594 62.382812 466.914062 53.464844 467.3125 C 51.9375 467.378906 50.597656 468.359375 50.070312 469.796875 C 49.542969 471.230469 49.929688 472.84375 51.058594 473.882812 C 60.492188 482.621094 70.394531 490.992188 80.566406 498.894531 C 65.515625 507.15625 56.015625 521.914062 55.738281 538.0625 C 50.570312 545.328125 47.535156 553.953125 47.535156 563.210938 C 47.535156 566.300781 47.90625 569.363281 48.566406 572.367188 L 35.359375 572.367188 C 34.199219 572.367188 33.101562 572.898438 32.382812 573.808594 C 31.664062 574.71875 31.398438 575.910156 31.667969 577.042969 C 37.132812 599.910156 39.949219 622.90625 40.03125 645.378906 C 40.113281 666.878906 37.742188 683.351562 35.453125 699.28125 C 32.644531 718.8125 29.984375 737.265625 31.578125 763.648438 C 32.660156 781.675781 35.550781 799.730469 40.160156 817.300781 C 40.59375 818.953125 42.097656 820.117188 43.824219 820.117188 L 475.53125 820.117188 C 477.253906 820.117188 478.761719 818.953125 479.195312 817.289062 C 483.808594 799.714844 486.695312 781.660156 487.78125 763.636719 C 489.367188 737.253906 486.714844 718.804688 483.90625 699.269531 C 481.617188 683.34375 479.242188 666.871094 479.324219 645.367188 C 479.414062 622.886719 482.226562 599.894531 487.6875 577.03125 C 487.957031 575.898438 487.695312 574.710938 486.976562 573.800781 C 486.257812 572.890625 485.160156 572.355469 484 572.355469 L 471.589844 572.355469 C 473.300781 570.863281 474.964844 569.316406 476.527344 567.667969 C 478.546875 565.53125 480.449219 563.257812 482.171875 560.914062 C 490.617188 549.4375 491.050781 534.464844 483.378906 523.449219 L 506.96875 484.828125 C 509.851562 480.089844 509.320312 474.175781 505.660156 470.441406 Z M 490.355469 458.371094 C 492.628906 463.046875 490.71875 467.714844 489.941406 469.285156 C 488.472656 470.394531 487.203125 471.8125 486.316406 473.570312 L 475.542969 495.003906 C 476.382812 487.730469 477.496094 478.0625 478.957031 465.226562 L 486.527344 454.007812 C 487.882812 454.941406 489.351562 456.304688 490.355469 458.371094 Z M 461.90625 509.730469 C 464.363281 502.960938 464.5625 495.8125 462.738281 489.261719 L 469.761719 478.855469 C 468.324219 491.34375 466.835938 504.144531 466.039062 510.796875 C 464.566406 510.324219 463.167969 509.972656 461.90625 509.730469 Z M 488.089844 426.921875 C 490.875 428.984375 491.410156 433.234375 489.277344 436.386719 L 459.15625 481.015625 C 458.339844 479.6875 457.429688 478.414062 456.414062 477.210938 L 481.449219 425.675781 C 482.964844 425.347656 485.632812 425.140625 488.089844 426.921875 Z M 462.011719 410.066406 C 462.730469 407.96875 464.480469 406.433594 466.6875 405.949219 C 468.746094 405.488281 470.699219 406.082031 472.203125 407.664062 C 475.921875 411.679688 475.996094 416.699219 475.710938 419.339844 C 475.640625 420.015625 475.445312 420.683594 475.132812 421.328125 L 450.605469 471.816406 C 450.472656 471.722656 450.351562 471.613281 450.21875 471.519531 L 449.808594 471.238281 C 447.457031 469.648438 444.933594 468.351562 442.335938 467.285156 L 447.976562 450.878906 C 447.976562 450.878906 447.976562 450.875 447.976562 450.871094 Z M 432.273438 415.96875 C 432.640625 415.675781 433.402344 415.199219 434.480469 415.453125 C 436.527344 415.921875 437.832031 417.332031 438.566406 418.425781 C 438.839844 418.832031 438.992188 419.320312 439.019531 419.882812 L 440.585938 449.050781 L 435.046875 465.152344 C 433.460938 464.894531 431.875 464.773438 430.289062 464.757812 L 431.046875 418.425781 C 431.0625 417.476562 431.523438 416.558594 432.273438 415.96875 Z M 438.578125 473.894531 C 441.019531 474.8125 443.367188 476.03125 445.535156 477.5 L 445.886719 477.742188 C 456.410156 485.058594 459.476562 499.382812 453.023438 511.058594 C 448.917969 518.472656 444.683594 525.96875 440.304688 533.535156 C 432.757812 546.585938 424.898438 559.625 416.945312 572.351562 L 387.027344 572.351562 C 386.78125 569.363281 386.46875 566.375 386.035156 563.386719 C 385.761719 561.523438 384.164062 560.144531 382.28125 560.144531 L 377.921875 560.144531 C 384.132812 556.839844 388.292969 552.652344 390.433594 547.507812 C 391.527344 544.882812 391.847656 542.601562 392.1875 540.191406 C 392.605469 537.230469 393.039062 534.164062 395.03125 529.449219 C 396.09375 526.933594 397.148438 525.027344 398.164062 523.472656 L 415.84375 533.492188 C 416.4375 533.828125 417.078125 533.988281 417.710938 533.988281 C 419.03125 533.988281 420.316406 533.292969 421.011719 532.0625 C 422.042969 530.242188 421.40625 527.925781 419.582031 526.894531 L 402.867188 517.417969 C 404.292969 515.53125 405.40625 513.425781 405.464844 510.253906 C 405.542969 505.582031 403.324219 502.484375 400.328125 499.796875 L 406.835938 486.832031 C 412.738281 475.09375 426.671875 469.421875 438.578125 473.894531 Z M 140.386719 567.726562 L 169.5625 567.726562 C 169.273438 570.449219 169.109375 573.167969 169 575.878906 C 168.992188 575.972656 168.945312 576.050781 168.945312 576.144531 C 168.945312 576.214844 168.980469 576.269531 168.984375 576.339844 C 167.90625 606.390625 177.820312 635.476562 197.121094 657.695312 C 214.605469 677.832031 237.988281 689.847656 259.675781 689.847656 C 281.359375 689.847656 304.746094 677.828125 322.230469 657.695312 C 341.527344 635.480469 351.441406 606.390625 350.367188 576.339844 C 350.371094 576.269531 350.402344 576.214844 350.402344 576.144531 C 350.402344 576.050781 350.359375 575.976562 350.351562 575.878906 C 350.246094 573.167969 350.078125 570.449219 349.789062 567.726562 L 378.96875 567.726562 C 383.542969 605.449219 372.050781 643.316406 347.179688 672.082031 C 323.695312 699.253906 291.796875 714.835938 259.671875 714.835938 C 227.546875 714.835938 195.652344 699.253906 172.164062 672.082031 C 147.300781 643.316406 135.8125 605.453125 140.386719 567.726562 Z M 172.699219 528.1875 C 196.96875 528.1875 216.710938 545.722656 216.710938 567.273438 C 216.710938 568.980469 216.546875 570.675781 216.300781 572.359375 L 176.792969 572.359375 C 176.984375 569.734375 177.234375 567.101562 177.605469 564.46875 C 177.761719 563.386719 177.433594 562.28125 176.714844 561.457031 C 175.996094 560.625 174.953125 560.148438 173.851562 560.148438 L 150.558594 560.148438 C 149.988281 552.265625 147.265625 544.925781 142.886719 538.585938 C 150.980469 531.960938 161.648438 528.1875 172.699219 528.1875 Z M 176.953125 493.980469 C 178.164062 496.203125 179.496094 498.648438 180.9375 501.359375 C 184.886719 508.789062 188.589844 516.410156 192.15625 524.074219 C 186.148438 521.851562 179.585938 520.601562 172.699219 520.601562 C 171.144531 520.601562 169.609375 520.6875 168.078125 520.808594 C 170.277344 510.871094 172.714844 500.929688 175.390625 491.097656 C 175.898438 492.042969 176.394531 492.960938 176.953125 493.980469 Z M 235.925781 579.9375 L 253.085938 579.9375 C 253.09375 579.9375 253.101562 579.941406 253.109375 579.941406 C 253.121094 579.941406 253.132812 579.9375 253.144531 579.9375 L 270.394531 579.9375 C 270.429688 579.9375 270.46875 579.941406 270.507812 579.941406 C 270.515625 579.941406 270.519531 579.9375 270.527344 579.9375 L 342.859375 579.9375 C 343.046875 606.886719 333.824219 632.785156 316.511719 652.722656 C 300.445312 671.222656 279.199219 682.265625 259.679688 682.265625 C 240.15625 682.265625 218.910156 671.222656 202.847656 652.722656 C 185.53125 632.78125 176.304688 606.886719 176.5 579.9375 Z M 367.402344 463.519531 C 369.570312 465.050781 370.050781 466.980469 370.929688 471.203125 C 371.71875 474.984375 372.695312 479.6875 375.765625 485.46875 C 380.441406 494.25 386.769531 498.949219 391.390625 502.375 C 396.144531 505.902344 397.933594 507.484375 397.890625 510.125 C 397.863281 511.613281 397.34375 512.289062 395.550781 514.417969 C 394.09375 516.140625 392.25 518.347656 390.328125 521.8125 C 389.871094 519.960938 389.332031 518.085938 388.625 516.183594 C 386.949219 511.703125 384.644531 507.445312 381.785156 503.535156 C 380.546875 501.851562 378.179688 501.476562 376.488281 502.71875 C 374.800781 503.953125 374.433594 506.328125 375.667969 508.015625 C 378.117188 511.363281 380.089844 515.007812 381.523438 518.835938 C 385.3125 528.980469 384.621094 538.488281 383.316406 544.824219 C 380.546875 551.109375 372.523438 555.714844 359.363281 558.554688 C 363.546875 551.933594 365.175781 545.542969 364.207031 539.476562 C 362.632812 529.59375 354.664062 523.402344 348.261719 518.429688 C 344.246094 515.316406 340.097656 512.089844 340.464844 509.902344 C 340.824219 507.757812 345.496094 505.949219 349.625 504.355469 C 356.183594 501.828125 364.34375 498.675781 366.355469 490.71875 C 368.566406 481.984375 361.71875 473.996094 356.214844 467.578125 C 354.855469 465.984375 353.519531 464.535156 352.214844 463.222656 C 359.007812 461.171875 364.195312 461.253906 367.402344 463.519531 Z M 350.453125 472.519531 C 355.042969 477.871094 360.25 483.945312 359.003906 488.867188 C 357.984375 492.90625 352.628906 495.070312 347.332031 497.117188 C 345.191406 491.585938 342.132812 486.949219 338.09375 483.398438 C 336.304688 481.824219 334.5 480.621094 332.6875 479.660156 L 332.6875 470.136719 C 332.6875 468.039062 330.988281 466.34375 328.894531 466.34375 C 326.804688 466.34375 325.105469 468.039062 325.105469 470.136719 L 325.105469 476.910156 C 322.488281 476.3125 319.835938 475.96875 317.121094 475.621094 C 312.628906 475.042969 307.96875 474.378906 302.703125 472.625 C 306.816406 471.605469 310.664062 470.078125 314.230469 468.007812 C 317.957031 465.847656 320.195312 463.808594 321.992188 462.167969 C 324.003906 460.332031 325.015625 459.40625 327.195312 458.949219 C 330.875 458.175781 338.796875 458.917969 350.453125 472.519531 Z M 309.828125 461.730469 C 304.277344 464.8125 297.835938 466.421875 290.652344 466.519531 C 288.113281 464.519531 286.414062 462.492188 284.785156 460.496094 C 282.210938 457.355469 279.550781 454.121094 274.171875 452.277344 C 277.902344 450 283.144531 447.921875 289.457031 448.453125 C 297.996094 449.140625 305.542969 454.144531 309.828125 461.730469 Z M 316.867188 443.738281 C 320.988281 444.949219 324.417969 447.738281 326.570312 451.382812 C 326.261719 451.429688 325.933594 451.464844 325.644531 451.527344 C 321.441406 452.402344 319.230469 454.421875 316.886719 456.558594 C 316.621094 456.800781 316.332031 457.054688 316.050781 457.308594 C 313.027344 452.222656 308.804688 448.117188 303.867188 445.257812 C 307.800781 443.085938 312.492188 442.453125 316.867188 443.738281 Z M 216.132812 443.351562 C 221.46875 438.945312 228.757812 436.996094 236.128906 437.988281 C 246.78125 439.433594 257.394531 437.570312 266.003906 432.757812 C 274.011719 428.296875 282.640625 427.738281 287.484375 431.378906 C 290.34375 433.53125 291.691406 437.730469 292.328125 441.238281 C 291.574219 441.125 290.835938 440.953125 290.066406 440.894531 C 276.460938 439.804688 266.964844 447.601562 263.523438 451 C 253.957031 451.734375 245.496094 457.230469 237.84375 462.230469 C 234.578125 464.371094 231.472656 466.386719 228.46875 467.96875 C 228.3125 465.300781 228.53125 462.183594 229.585938 458.855469 C 230.511719 455.9375 231.964844 453.222656 233.902344 450.773438 C 235.203125 449.125 234.925781 446.742188 233.28125 445.445312 C 231.640625 444.144531 229.257812 444.417969 227.953125 446.0625 C 225.445312 449.234375 223.558594 452.769531 222.359375 456.5625 C 220.660156 461.917969 220.613281 466.855469 221.109375 470.746094 C 218.472656 471.28125 215.878906 471.246094 213.304688 470.242188 C 210.777344 469.261719 209.121094 467.78125 207.226562 466.070312 C 207 462.21875 207.128906 450.777344 216.132812 443.351562 Z M 192.984375 466.785156 C 196.839844 467.320312 198.902344 468.808594 201.109375 470.757812 C 201.113281 470.761719 201.117188 470.761719 201.117188 470.765625 C 201.429688 471.046875 201.753906 471.335938 202.078125 471.632812 C 204.246094 473.589844 206.707031 475.808594 210.5625 477.304688 C 221.898438 481.71875 232.121094 475.03125 242 468.578125 C 251.292969 462.496094 260.070312 456.761719 269.898438 458.941406 C 274.550781 459.96875 276.199219 461.976562 278.917969 465.304688 C 282.191406 469.304688 286.265625 474.277344 296.589844 478.5 C 304.183594 481.601562 310.542969 482.417969 316.152344 483.144531 C 320.5 483.703125 324.082031 484.167969 327.394531 485.527344 C 327.410156 485.535156 327.425781 485.542969 327.441406 485.550781 C 329.382812 486.355469 331.234375 487.464844 333.089844 489.097656 C 336.25 491.875 338.664062 495.597656 340.363281 500.09375 C 336.652344 502.011719 333.675781 504.523438 332.988281 508.667969 C 331.878906 515.316406 337.578125 519.742188 343.613281 524.425781 C 349.238281 528.796875 355.617188 533.746094 356.722656 540.675781 C 357.636719 546.417969 354.902344 552.964844 348.6875 560.152344 L 345.503906 560.152344 C 344.40625 560.152344 343.363281 560.628906 342.644531 561.460938 C 341.921875 562.285156 341.597656 563.390625 341.753906 564.472656 C 342.125 567.105469 342.371094 569.738281 342.5625 572.363281 L 274.527344 572.363281 L 278.859375 500.097656 C 279.460938 490.035156 275.445312 480.445312 267.820312 473.765625 C 267.773438 473.722656 267.660156 473.628906 267.609375 473.589844 C 266 472.296875 263.710938 472.578125 262.390625 474.160156 C 261.066406 475.742188 261.300781 478.136719 262.855469 479.496094 C 268.679688 484.59375 271.757812 491.9375 271.296875 499.644531 L 266.9375 572.359375 L 256.203125 572.359375 C 254.371094 563.660156 253.007812 554.796875 252.195312 545.964844 C 251.386719 537.167969 251.089844 528.21875 251.296875 519.375 C 251.347656 517.28125 249.691406 515.546875 247.597656 515.496094 C 245.609375 515.464844 243.761719 517.105469 243.71875 519.203125 C 243.496094 528.332031 243.808594 537.574219 244.648438 546.664062 C 245.433594 555.257812 246.734375 563.875 248.460938 572.359375 L 239.625 572.359375 C 239.371094 559.304688 237.726562 546.308594 234.582031 533.664062 C 231.75 522.292969 227.742188 511.148438 222.667969 500.550781 C 221.765625 498.65625 219.5 497.863281 217.613281 498.761719 C 215.726562 499.664062 214.925781 501.933594 215.832031 503.820312 C 220.6875 513.964844 224.519531 524.621094 227.226562 535.5 C 230.222656 547.542969 231.792969 559.929688 232.046875 572.363281 L 223.992188 572.363281 C 224.191406 570.679688 224.304688 568.980469 224.304688 567.277344 C 224.304688 551.816406 215.917969 538.128906 203.074219 529.628906 C 198.335938 518.882812 193.15625 508.183594 187.644531 497.808594 C 186.191406 495.070312 184.84375 492.601562 183.621094 490.359375 C 177.679688 479.460938 175.332031 474.921875 176.894531 471.882812 C 178.96875 467.789062 186.890625 465.941406 192.984375 466.785156 Z M 175.347656 428.75 C 180.695312 424.480469 186.238281 421.9375 191.058594 420.425781 C 185.667969 433.945312 180.628906 448.0625 176.003906 462.503906 C 173.511719 463.992188 171.410156 465.917969 170.128906 468.417969 C 168.152344 472.277344 168.496094 476.027344 170.382812 480.855469 C 166.488281 494.417969 163.019531 508.253906 160.035156 522.066406 C 159.203125 522.253906 158.359375 522.425781 157.539062 522.648438 L 159.761719 451.136719 C 161.914062 444.800781 166.335938 435.949219 175.347656 428.75 Z M 141.601562 415.527344 C 145.210938 409.914062 149.617188 405.945312 153.667969 403.195312 L 150.914062 491.6875 C 147.75 477.746094 143.417969 464.085938 137.875 450.828125 C 137.003906 448.753906 136.070312 446.714844 135.148438 444.671875 C 134.507812 439.601562 134.015625 427.320312 141.601562 415.527344 Z M 95.964844 395.265625 C 110.324219 413.035156 122.042969 432.65625 130.875 453.753906 C 140.523438 476.816406 146.460938 501.109375 148.605469 526.007812 C 146.601562 526.972656 144.648438 528.039062 142.785156 529.242188 C 129.769531 509.597656 119.179688 488.441406 111.339844 466.269531 C 109.5625 461.257812 107.929688 456.195312 106.441406 451.097656 C 106.425781 451.035156 106.40625 450.984375 106.390625 450.925781 C 101.09375 432.773438 97.605469 414.140625 95.964844 395.265625 Z M 69.980469 452.367188 C 75.035156 452.148438 80.109375 452.289062 85.136719 452.773438 C 90.039062 453.253906 94.949219 454.078125 99.757812 455.222656 C 101.125 459.777344 102.601562 464.304688 104.191406 468.796875 C 104.535156 469.769531 104.886719 470.738281 105.238281 471.707031 C 96.867188 468.421875 88.785156 464.429688 81.121094 459.785156 C 77.3125 457.480469 73.585938 455 69.980469 452.367188 Z M 87.035156 476.570312 C 94.402344 477.652344 101.75 479.21875 108.902344 481.230469 C 114.84375 495.882812 121.960938 510.050781 130.179688 523.589844 C 117.523438 516.050781 105.199219 507.855469 93.410156 499.128906 C 83.070312 491.480469 72.96875 483.292969 63.289062 474.714844 C 71.242188 474.796875 79.195312 475.414062 87.035156 476.570312 Z M 87.277344 503.996094 C 87.820312 504.402344 88.355469 504.828125 88.898438 505.226562 C 94.347656 509.265625 99.949219 513.140625 105.609375 516.941406 C 103.484375 516.699219 101.328125 516.53125 99.128906 516.53125 C 85.992188 516.53125 74.023438 521.035156 64.90625 528.371094 C 68.167969 517.957031 76.203125 509.03125 87.277344 503.996094 Z M 55.121094 563.199219 C 55.121094 541.648438 74.867188 524.117188 99.132812 524.117188 C 122.242188 524.117188 141.207031 540.023438 142.972656 560.144531 L 137.070312 560.144531 C 135.183594 560.144531 133.589844 561.523438 133.316406 563.386719 C 132.878906 566.375 132.570312 569.363281 132.324219 572.351562 L 56.347656 572.351562 C 55.539062 569.371094 55.121094 566.300781 55.121094 563.199219 Z M 476.398438 700.347656 C 479.15625 719.492188 481.753906 737.566406 480.210938 763.175781 C 479.210938 779.742188 476.652344 796.332031 472.589844 812.535156 L 46.765625 812.535156 C 42.703125 796.335938 40.140625 779.746094 39.140625 763.175781 C 37.597656 737.566406 40.199219 719.492188 42.957031 700.347656 C 45.285156 684.152344 47.699219 667.398438 47.613281 645.339844 C 47.535156 623.8125 45.015625 601.832031 40.125 579.9375 L 53.519531 579.9375 C 53.527344 579.9375 53.535156 579.941406 53.542969 579.941406 C 53.550781 579.941406 53.558594 579.9375 53.566406 579.9375 L 131.902344 579.9375 C 130.890625 615.332031 143.046875 649.996094 166.4375 677.042969 C 191.367188 705.878906 225.351562 722.417969 259.679688 722.417969 C 294.003906 722.417969 327.988281 705.882812 352.921875 677.046875 C 376.304688 650 388.46875 615.332031 387.457031 579.941406 L 479.230469 579.941406 C 474.339844 601.832031 471.824219 623.8125 471.738281 645.34375 C 471.65625 667.398438 474.066406 684.152344 476.398438 700.347656 Z M 476.058594 556.417969 C 474.515625 558.511719 472.820312 560.546875 471.011719 562.457031 C 467.433594 566.238281 463.382812 569.550781 458.992188 572.355469 L 425.847656 572.355469 C 431.140625 563.8125 436.351562 555.167969 441.480469 546.464844 L 453.75 551.445312 C 454.214844 551.632812 454.699219 551.722656 455.171875 551.722656 C 456.667969 551.722656 458.089844 550.832031 458.6875 549.355469 C 459.472656 547.414062 458.539062 545.203125 456.597656 544.414062 L 445.375 539.859375 C 445.863281 539.019531 446.378906 538.175781 446.863281 537.335938 C 450.847656 530.445312 454.6875 523.628906 458.441406 516.867188 C 462.453125 517.324219 469.777344 519.066406 475.515625 525.632812 C 476.03125 526.222656 476.507812 526.824219 476.945312 527.429688 C 482.914062 535.679688 482.550781 547.597656 476.058594 556.417969 Z M 500.488281 480.871094 L 478.097656 517.53125 C 476.816406 516.40625 475.503906 515.425781 474.183594 514.582031 L 493.089844 476.976562 C 494.195312 474.785156 496.789062 473.738281 498.84375 474.730469 C 499.382812 475.003906 499.839844 475.335938 500.25 475.757812 C 501.453125 476.980469 501.550781 479.132812 500.488281 480.871094 Z M 500.488281 480.871094 " fill-opacity="1" fill-rule="nonzero"/></g><path fill="#3a322b" d="M 287.9375 567.425781 C 288.425781 567.632812 288.929688 567.726562 289.425781 567.726562 C 290.898438 567.726562 292.300781 566.863281 292.914062 565.421875 C 295.777344 558.695312 298.070312 551.675781 299.71875 544.570312 C 301.394531 537.351562 302.433594 529.9375 302.8125 522.535156 C 302.917969 520.441406 301.3125 518.664062 299.21875 518.554688 C 297.226562 518.417969 295.347656 520.054688 295.242188 522.148438 C 294.882812 529.101562 293.90625 536.070312 292.332031 542.847656 C 290.78125 549.53125 288.628906 556.125 285.9375 562.449219 C 285.117188 564.378906 286.011719 566.605469 287.9375 567.425781 Z M 287.9375 567.425781 " fill-opacity="1" fill-rule="nonzero"/><path fill="#3a322b" d="M 314.890625 566.601562 C 316.082031 566.601562 317.253906 566.042969 317.992188 564.992188 C 320.992188 560.746094 323.667969 556.230469 325.949219 551.574219 C 328.3125 546.765625 330.289062 541.738281 331.832031 536.625 C 332.433594 534.621094 331.300781 532.503906 329.292969 531.902344 C 327.292969 531.289062 325.175781 532.433594 324.570312 534.433594 C 323.148438 539.15625 321.324219 543.800781 319.144531 548.238281 C 317.035156 552.539062 314.566406 556.703125 311.796875 560.628906 C 310.589844 562.339844 310.996094 564.707031 312.707031 565.914062 C 313.375 566.375 314.136719 566.601562 314.890625 566.601562 Z M 314.890625 566.601562 " fill-opacity="1" fill-rule="nonzero"/><g clip-path="url(#1e8001fe64)"><path fill="#6fceae" d="M 0.4375 281.160156 C 0.0078125 280.53125 0.0859375 279.976562 0.0859375 279.4375 C 0.0820312 187.25 0.0820312 95.058594 0.0859375 2.871094 C 0.0859375 0.355469 0.09375 0.355469 2.601562 0.355469 C 81.144531 0.355469 159.6875 0.355469 238.230469 0.363281 C 238.753906 0.363281 239.515625 0.09375 239.75 0.539062 C 240.023438 1.046875 239.445312 1.605469 239.117188 2.0625 C 237.09375 4.882812 235.488281 7.957031 233.617188 10.871094 C 231.796875 13.703125 230.085938 16.625 228.140625 19.371094 C 226.777344 21.289062 225.414062 23.214844 223.800781 24.976562 C 221.757812 27.210938 220.035156 29.730469 218.144531 32.105469 C 215.59375 35.308594 212.527344 37.996094 209.457031 40.671875 C 207.828125 42.089844 206.214844 43.558594 204.417969 44.738281 C 201.714844 46.511719 199.035156 48.328125 196.234375 49.964844 C 192.925781 51.894531 189.496094 53.617188 185.996094 55.113281 C 182.527344 56.59375 179.0625 58.09375 175.511719 59.410156 C 170.515625 61.257812 165.71875 63.625 160.75 65.539062 C 157.839844 66.660156 154.953125 67.871094 151.992188 68.835938 C 148.886719 69.851562 146.023438 71.414062 142.945312 72.425781 C 140 73.390625 137.300781 74.917969 134.410156 75.949219 C 130.40625 77.375 126.566406 79.1875 122.683594 80.867188 C 118.800781 82.550781 114.964844 84.382812 111.199219 86.363281 C 108.652344 87.703125 106.207031 89.199219 103.757812 90.671875 C 101.058594 92.292969 98.488281 94.136719 96.007812 96.109375 C 92.265625 99.09375 88.664062 102.238281 85.285156 105.621094 C 82.777344 108.128906 80.433594 110.808594 78.148438 113.53125 C 75.066406 117.203125 72.46875 121.222656 70.101562 125.355469 C 67.757812 129.445312 65.792969 133.746094 64.222656 138.222656 C 62.722656 142.503906 61.339844 146.832031 59.949219 151.144531 C 59.101562 153.769531 58.367188 156.476562 57.734375 159.183594 C 57.492188 160.230469 57.046875 161.234375 56.789062 162.28125 C 55.585938 167.238281 54.765625 172.28125 53.378906 177.199219 C 52.917969 178.828125 52.769531 180.546875 52.34375 182.191406 C 51.679688 184.761719 51.007812 187.34375 50.136719 189.851562 C 49.125 192.761719 48.585938 195.800781 47.539062 198.703125 C 45.707031 203.785156 44.371094 209.027344 42.511719 214.113281 C 41.355469 217.269531 39.957031 220.335938 38.933594 223.527344 C 37.652344 227.515625 35.800781 231.25 34.089844 235.035156 C 32.460938 238.628906 30.683594 242.167969 28.785156 245.648438 C 26.101562 250.574219 22.816406 255.070312 19.519531 259.566406 C 17.972656 261.671875 16.203125 263.609375 14.664062 265.71875 C 10.527344 271.382812 5.449219 276.152344 0.4375 281.160156 Z M 0.4375 281.160156 " fill-opacity="1" fill-rule="nonzero"/></g><path fill="#6fceae" d="M 444.269531 1233.265625 C 432.140625 1233.164062 418.792969 1231.925781 406.382812 1232.382812 C 393.199219 1232.898438 380.59375 1237.296875 367.644531 1239.363281 C 344.824219 1242.535156 323.964844 1227.289062 311.785156 1209.160156 C 302.820312 1196.316406 299.492188 1180.273438 301.273438 1164.746094 C 301.601562 1159.554688 303.734375 1154.992188 305.65625 1150.363281 C 308.230469 1144.175781 311.089844 1138.09375 315.265625 1132.777344 C 329 1116.105469 348.40625 1105.636719 364.789062 1091.910156 C 366.394531 1090.640625 367.503906 1088.984375 368.445312 1087.175781 C 373.554688 1076.636719 378.855469 1065.152344 390.082031 1059.953125 C 408.363281 1049.785156 432.335938 1052.714844 447.957031 1066.65625 C 451.851562 1070.210938 455.105469 1074.375 459.050781 1077.851562 C 470.4375 1088.417969 481.6875 1101.289062 497.523438 1104.652344 C 514.285156 1106.097656 523.003906 1093.625 540.96875 1099.296875 C 558.355469 1103.878906 564.238281 1124.125 563.476562 1140.269531 C 562.1875 1154.886719 556.324219 1168.800781 548.484375 1181.070312 C 523.035156 1217.601562 488.515625 1234.070312 444.269531 1233.265625 Z M 444.269531 1233.265625 " fill-opacity="1" fill-rule="nonzero"/></svg>