<svg xmlns="http://www.w3.org/2000/svg" xmlns:xlink="http://www.w3.org/1999/xlink" width="720" zoomAndPan="magnify" viewBox="0 0 540 1199.999942" height="1600" preserveAspectRatio="xMidYMid meet" version="1.0"><defs><filter x="0%" y="0%" width="100%" height="100%" id="2936c3e597"><feColorMatrix values="0 0 0 0 1 0 0 0 0 1 0 0 0 0 1 0 0 0 1 0" color-interpolation-filters="sRGB"/></filter><mask id="2e097ae0b6"><g filter="url(#2936c3e597)"><rect x="-54" width="648" fill="#000000" y="-119.999994" height="1439.999931" fill-opacity="0.498"/></g></mask><clipPath id="4bae05cb3a"><path d="M 3 0.152344 L 481 0.152344 L 481 440.402344 L 3 440.402344 Z M 3 0.152344 " clip-rule="nonzero"/></clipPath><clipPath id="6cdc509dd5"><rect x="0" width="484" y="0" height="442"/></clipPath><clipPath id="e11180e583"><path d="M 0 0 L 240 0 L 240 281.25 L 0 281.25 Z M 0 0 " clip-rule="nonzero"/></clipPath></defs><rect x="-54" width="648" fill="#ffffff" y="-119.999994" height="1439.999931" fill-opacity="1"/><rect x="-54" width="648" fill="#ffffff" y="-119.999994" height="1439.999931" fill-opacity="1"/><rect x="-54" width="648" fill="#ffffff" y="-119.999994" height="1439.999931" fill-opacity="1"/><g mask="url(#2e097ae0b6)"><g transform="matrix(1, 0, 0, 1, 28, 359)"><g clip-path="url(#6cdc509dd5)"><path fill="#d6b85a" d="M 474.964844 93.398438 C 474.320312 92.714844 473.523438 92.109375 472.539062 91.617188 C 472.5 91.617188 472.460938 91.578125 472.425781 91.578125 C 469.921875 90.363281 467.117188 90.707031 464.878906 92.070312 C 465.296875 91.351562 469.316406 84.296875 465.75 76.980469 C 463.25 71.820312 458.511719 69.8125 457.296875 69.320312 C 459.683594 65.792969 462.035156 62.304688 464.425781 58.777344 C 467.570312 54.113281 466.890625 47.515625 462.339844 44.140625 C 462.300781 44.140625 462.261719 44.101562 462.261719 44.066406 C 456.992188 40.273438 451.042969 42.699219 450.738281 42.8125 C 451.117188 41.941406 451.382812 41.03125 451.496094 40.046875 C 451.835938 36.859375 451.761719 30.527344 446.984375 25.371094 C 446.945312 25.332031 446.871094 25.257812 446.832031 25.21875 C 441.789062 19.910156 432.804688 22.222656 430.417969 29.125 L 416.425781 69.8125 C 415.859375 59.878906 415.328125 49.90625 414.796875 39.96875 C 414.757812 38.757812 414.378906 37.617188 413.699219 36.59375 C 412.636719 35.003906 410.625 32.800781 407.328125 32.042969 C 407.289062 32.042969 407.253906 32.007812 407.214844 32.007812 C 403.121094 31.132812 399.328125 34.472656 399.253906 38.640625 L 398.417969 89.039062 L 398.417969 89.113281 C 388.828125 90.289062 380.03125 96.320312 375.445312 105.417969 C 372.828125 110.652344 370.210938 115.847656 367.59375 121.082031 C 362.78125 117.363281 356.03125 113.191406 351.105469 103.976562 C 344.925781 92.335938 347.957031 85.207031 341.585938 80.695312 C 334.953125 76.03125 324.753906 78.875 317.058594 82.097656 C 313.417969 79.101562 308.945312 76.335938 304.207031 75.539062 L 304.207031 75.460938 C 302.460938 68.257812 297.003906 62.457031 289.949219 60.371094 C 282.367188 58.132812 274.066406 60.484375 268.679688 66.398438 C 268.53125 63.0625 267.734375 53.128906 261.78125 48.617188 C 255.867188 44.179688 245.859375 44.332031 236.152344 49.714844 C 227.851562 54.378906 218.066406 55.78125 208.628906 54.53125 C 200.363281 53.394531 192.023438 55.515625 185.730469 60.710938 C 173.519531 70.796875 175.453125 87.140625 175.605469 88.164062 C 173.140625 86.003906 170.410156 83.996094 165.519531 83.3125 C 161.046875 82.707031 155.4375 83.273438 151.152344 85.320312 C 156.878906 67.308594 163.058594 50.511719 169.3125 35.34375 C 164.496094 36.101562 154.601562 38.414062 144.972656 46.074219 C 134.394531 54.53125 129.882812 64.996094 127.988281 70.722656 C 128.519531 52.75 129.085938 34.773438 129.65625 16.800781 C 125.597656 18.773438 116.878906 23.664062 110.394531 33.75 C 101.523438 47.589844 102.890625 61.699219 103.421875 65.792969 C 90.71875 37.847656 75.101562 17.445312 63.421875 4.324219 C 64.257812 22.109375 66.988281 45.695312 74.757812 72.351562 C 69.828125 71.0625 64.03125 69.925781 57.507812 69.28125 C 47.613281 68.332031 38.929688 68.828125 32.03125 69.699219 C 37.375 74.136719 43.746094 78.800781 51.140625 83.3125 C 63.082031 90.515625 74.339844 95.257812 83.742188 98.367188 C 76.691406 96.320312 68.617188 94.421875 59.59375 93.09375 C 46.742188 91.199219 35.214844 90.933594 25.625 91.390625 C 35.59375 100.601562 46.929688 110.234375 59.746094 119.941406 C 43.101562 126.617188 31.5 141.632812 31.5 159.074219 C 31.5 159.191406 31.5 159.304688 31.5 159.457031 C 26.34375 166.320312 23.3125 174.585938 23.3125 183.496094 C 23.3125 188.007812 24.105469 192.332031 25.546875 196.425781 L 7.351562 196.425781 C 14.289062 225.472656 15.765625 249.289062 15.84375 265.628906 C 15.992188 313.144531 4.46875 335.707031 7.351562 383.675781 C 8.714844 406.390625 12.734375 424.78125 15.84375 436.613281 C 87.761719 436.613281 159.722656 436.613281 231.679688 436.613281 C 303.636719 436.613281 375.59375 436.613281 447.515625 436.613281 C 450.625 424.78125 454.644531 406.390625 456.007812 383.675781 C 458.890625 335.707031 447.363281 313.144531 447.515625 265.628906 C 447.589844 249.289062 449.070312 225.472656 456.007812 196.425781 L 432.121094 196.425781 C 435.988281 194.039062 440.917969 190.472656 445.769531 185.355469 C 447.820312 183.191406 449.601562 181.03125 451.117188 178.945312 C 458.394531 169.050781 459.230469 155.4375 452.027344 145.5 C 451.648438 144.96875 451.269531 144.4375 450.8125 143.945312 C 459.117188 130.332031 467.417969 116.71875 475.722656 103.144531 C 477.617188 100.074219 477.503906 95.976562 474.964844 93.398438 Z M 474.964844 93.398438 " fill-opacity="1" fill-rule="nonzero"/><path fill="#349370" d="M 430.570312 108.945312 C 436.140625 100.679688 441.714844 92.449219 447.289062 84.183594 C 447.097656 85.964844 441.375 135.984375 441.183594 136.398438 C 435.117188 133.441406 429.621094 133.214844 428.332031 133.175781 C 432.578125 125.554688 433.222656 116.679688 430.53125 108.945312 Z M 430.570312 108.945312 " fill-opacity="1" fill-rule="nonzero"/><path fill="#3fa07f" d="M 304.207031 75.460938 L 304.207031 75.539062 C 302.308594 75.160156 300.375 75.121094 298.40625 75.539062 C 293.402344 76.5625 292.226562 79.710938 286.765625 83.464844 C 283.355469 75.273438 276.679688 69.09375 268.679688 66.398438 C 274.066406 60.484375 282.367188 58.132812 289.949219 60.371094 C 297.003906 62.457031 302.460938 68.257812 304.207031 75.460938 Z M 304.207031 75.460938 " fill-opacity="1" fill-rule="nonzero"/><path fill="#4aaf8f" d="M 286.765625 83.464844 C 286.046875 83.996094 285.25 84.488281 284.339844 85.019531 C 275.847656 89.910156 267.242188 90.707031 261.476562 90.628906 L 261.441406 90.628906 C 252.570312 84.296875 252.644531 77.738281 242.710938 75.539062 C 240.855469 75.121094 239.035156 74.933594 237.253906 74.96875 C 238.3125 73.792969 247.5625 63.820312 261.78125 64.957031 C 264.171875 65.148438 266.484375 65.640625 268.679688 66.398438 C 276.679688 69.09375 283.355469 75.273438 286.765625 83.464844 Z M 286.765625 83.464844 " fill-opacity="1" fill-rule="nonzero"/><path fill="#53b79a" d="M 300.90625 102.308594 C 292.378906 98.785156 283.011719 100.566406 270.046875 95.257812 C 266.445312 93.777344 263.675781 92.222656 261.476562 90.628906 C 267.242188 90.707031 275.847656 89.910156 284.339844 85.019531 C 285.25 84.488281 286.046875 83.996094 286.765625 83.464844 C 292.226562 79.710938 293.402344 76.5625 298.40625 75.539062 C 300.375 75.121094 302.308594 75.160156 304.207031 75.539062 C 308.945312 76.335938 313.417969 79.101562 317.058594 82.097656 C 321.078125 85.359375 324.070312 88.847656 325.324219 90.328125 C 330.480469 96.355469 336.394531 103.257812 334.6875 110.082031 C 332.867188 117.175781 323.957031 119.527344 317.058594 122.371094 C 315.730469 117.628906 313.113281 111.371094 307.578125 106.519531 C 305.382812 104.585938 303.183594 103.257812 300.90625 102.308594 Z M 300.90625 102.308594 " fill-opacity="1" fill-rule="nonzero"/><path fill="#89a25b" d="M 197.480469 93.738281 C 193.007812 95.410156 188.535156 95.824219 183.945312 94.042969 C 180.230469 92.601562 177.996094 90.328125 175.605469 88.164062 C 175.453125 87.140625 173.519531 70.796875 185.730469 60.710938 C 192.023438 55.515625 200.363281 53.394531 208.628906 54.53125 C 218.066406 55.78125 227.851562 54.378906 236.152344 49.714844 C 245.859375 44.332031 255.867188 44.179688 261.78125 48.617188 C 267.734375 53.128906 268.53125 63.0625 268.679688 66.398438 C 266.484375 65.640625 264.171875 65.148438 261.78125 64.957031 C 247.5625 63.820312 238.3125 73.792969 237.253906 74.96875 C 222.464844 75.195312 210.03125 89.152344 197.480469 93.738281 Z M 197.480469 93.738281 " fill-opacity="1" fill-rule="nonzero"/><path fill="#89a25b" d="M 358.953125 166.320312 C 356.109375 173.183594 347.578125 180.84375 322.402344 184.21875 C 327.789062 178.339844 333.929688 169.617188 332.449219 160.363281 C 329.949219 144.550781 307.164062 139.015625 308.71875 129.574219 C 309.285156 126.125 312.773438 124.152344 317.058594 122.371094 C 323.957031 119.527344 332.867188 117.175781 334.6875 110.082031 C 336.394531 103.257812 330.480469 96.355469 325.324219 90.328125 C 324.070312 88.847656 321.078125 85.359375 317.058594 82.097656 C 324.753906 78.875 334.953125 76.03125 341.585938 80.695312 C 347.957031 85.207031 344.925781 92.335938 351.105469 103.976562 C 356.03125 113.191406 362.78125 117.363281 367.59375 121.082031 C 371.199219 123.847656 373.738281 126.351562 373.660156 130.484375 C 373.625 134.046875 371.691406 135.527344 369.074219 138.789062 C 367.40625 140.875 365.472656 143.679688 363.539062 148.269531 C 359.746094 157.292969 361.074219 161.238281 358.953125 166.320312 Z M 358.953125 166.320312 " fill-opacity="1" fill-rule="nonzero"/><path fill="#a7d676" d="M 207.945312 196.425781 L 191.492188 196.425781 C 192.136719 193.582031 192.515625 190.585938 192.515625 187.554688 C 192.515625 172.992188 184.402344 160.136719 172.042969 152.402344 L 172.042969 152.363281 C 167.949219 143.035156 162.753906 132.039062 156.269531 119.867188 C 151.757812 111.371094 148.308594 105.457031 146.375 100.945312 C 144.441406 96.46875 143.988281 93.359375 145.503906 90.441406 C 146.640625 88.203125 148.6875 86.535156 151.152344 85.320312 C 155.4375 83.273438 161.046875 82.707031 165.519531 83.3125 C 170.414062 83.996094 173.140625 86.003906 175.605469 88.164062 C 177.996094 90.328125 180.230469 92.601562 183.945312 94.042969 C 188.535156 95.824219 193.007812 95.410156 197.480469 93.738281 C 210.03125 89.152344 222.464844 75.195312 237.253906 74.96875 C 239.035156 74.933594 240.855469 75.121094 242.710938 75.539062 C 252.644531 77.738281 252.570312 84.296875 261.441406 90.628906 L 261.476562 90.628906 C 263.675781 92.222656 266.445312 93.777344 270.046875 95.257812 C 283.011719 100.566406 292.378906 98.785156 300.90625 102.308594 C 303.183594 103.257812 305.382812 104.585938 307.578125 106.519531 C 313.113281 111.371094 315.730469 117.628906 317.058594 122.371094 C 312.773438 124.152344 309.285156 126.125 308.71875 129.574219 C 307.164062 139.015625 329.949219 144.550781 332.449219 160.363281 C 333.929688 169.617188 327.789062 178.339844 322.402344 184.21875 L 317.511719 184.21875 C 318.121094 188.351562 318.460938 192.40625 318.613281 196.425781 Z M 207.945312 196.425781 " fill-opacity="1" fill-rule="nonzero"/><path fill="#d14b62" d="M 156.269531 119.867188 C 162.753906 132.039062 167.949219 143.035156 172.042969 152.363281 C 164.308594 147.511719 154.867188 144.667969 144.707031 144.667969 C 141.445312 144.667969 138.300781 144.96875 135.230469 145.539062 C 138.1875 131.46875 141.863281 116.566406 146.375 100.945312 C 148.308594 105.457031 151.757812 111.371094 156.269531 119.867188 Z M 156.269531 119.867188 " fill-opacity="1" fill-rule="nonzero"/><path fill="#894687" d="M 113.769531 154.867188 C 112.367188 155.964844 111.039062 157.066406 109.789062 158.28125 C 101.109375 147.585938 87.042969 140.609375 71.117188 140.609375 C 54.628906 140.609375 40.105469 148.078125 31.5 159.457031 C 31.5 159.304688 31.5 159.191406 31.5 159.074219 C 31.5 141.632812 43.101562 126.617188 59.746094 119.941406 C 60.882812 120.777344 62.019531 121.648438 63.15625 122.484375 C 81.015625 135.679688 98.1875 146.296875 113.769531 154.867188 Z M 113.769531 154.867188 " fill-opacity="1" fill-rule="nonzero"/><path fill="#894687" d="M 192.515625 187.554688 C 192.515625 190.585938 192.136719 193.582031 191.492188 196.425781 L 144.746094 196.425781 C 144.898438 192.40625 145.238281 188.351562 145.84375 184.21875 L 118.925781 184.21875 C 118.925781 183.988281 118.925781 183.722656 118.925781 183.496094 C 118.925781 174.054688 115.550781 165.371094 109.789062 158.28125 C 111.039062 157.066406 112.367188 155.964844 113.769531 154.867188 C 117.03125 152.402344 120.671875 150.277344 124.652344 148.648438 C 124.953125 148.496094 125.257812 148.382812 125.597656 148.269531 C 128.632812 147.054688 131.855469 146.144531 135.230469 145.539062 C 138.300781 144.96875 141.445312 144.667969 144.707031 144.667969 C 154.867188 144.667969 164.308594 147.511719 172.042969 152.363281 L 172.042969 152.402344 C 184.402344 160.136719 192.515625 172.992188 192.515625 187.554688 Z M 192.515625 187.554688 " fill-opacity="1" fill-rule="nonzero"/><path fill="#e15c63" d="M 31.5 159.457031 C 40.105469 148.078125 54.628906 140.609375 71.117188 140.609375 C 87.042969 140.609375 101.109375 147.585938 109.789062 158.28125 C 115.550781 165.371094 118.925781 174.054688 118.925781 183.496094 C 118.925781 183.722656 118.925781 183.988281 118.925781 184.21875 L 109.070312 184.21875 C 108.464844 188.3125 108.046875 192.40625 107.820312 196.425781 L 25.546875 196.425781 C 24.105469 192.332031 23.3125 188.007812 23.3125 183.496094 C 23.3125 174.585938 26.34375 166.320312 31.5 159.457031 Z M 31.5 159.457031 " fill-opacity="1" fill-rule="nonzero"/><path fill="#4aaf8f" d="M 79.761719 87.824219 C 81.050781 91.425781 82.378906 94.953125 83.742188 98.367188 C 74.339844 95.257812 63.082031 90.515625 51.140625 83.3125 C 43.746094 78.800781 37.375 74.136719 32.03125 69.699219 C 38.929688 68.828125 47.613281 68.332031 57.507812 69.28125 C 64.03125 69.925781 69.828125 71.0625 74.757812 72.351562 C 76.238281 77.398438 77.90625 82.554688 79.761719 87.824219 Z M 79.761719 87.824219 " fill-opacity="1" fill-rule="nonzero"/><path fill="#4aaf8f" d="M 144.972656 46.074219 C 154.601562 38.414062 164.496094 36.101562 169.3125 35.34375 C 163.058594 50.511719 156.878906 67.308594 151.152344 85.320312 C 148.6875 86.535156 146.640625 88.203125 145.503906 90.441406 C 143.988281 93.359375 144.441406 96.46875 146.375 100.945312 C 141.863281 116.566406 138.1875 131.46875 135.230469 145.539062 C 131.855469 146.144531 128.632812 147.054688 125.597656 148.269531 L 125.597656 148.230469 C 126.394531 122.40625 127.191406 96.546875 127.988281 70.722656 C 129.882812 64.996094 134.394531 54.53125 144.972656 46.074219 Z M 144.972656 46.074219 " fill-opacity="1" fill-rule="nonzero"/><path fill="#53b79a" d="M 129.65625 16.800781 C 129.085938 34.773438 128.519531 52.75 127.988281 70.722656 C 127.191406 96.546875 126.394531 122.40625 125.597656 148.230469 L 125.597656 148.269531 C 125.257812 148.382812 124.953125 148.496094 124.652344 148.648438 C 123.25 130.066406 119.078125 102.917969 106.378906 72.582031 C 105.429688 70.265625 104.445312 68.03125 103.421875 65.832031 L 103.421875 65.792969 C 102.890625 61.699219 101.523438 47.589844 110.394531 33.75 C 116.878906 23.664062 125.597656 18.773438 129.65625 16.800781 Z M 129.65625 16.800781 " fill-opacity="1" fill-rule="nonzero"/><path fill="#53b79a" d="M 83.742188 98.367188 C 93.109375 121.914062 104.179688 140.796875 113.769531 154.867188 C 98.1875 146.296875 81.015625 135.679688 63.15625 122.484375 C 62.019531 121.648438 60.882812 120.777344 59.746094 119.941406 C 46.929688 110.234375 35.59375 100.601562 25.625 91.390625 C 35.214844 90.933594 46.742188 91.199219 59.59375 93.09375 C 68.617188 94.421875 76.691406 96.320312 83.742188 98.367188 Z M 83.742188 98.367188 " fill-opacity="1" fill-rule="nonzero"/><path fill="#6fceae" d="M 106.378906 72.582031 C 119.078125 102.917969 123.25 130.066406 124.652344 148.648438 C 120.671875 150.277344 117.03125 152.402344 113.769531 154.867188 C 104.179688 140.796875 93.109375 121.914062 83.742188 98.367188 C 82.378906 94.953125 81.050781 91.425781 79.761719 87.824219 C 77.90625 82.554688 76.238281 77.394531 74.757812 72.351562 C 66.988281 45.695312 64.257812 22.109375 63.421875 4.324219 C 75.101562 17.445312 90.71875 37.847656 103.421875 65.792969 L 103.421875 65.832031 C 104.445312 68.03125 105.429688 70.265625 106.378906 72.582031 Z M 106.378906 72.582031 " fill-opacity="1" fill-rule="nonzero"/><path fill="#4aaf8f" d="M 474.964844 93.398438 C 477.503906 95.976562 477.617188 100.074219 475.722656 103.144531 C 467.417969 116.71875 459.117188 130.332031 450.8125 143.945312 C 450.664062 143.757812 450.511719 143.605469 450.359375 143.414062 C 447.515625 140.117188 444.253906 137.917969 441.183594 136.398438 L 461.695312 95.558594 C 462.414062 94.121094 463.550781 92.90625 464.878906 92.109375 C 464.878906 92.109375 464.878906 92.109375 464.878906 92.070312 C 467.117188 90.707031 469.921875 90.363281 472.425781 91.578125 C 472.460938 91.578125 472.5 91.617188 472.539062 91.617188 C 473.523438 92.109375 474.320312 92.714844 474.964844 93.398438 Z M 474.964844 93.398438 " fill-opacity="1" fill-rule="nonzero"/><path fill="#3fa07f" d="M 465.75 76.980469 C 469.316406 84.296875 465.296875 91.351562 464.878906 92.070312 C 464.878906 92.109375 464.878906 92.109375 464.878906 92.109375 C 463.550781 92.90625 462.414062 94.121094 461.695312 95.558594 L 441.183594 136.398438 C 441.375 135.984375 447.097656 85.964844 447.289062 84.183594 C 447.289062 84.144531 447.289062 84.144531 447.289062 84.144531 C 450.625 79.214844 453.960938 74.25 457.296875 69.320312 C 458.511719 69.8125 463.25 71.820312 465.75 76.980469 Z M 465.75 76.980469 " fill-opacity="1" fill-rule="nonzero"/><path fill="#53b79a" d="M 462.339844 44.140625 C 466.890625 47.515625 467.570312 54.113281 464.425781 58.777344 C 462.035156 62.304688 459.683594 65.792969 457.296875 69.320312 C 453.960938 74.25 450.625 79.214844 447.289062 84.144531 C 447.289062 84.144531 447.289062 84.144531 447.289062 84.183594 C 441.714844 92.449219 436.140625 100.679688 430.570312 108.945312 L 430.53125 108.945312 C 429.203125 104.925781 426.96875 101.210938 423.894531 98.136719 C 432.765625 79.859375 441.675781 61.546875 450.546875 43.269531 C 450.625 43.117188 450.699219 42.964844 450.738281 42.8125 C 451.042969 42.699219 456.992188 40.273438 462.261719 44.066406 C 462.261719 44.101562 462.300781 44.140625 462.339844 44.140625 Z M 462.339844 44.140625 " fill-opacity="1" fill-rule="nonzero"/><path fill="#dd864a" d="M 411.914062 162.035156 C 413.167969 159.949219 414.378906 157.863281 415.59375 155.738281 C 419.992188 148.117188 424.238281 140.609375 428.332031 133.175781 C 429.621094 133.214844 435.117188 133.441406 441.183594 136.398438 C 444.253906 137.917969 447.515625 140.117188 450.359375 143.414062 C 450.511719 143.605469 450.664062 143.757812 450.8125 143.945312 C 451.269531 144.4375 451.648438 144.96875 452.027344 145.5 C 459.230469 155.4375 458.394531 169.050781 451.117188 178.945312 C 449.601562 181.03125 447.820312 183.191406 445.769531 185.355469 C 440.917969 190.472656 435.988281 194.039062 432.121094 196.425781 L 391.0625 196.425781 C 398.039062 185.355469 404.976562 173.902344 411.914062 162.035156 Z M 411.914062 162.035156 " fill-opacity="1" fill-rule="nonzero"/><path fill="#6fceae" d="M 416.425781 69.8125 L 430.417969 29.125 C 432.804688 22.222656 441.789062 19.910156 446.832031 25.21875 C 446.871094 25.257812 446.945312 25.332031 446.984375 25.371094 C 451.761719 30.527344 451.835938 36.859375 451.496094 40.046875 C 451.382812 41.03125 451.117188 41.941406 450.738281 42.8125 C 450.699219 42.964844 450.625 43.117188 450.546875 43.269531 C 441.675781 61.546875 432.765625 79.859375 423.894531 98.140625 C 422.757812 96.964844 421.46875 95.902344 420.066406 94.914062 C 419.914062 94.839844 419.800781 94.765625 419.6875 94.648438 C 417.109375 92.90625 414.492188 91.617188 411.914062 90.628906 C 411.121094 90.328125 410.324219 90.0625 409.527344 89.871094 Z M 416.425781 69.8125 " fill-opacity="1" fill-rule="nonzero"/><path fill="#f69552" d="M 369.074219 138.789062 C 371.691406 135.527344 373.625 134.046875 373.660156 130.484375 C 373.738281 126.351562 371.199219 123.847656 367.59375 121.082031 C 370.210938 115.847656 372.828125 110.652344 375.445312 105.417969 C 380.03125 96.320312 388.828125 90.289062 398.417969 89.113281 C 402.097656 88.582031 405.847656 88.808594 409.527344 89.871094 C 410.324219 90.0625 411.121094 90.328125 411.914062 90.628906 C 414.492188 91.617188 417.109375 92.90625 419.6875 94.648438 C 419.800781 94.765625 419.914062 94.839844 420.066406 94.914062 C 421.46875 95.902344 422.757812 96.964844 423.894531 98.140625 C 426.964844 101.210938 429.203125 104.925781 430.53125 108.945312 C 433.222656 116.679688 432.578125 125.554688 428.332031 133.175781 C 424.238281 140.609375 419.992188 148.117188 415.59375 155.738281 C 414.378906 157.863281 413.167969 159.949219 411.914062 162.035156 C 404.976562 173.902344 398.039062 185.355469 391.0625 196.425781 L 355.539062 196.425781 C 355.3125 192.40625 354.894531 188.3125 354.289062 184.21875 L 322.402344 184.21875 C 347.578125 180.84375 356.109375 173.183594 358.953125 166.320312 C 361.074219 161.238281 359.746094 157.292969 363.539062 148.269531 C 365.472656 143.679688 367.40625 140.875 369.074219 138.789062 Z M 369.074219 138.789062 " fill-opacity="1" fill-rule="nonzero"/><path fill="#53b79a" d="M 414.796875 39.96875 C 415.328125 49.90625 415.859375 59.878906 416.425781 69.8125 L 409.527344 89.871094 C 405.847656 88.808594 402.097656 88.582031 398.417969 89.113281 L 398.417969 89.039062 L 399.253906 38.640625 C 399.328125 34.472656 403.121094 31.132812 407.214844 32.007812 C 407.253906 32.007812 407.289062 32.042969 407.328125 32.042969 C 410.625 32.800781 412.636719 35.003906 413.699219 36.59375 C 414.378906 37.617188 414.757812 38.757812 414.796875 39.96875 Z M 414.796875 39.96875 " fill-opacity="1" fill-rule="nonzero"/><path fill="#7f5d46" d="M 355.539062 196.425781 C 360.125 275.148438 297.382812 338.929688 231.679688 338.929688 C 165.976562 338.929688 103.230469 275.148438 107.820312 196.425781 C 108.046875 192.40625 108.464844 188.3125 109.070312 184.21875 L 145.84375 184.21875 C 145.238281 188.351562 144.898438 192.40625 144.746094 196.425781 C 142.207031 259.335938 189.746094 306.355469 231.679688 306.355469 C 273.609375 306.355469 321.152344 259.335938 318.613281 196.425781 C 318.460938 192.40625 318.121094 188.351562 317.511719 184.21875 L 354.289062 184.21875 C 354.894531 188.3125 355.3125 192.40625 355.539062 196.425781 Z M 355.539062 196.425781 " fill-opacity="1" fill-rule="nonzero"/><path fill="#c4a653" d="M 268.679688 294.941406 C 256.816406 302.300781 244 306.355469 231.679688 306.355469 C 189.746094 306.355469 142.207031 259.335938 144.746094 196.425781 L 164.382812 196.425781 C 164.382812 196.425781 161.882812 289.40625 268.679688 294.941406 Z M 268.679688 294.941406 " fill-opacity="1" fill-rule="nonzero"/><path fill="#c4a653" d="M 379.425781 196.425781 C 379.425781 196.425781 381.015625 338.476562 238.882812 338.664062 C 301.894531 334.265625 359.976562 272.265625 355.539062 196.425781 Z M 379.425781 196.425781 " fill-opacity="1" fill-rule="nonzero"/><path fill="#c4a653" d="M 447.515625 265.628906 C 447.363281 313.144531 458.890625 335.707031 456.007812 383.675781 C 454.644531 406.390625 450.625 424.78125 447.515625 436.613281 C 375.59375 436.613281 303.636719 436.613281 231.679688 436.613281 C 159.722656 436.613281 87.761719 436.613281 15.84375 436.613281 C 12.734375 424.78125 8.714844 406.390625 7.351562 383.675781 C 6.515625 369.796875 6.894531 358.078125 7.84375 347.234375 C 8.375 348.828125 25.511719 398.273438 219.433594 402.371094 C 419.535156 406.578125 407.402344 338.929688 407.402344 338.929688 C 407.402344 338.929688 400.808594 287.167969 419.535156 247.125 C 438.300781 207.042969 432.121094 196.425781 432.121094 196.425781 L 456.007812 196.425781 C 449.070312 225.472656 447.589844 249.289062 447.515625 265.628906 Z M 447.515625 265.628906 " fill-opacity="1" fill-rule="nonzero"/><g clip-path="url(#4bae05cb3a)"><path fill="#3a322b" d="M 477.660156 90.726562 C 476.671875 89.714844 475.523438 88.886719 474.070312 88.152344 C 472.960938 87.617188 471.796875 87.339844 470.628906 87.1875 C 471.265625 83.847656 471.269531 79.644531 469.171875 75.335938 C 467.480469 71.855469 464.996094 69.535156 462.769531 68.003906 L 467.554688 60.914062 C 471.921875 54.441406 470.597656 45.554688 464.460938 41.007812 C 461.339844 38.742188 458.085938 38.167969 455.371094 38.199219 C 455.453125 34.050781 454.582031 28.003906 449.828125 22.875 C 449.792969 22.832031 449.605469 22.632812 449.566406 22.589844 C 446.363281 19.21875 441.691406 17.8125 437.066406 18.824219 C 432.246094 19.871094 428.417969 23.261719 426.832031 27.882812 L 419.140625 50.238281 L 418.582031 39.761719 C 418.476562 37.851562 417.882812 36.03125 416.855469 34.492188 C 415.355469 32.257812 412.632812 29.375 408.011719 28.308594 C 405.058594 27.65625 401.980469 28.390625 399.558594 30.304688 C 397.007812 32.324219 395.515625 35.34375 395.460938 38.585938 L 394.6875 85.839844 C 385.238281 87.988281 376.789062 94.296875 372.0625 103.714844 L 366.234375 115.324219 C 362.1875 112.265625 357.855469 108.574219 354.453125 102.191406 C 351.890625 97.371094 351.070312 93.425781 350.34375 89.949219 C 349.382812 85.308594 348.46875 80.933594 343.773438 77.617188 C 337.761719 73.367188 328.980469 73.421875 317.652344 77.761719 C 313.789062 74.882812 310.292969 73.230469 307.167969 72.332031 C 304.59375 64.863281 298.597656 58.988281 291.007812 56.753906 C 284.460938 54.824219 277.414062 55.828125 271.613281 59.234375 C 270.605469 54.34375 268.488281 48.945312 264.042969 45.601562 C 256.722656 40.105469 245.054688 40.433594 234.308594 46.425781 C 227.121094 50.441406 218.179688 51.984375 209.144531 50.761719 C 199.679688 49.488281 190.265625 52.046875 183.304688 57.792969 C 174.78125 64.828125 172.363281 74.515625 171.789062 81.164062 C 170.160156 80.457031 168.292969 79.882812 166.019531 79.574219 C 163.128906 79.171875 160.027344 79.234375 157.007812 79.703125 C 161.878906 64.921875 167.171875 50.5 172.832031 36.792969 C 173.355469 35.523438 173.148438 34.066406 172.296875 32.988281 C 171.441406 31.910156 170.066406 31.371094 168.71875 31.601562 C 162.027344 32.691406 152.066406 35.574219 142.613281 43.125 C 138.335938 46.542969 134.980469 50.28125 132.300781 54.003906 L 133.453125 16.929688 C 133.496094 15.601562 132.839844 14.351562 131.726562 13.628906 C 130.617188 12.90625 129.203125 12.824219 128.011719 13.394531 C 122.039062 16.289062 113.589844 21.816406 107.21875 31.722656 C 103.085938 38.148438 101.003906 44.605469 100.011719 50.402344 C 90.746094 32.964844 79.464844 16.679688 66.246094 1.816406 C 65.179688 0.617188 63.476562 0.21875 61.980469 0.824219 C 60.492188 1.429688 59.546875 2.910156 59.625 4.515625 C 60.625 25.769531 63.898438 46.785156 69.398438 67.242188 C 65.582031 66.476562 61.722656 65.898438 57.867188 65.523438 C 49.121094 64.667969 40.265625 64.816406 31.527344 65.972656 C 30.027344 66.167969 28.792969 67.230469 28.375 68.683594 C 27.960938 70.132812 28.441406 71.691406 29.605469 72.652344 C 35.753906 77.742188 42.34375 82.421875 49.1875 86.574219 C 50.199219 87.183594 51.21875 87.785156 52.242188 88.382812 C 43.359375 87.46875 34.382812 87.199219 25.464844 87.597656 C 23.9375 87.664062 22.597656 88.644531 22.070312 90.082031 C 21.542969 91.515625 21.929688 93.128906 23.058594 94.167969 C 32.492188 102.90625 42.394531 111.277344 52.566406 119.179688 C 37.515625 127.4375 28.015625 142.199219 27.738281 158.347656 C 22.570312 165.613281 19.535156 174.234375 19.535156 183.496094 C 19.535156 186.585938 19.90625 189.648438 20.566406 192.648438 L 7.359375 192.648438 C 6.199219 192.648438 5.101562 193.183594 4.382812 194.09375 C 3.664062 195.003906 3.398438 196.195312 3.667969 197.324219 C 9.132812 220.195312 11.949219 243.191406 12.03125 265.664062 C 12.113281 287.164062 9.742188 303.636719 7.453125 319.5625 C 4.644531 339.097656 1.984375 357.546875 3.578125 383.933594 C 4.660156 401.960938 7.550781 420.015625 12.160156 437.585938 C 12.59375 439.238281 14.097656 440.402344 15.824219 440.402344 L 447.53125 440.402344 C 449.253906 440.402344 450.761719 439.238281 451.195312 437.574219 C 455.808594 420 458.695312 401.945312 459.78125 383.921875 C 461.367188 357.539062 458.714844 339.089844 455.90625 319.554688 C 453.617188 303.625 451.242188 287.152344 451.324219 265.652344 C 451.414062 243.171875 454.226562 220.179688 459.6875 197.3125 C 459.957031 196.183594 459.695312 194.996094 458.976562 194.082031 C 458.257812 193.171875 457.160156 192.640625 456 192.640625 L 443.589844 192.640625 C 445.300781 191.148438 446.964844 189.601562 448.527344 187.953125 C 450.546875 185.816406 452.449219 183.542969 454.171875 181.199219 C 462.617188 169.722656 463.050781 154.75 455.378906 143.734375 L 478.96875 105.113281 C 481.851562 100.375 481.320312 94.460938 477.660156 90.726562 Z M 462.355469 78.65625 C 464.628906 83.332031 462.71875 88 461.941406 89.570312 C 460.472656 90.679688 459.203125 92.097656 458.316406 93.855469 L 447.542969 115.289062 C 448.382812 108.015625 449.496094 98.347656 450.957031 85.511719 L 458.527344 74.289062 C 459.882812 75.226562 461.351562 76.589844 462.355469 78.65625 Z M 433.90625 130.015625 C 436.363281 123.246094 436.5625 116.097656 434.738281 109.546875 L 441.761719 99.140625 C 440.324219 111.625 438.835938 124.429688 438.039062 131.078125 C 436.566406 130.609375 435.167969 130.257812 433.90625 130.015625 Z M 460.089844 47.203125 C 462.875 49.265625 463.410156 53.519531 461.277344 56.671875 L 431.15625 101.300781 C 430.339844 99.972656 429.429688 98.699219 428.414062 97.492188 L 453.449219 45.960938 C 454.964844 45.632812 457.632812 45.425781 460.089844 47.203125 Z M 434.011719 30.347656 C 434.730469 28.253906 436.480469 26.714844 438.6875 26.234375 C 440.746094 25.773438 442.699219 26.367188 444.203125 27.949219 C 447.921875 31.964844 447.996094 36.984375 447.710938 39.625 C 447.640625 40.300781 447.445312 40.96875 447.132812 41.613281 L 422.605469 92.101562 C 422.472656 92.007812 422.351562 91.898438 422.21875 91.804688 L 421.808594 91.523438 C 419.457031 89.933594 416.933594 88.636719 414.335938 87.570312 L 419.976562 71.164062 C 419.976562 71.164062 419.976562 71.160156 419.976562 71.15625 Z M 404.273438 36.253906 C 404.640625 35.960938 405.402344 35.484375 406.480469 35.738281 C 408.527344 36.207031 409.832031 37.617188 410.566406 38.710938 C 410.839844 39.117188 410.992188 39.605469 411.019531 40.167969 L 412.585938 69.335938 L 407.046875 85.433594 C 405.460938 85.175781 403.875 85.058594 402.289062 85.042969 L 403.046875 38.710938 C 403.0625 37.761719 403.523438 36.84375 404.273438 36.253906 Z M 410.578125 94.179688 C 413.019531 95.097656 415.367188 96.316406 417.535156 97.785156 L 417.886719 98.027344 C 428.410156 105.34375 431.476562 119.664062 425.023438 131.34375 C 420.917969 138.757812 416.683594 146.253906 412.304688 153.820312 C 404.757812 166.871094 396.898438 179.910156 388.945312 192.636719 L 359.027344 192.636719 C 358.78125 189.648438 358.46875 186.660156 358.035156 183.671875 C 357.761719 181.808594 356.164062 180.429688 354.28125 180.429688 L 349.921875 180.429688 C 356.132812 177.125 360.292969 172.9375 362.433594 167.792969 C 363.527344 165.164062 363.847656 162.886719 364.1875 160.476562 C 364.605469 157.511719 365.039062 154.449219 367.03125 149.734375 C 368.09375 147.21875 369.148438 145.3125 370.164062 143.757812 L 387.84375 153.777344 C 388.4375 154.113281 389.078125 154.269531 389.710938 154.269531 C 391.03125 154.269531 392.316406 153.578125 393.011719 152.347656 C 394.042969 150.527344 393.40625 148.210938 391.582031 147.179688 L 374.867188 137.703125 C 376.292969 135.816406 377.40625 133.710938 377.464844 130.539062 C 377.542969 125.867188 375.324219 122.769531 372.328125 120.082031 L 378.835938 107.117188 C 384.738281 95.378906 398.671875 89.707031 410.578125 94.179688 Z M 112.386719 188.011719 L 141.5625 188.011719 C 141.273438 190.734375 141.109375 193.453125 141 196.164062 C 140.992188 196.257812 140.945312 196.335938 140.945312 196.429688 C 140.945312 196.5 140.980469 196.554688 140.984375 196.625 C 139.90625 226.675781 149.820312 255.761719 169.121094 277.980469 C 186.605469 298.117188 209.988281 310.132812 231.675781 310.132812 C 253.359375 310.132812 276.746094 298.113281 294.230469 277.980469 C 313.527344 255.765625 323.441406 226.675781 322.367188 196.625 C 322.371094 196.554688 322.402344 196.5 322.402344 196.429688 C 322.402344 196.335938 322.359375 196.261719 322.351562 196.164062 C 322.246094 193.453125 322.078125 190.734375 321.789062 188.011719 L 350.96875 188.011719 C 355.542969 225.734375 344.050781 263.601562 319.179688 292.367188 C 295.695312 319.539062 263.796875 335.117188 231.671875 335.117188 C 199.546875 335.117188 167.652344 319.539062 144.164062 292.367188 C 119.300781 263.601562 107.8125 225.738281 112.386719 188.011719 Z M 144.699219 148.472656 C 168.96875 148.472656 188.710938 166.007812 188.710938 187.558594 C 188.710938 189.265625 188.546875 190.957031 188.300781 192.644531 L 148.792969 192.644531 C 148.984375 190.019531 149.234375 187.386719 149.605469 184.753906 C 149.761719 183.671875 149.433594 182.566406 148.714844 181.742188 C 147.996094 180.910156 146.953125 180.433594 145.851562 180.433594 L 122.558594 180.433594 C 121.988281 172.550781 119.265625 165.210938 114.886719 158.871094 C 122.980469 152.246094 133.648438 148.472656 144.699219 148.472656 Z M 148.953125 114.265625 C 150.164062 116.488281 151.496094 118.933594 152.9375 121.644531 C 156.886719 129.074219 160.589844 136.695312 164.15625 144.359375 C 158.148438 142.136719 151.585938 140.886719 144.699219 140.886719 C 143.144531 140.886719 141.609375 140.972656 140.078125 141.09375 C 142.277344 131.15625 144.714844 121.214844 147.390625 111.382812 C 147.898438 112.328125 148.394531 113.246094 148.953125 114.265625 Z M 207.925781 200.222656 L 225.085938 200.222656 C 225.09375 200.222656 225.101562 200.226562 225.109375 200.226562 C 225.121094 200.226562 225.132812 200.222656 225.144531 200.222656 L 242.394531 200.222656 C 242.429688 200.222656 242.46875 200.226562 242.507812 200.226562 C 242.515625 200.226562 242.519531 200.222656 242.527344 200.222656 L 314.859375 200.222656 C 315.046875 227.171875 305.824219 253.066406 288.511719 273.007812 C 272.445312 291.507812 251.199219 302.550781 231.679688 302.550781 C 212.15625 302.550781 190.910156 291.507812 174.847656 273.007812 C 157.53125 253.066406 148.304688 227.171875 148.5 200.222656 Z M 339.402344 83.804688 C 341.570312 85.335938 342.050781 87.265625 342.929688 91.488281 C 343.71875 95.269531 344.695312 99.972656 347.765625 105.753906 C 352.441406 114.535156 358.769531 119.234375 363.390625 122.660156 C 368.144531 126.1875 369.933594 127.769531 369.890625 130.410156 C 369.863281 131.898438 369.34375 132.574219 367.550781 134.699219 C 366.09375 136.425781 364.25 138.632812 362.328125 142.09375 C 361.871094 140.246094 361.332031 138.371094 360.625 136.46875 C 358.949219 131.984375 356.644531 127.730469 353.785156 123.820312 C 352.546875 122.132812 350.179688 121.761719 348.488281 123.003906 C 346.800781 124.238281 346.433594 126.613281 347.667969 128.300781 C 350.117188 131.648438 352.089844 135.292969 353.523438 139.121094 C 357.3125 149.265625 356.621094 158.773438 355.316406 165.109375 C 352.546875 171.390625 344.523438 176 331.363281 178.839844 C 335.546875 172.21875 337.175781 165.828125 336.207031 159.761719 C 334.632812 149.875 326.664062 143.6875 320.261719 138.714844 C 316.246094 135.601562 312.097656 132.375 312.464844 130.1875 C 312.824219 128.042969 317.496094 126.234375 321.625 124.640625 C 328.183594 122.113281 336.34375 118.960938 338.355469 111.003906 C 340.566406 102.269531 333.71875 94.28125 328.214844 87.863281 C 326.855469 86.269531 325.519531 84.820312 324.214844 83.507812 C 331.007812 81.457031 336.195312 81.539062 339.402344 83.804688 Z M 322.453125 92.804688 C 327.042969 98.15625 332.25 104.230469 331.003906 109.152344 C 329.984375 113.1875 324.628906 115.355469 319.332031 117.402344 C 317.191406 111.871094 314.132812 107.234375 310.09375 103.683594 C 308.304688 102.109375 306.5 100.90625 304.6875 99.945312 L 304.6875 90.421875 C 304.6875 88.324219 302.988281 86.628906 300.894531 86.628906 C 298.804688 86.628906 297.105469 88.324219 297.105469 90.421875 L 297.105469 97.195312 C 294.488281 96.597656 291.835938 96.253906 289.121094 95.90625 C 284.628906 95.328125 279.96875 94.664062 274.703125 92.910156 C 278.816406 91.890625 282.664062 90.359375 286.230469 88.289062 C 289.957031 86.132812 292.195312 84.09375 293.992188 82.453125 C 296.003906 80.617188 297.015625 79.691406 299.195312 79.234375 C 302.875 78.460938 310.796875 79.203125 322.453125 92.804688 Z M 281.828125 82.015625 C 276.277344 85.097656 269.835938 86.707031 262.652344 86.804688 C 260.113281 84.804688 258.414062 82.777344 256.785156 80.78125 C 254.210938 77.640625 251.550781 74.40625 246.171875 72.5625 C 249.902344 70.285156 255.144531 68.203125 261.457031 68.738281 C 269.996094 69.425781 277.542969 74.429688 281.828125 82.015625 Z M 288.867188 64.023438 C 292.988281 65.234375 296.417969 68.023438 298.570312 71.667969 C 298.261719 71.714844 297.933594 71.75 297.644531 71.8125 C 293.441406 72.6875 291.230469 74.707031 288.886719 76.84375 C 288.621094 77.085938 288.332031 77.339844 288.050781 77.59375 C 285.027344 72.507812 280.804688 68.402344 275.867188 65.542969 C 279.800781 63.371094 284.492188 62.738281 288.867188 64.023438 Z M 188.132812 63.636719 C 193.46875 59.230469 200.757812 57.28125 208.128906 58.273438 C 218.78125 59.71875 229.394531 57.855469 238.003906 53.042969 C 246.011719 48.582031 254.640625 48.023438 259.484375 51.664062 C 262.34375 53.8125 263.691406 58.015625 264.328125 61.523438 C 263.574219 61.410156 262.835938 61.238281 262.066406 61.179688 C 248.460938 60.089844 238.964844 67.886719 235.523438 71.285156 C 225.957031 72.019531 217.496094 77.515625 209.84375 82.515625 C 206.578125 84.65625 203.472656 86.671875 200.46875 88.253906 C 200.3125 85.585938 200.53125 82.464844 201.585938 79.140625 C 202.511719 76.222656 203.964844 73.507812 205.902344 71.054688 C 207.203125 69.410156 206.925781 67.027344 205.28125 65.730469 C 203.640625 64.429688 201.257812 64.699219 199.953125 66.347656 C 197.445312 69.519531 195.558594 73.054688 194.359375 76.847656 C 192.660156 82.199219 192.613281 87.140625 193.109375 91.03125 C 190.472656 91.566406 187.878906 91.527344 185.304688 90.527344 C 182.777344 89.546875 181.121094 88.066406 179.226562 86.351562 C 179 82.503906 179.128906 71.0625 188.132812 63.636719 Z M 164.984375 87.070312 C 168.839844 87.605469 170.902344 89.09375 173.109375 91.042969 C 173.113281 91.046875 173.117188 91.046875 173.117188 91.050781 C 173.429688 91.332031 173.753906 91.621094 174.078125 91.917969 C 176.246094 93.871094 178.707031 96.09375 182.5625 97.589844 C 193.898438 102.003906 204.121094 95.316406 214 88.863281 C 223.292969 82.78125 232.070312 77.046875 241.898438 79.222656 C 246.550781 80.25 248.199219 82.261719 250.917969 85.589844 C 254.191406 89.585938 258.265625 94.5625 268.589844 98.785156 C 276.183594 101.886719 282.542969 102.703125 288.152344 103.429688 C 292.5 103.984375 296.082031 104.453125 299.394531 105.8125 C 299.410156 105.820312 299.425781 105.828125 299.441406 105.835938 C 301.382812 106.640625 303.234375 107.75 305.089844 109.382812 C 308.25 112.160156 310.664062 115.882812 312.363281 120.378906 C 308.652344 122.296875 305.675781 124.808594 304.988281 128.953125 C 303.878906 135.601562 309.578125 140.023438 315.613281 144.710938 C 321.238281 149.082031 327.617188 154.03125 328.722656 160.960938 C 329.636719 166.703125 326.902344 173.25 320.6875 180.4375 L 317.503906 180.4375 C 316.40625 180.4375 315.363281 180.914062 314.644531 181.746094 C 313.921875 182.570312 313.597656 183.675781 313.753906 184.757812 C 314.125 187.390625 314.371094 190.023438 314.5625 192.644531 L 246.527344 192.644531 L 250.859375 120.382812 C 251.460938 110.320312 247.445312 100.730469 239.820312 94.050781 C 239.773438 94.007812 239.660156 93.914062 239.609375 93.871094 C 238 92.582031 235.710938 92.863281 234.390625 94.445312 C 233.066406 96.027344 233.300781 98.421875 234.855469 99.78125 C 240.679688 104.878906 243.757812 112.222656 243.296875 119.925781 L 238.9375 192.644531 L 228.203125 192.644531 C 226.371094 183.945312 225.007812 175.082031 224.195312 166.25 C 223.386719 157.453125 223.089844 148.503906 223.296875 139.660156 C 223.347656 137.566406 221.691406 135.832031 219.597656 135.78125 C 217.609375 135.75 215.761719 137.390625 215.71875 139.488281 C 215.496094 148.617188 215.808594 157.859375 216.648438 166.949219 C 217.433594 175.539062 218.734375 184.160156 220.460938 192.644531 L 211.625 192.644531 C 211.371094 179.589844 209.726562 166.589844 206.582031 153.949219 C 203.75 142.578125 199.742188 131.433594 194.667969 120.832031 C 193.765625 118.941406 191.5 118.148438 189.613281 119.046875 C 187.726562 119.949219 186.925781 122.21875 187.832031 124.105469 C 192.6875 134.25 196.519531 144.90625 199.226562 155.785156 C 202.222656 167.828125 203.792969 180.210938 204.046875 192.644531 L 195.992188 192.644531 C 196.191406 190.960938 196.304688 189.265625 196.304688 187.5625 C 196.304688 172.101562 187.917969 158.414062 175.074219 149.914062 C 170.335938 139.167969 165.15625 128.46875 159.644531 118.09375 C 158.191406 115.355469 156.84375 112.886719 155.621094 110.644531 C 149.679688 99.746094 147.332031 95.207031 148.894531 92.167969 C 150.96875 88.074219 158.890625 86.226562 164.984375 87.070312 Z M 147.347656 49.035156 C 152.695312 44.765625 158.238281 42.222656 163.058594 40.710938 C 157.667969 54.230469 152.628906 68.347656 148.003906 82.789062 C 145.511719 84.273438 143.410156 86.203125 142.128906 88.703125 C 140.152344 92.5625 140.496094 96.3125 142.382812 101.140625 C 138.488281 114.703125 135.019531 128.539062 132.035156 142.347656 C 131.203125 142.539062 130.359375 142.710938 129.539062 142.933594 L 131.761719 71.421875 C 133.914062 65.082031 138.335938 56.234375 147.347656 49.035156 Z M 113.601562 35.8125 C 117.210938 30.199219 121.617188 26.230469 125.667969 23.476562 L 122.914062 111.972656 C 119.75 98.03125 115.417969 84.371094 109.875 71.113281 C 109.003906 69.039062 108.070312 67 107.148438 64.953125 C 106.507812 59.886719 106.015625 47.605469 113.601562 35.8125 Z M 67.964844 15.550781 C 82.324219 33.320312 94.042969 52.941406 102.875 74.039062 C 112.523438 97.101562 118.460938 121.394531 120.605469 146.292969 C 118.601562 147.257812 116.648438 148.320312 114.785156 149.527344 C 101.769531 129.882812 91.179688 108.726562 83.339844 86.554688 C 81.5625 81.542969 79.929688 76.480469 78.441406 71.382812 C 78.425781 71.320312 78.40625 71.269531 78.390625 71.210938 C 73.09375 53.058594 69.605469 34.425781 67.964844 15.550781 Z M 41.980469 72.652344 C 47.035156 72.433594 52.109375 72.574219 57.136719 73.058594 C 62.039062 73.539062 66.949219 74.363281 71.757812 75.507812 C 73.125 80.0625 74.601562 84.589844 76.191406 89.082031 C 76.535156 90.054688 76.886719 91.023438 77.238281 91.992188 C 68.867188 88.707031 60.785156 84.714844 53.121094 80.070312 C 49.3125 77.765625 45.585938 75.285156 41.980469 72.652344 Z M 59.035156 96.851562 C 66.402344 97.9375 73.75 99.503906 80.902344 101.511719 C 86.84375 116.164062 93.960938 130.335938 102.179688 143.875 C 89.523438 136.335938 77.199219 128.140625 65.410156 119.414062 C 55.070312 111.761719 44.96875 103.578125 35.289062 95 C 43.242188 95.082031 51.195312 95.699219 59.035156 96.851562 Z M 59.277344 124.28125 C 59.820312 124.6875 60.355469 125.109375 60.898438 125.511719 C 66.347656 129.550781 71.949219 133.425781 77.609375 137.226562 C 75.484375 136.984375 73.328125 136.816406 71.128906 136.816406 C 57.992188 136.816406 46.023438 141.316406 36.90625 148.65625 C 40.167969 138.242188 48.203125 129.316406 59.277344 124.28125 Z M 27.121094 183.484375 C 27.121094 161.933594 46.867188 144.402344 71.132812 144.402344 C 94.242188 144.402344 113.207031 160.308594 114.972656 180.429688 L 109.070312 180.429688 C 107.183594 180.429688 105.589844 181.808594 105.316406 183.671875 C 104.878906 186.660156 104.570312 189.648438 104.324219 192.636719 L 28.347656 192.636719 C 27.539062 189.65625 27.121094 186.585938 27.121094 183.484375 Z M 448.398438 320.632812 C 451.15625 339.777344 453.753906 357.851562 452.210938 383.460938 C 451.210938 400.027344 448.652344 416.617188 444.589844 432.820312 L 18.765625 432.820312 C 14.703125 416.621094 12.140625 400.03125 11.140625 383.460938 C 9.597656 357.851562 12.199219 339.777344 14.957031 320.632812 C 17.285156 304.4375 19.699219 287.683594 19.613281 265.625 C 19.535156 244.097656 17.015625 222.117188 12.125 200.222656 L 25.519531 200.222656 C 25.527344 200.222656 25.535156 200.226562 25.542969 200.226562 C 25.550781 200.226562 25.558594 200.222656 25.566406 200.222656 L 103.902344 200.222656 C 102.890625 235.617188 115.046875 270.28125 138.4375 297.328125 C 163.367188 326.164062 197.351562 342.703125 231.679688 342.703125 C 266.003906 342.703125 299.988281 326.167969 324.921875 297.332031 C 348.304688 270.285156 360.46875 235.617188 359.457031 200.226562 L 451.230469 200.226562 C 446.339844 222.117188 443.824219 244.097656 443.738281 265.628906 C 443.65625 287.683594 446.066406 304.4375 448.398438 320.632812 Z M 448.058594 176.699219 C 446.515625 178.796875 444.820312 180.832031 443.011719 182.742188 C 439.433594 186.523438 435.382812 189.835938 430.992188 192.640625 L 397.847656 192.640625 C 403.140625 184.09375 408.351562 175.453125 413.480469 166.75 L 425.75 171.730469 C 426.214844 171.917969 426.699219 172.007812 427.171875 172.007812 C 428.667969 172.007812 430.089844 171.117188 430.6875 169.640625 C 431.472656 167.699219 430.539062 165.488281 428.597656 164.699219 L 417.375 160.144531 C 417.863281 159.304688 418.378906 158.460938 418.863281 157.621094 C 422.847656 150.730469 426.6875 143.914062 430.441406 137.152344 C 434.453125 137.609375 441.777344 139.351562 447.515625 145.917969 C 448.03125 146.507812 448.507812 147.109375 448.945312 147.714844 C 454.914062 155.960938 454.550781 167.882812 448.058594 176.699219 Z M 472.488281 101.15625 L 450.097656 137.8125 C 448.816406 136.691406 447.503906 135.710938 446.183594 134.867188 L 465.089844 97.261719 C 466.195312 95.070312 468.789062 94.023438 470.84375 95.015625 C 471.382812 95.285156 471.839844 95.621094 472.25 96.042969 C 473.453125 97.265625 473.550781 99.417969 472.488281 101.15625 Z M 472.488281 101.15625 " fill-opacity="1" fill-rule="nonzero"/></g><path fill="#3a322b" d="M 259.9375 187.710938 C 260.425781 187.917969 260.929688 188.011719 261.425781 188.011719 C 262.898438 188.011719 264.300781 187.148438 264.914062 185.707031 C 267.777344 178.980469 270.070312 171.960938 271.71875 164.855469 C 273.394531 157.636719 274.433594 150.222656 274.8125 142.820312 C 274.917969 140.726562 273.3125 138.949219 271.21875 138.839844 C 269.226562 138.703125 267.347656 140.339844 267.242188 142.433594 C 266.882812 149.386719 265.90625 156.351562 264.332031 163.132812 C 262.78125 169.816406 260.628906 176.410156 257.9375 182.734375 C 257.117188 184.664062 258.011719 186.890625 259.9375 187.710938 Z M 259.9375 187.710938 " fill-opacity="1" fill-rule="nonzero"/><path fill="#3a322b" d="M 286.890625 186.886719 C 288.082031 186.886719 289.253906 186.328125 289.992188 185.277344 C 292.992188 181.03125 295.667969 176.515625 297.949219 171.859375 C 300.3125 167.050781 302.289062 162.023438 303.832031 156.910156 C 304.433594 154.90625 303.300781 152.789062 301.292969 152.1875 C 299.292969 151.574219 297.175781 152.714844 296.570312 154.71875 C 295.148438 159.441406 293.324219 164.085938 291.144531 168.523438 C 289.035156 172.820312 286.566406 176.988281 283.796875 180.914062 C 282.589844 182.625 282.996094 184.992188 284.707031 186.199219 C 285.375 186.660156 286.136719 186.886719 286.890625 186.886719 Z M 286.890625 186.886719 " fill-opacity="1" fill-rule="nonzero"/></g></g></g><g clip-path="url(#e11180e583)"><path fill="#6fceae" d="M 0.4375 281.160156 C 0.0078125 280.53125 0.0859375 279.976562 0.0859375 279.4375 C 0.0820312 187.25 0.0820312 95.058594 0.0859375 2.871094 C 0.0859375 0.355469 0.09375 0.355469 2.601562 0.355469 C 81.144531 0.355469 159.6875 0.355469 238.230469 0.363281 C 238.753906 0.363281 239.515625 0.09375 239.75 0.539062 C 240.023438 1.046875 239.445312 1.605469 239.117188 2.0625 C 237.09375 4.882812 235.488281 7.957031 233.617188 10.871094 C 231.796875 13.703125 230.085938 16.625 228.140625 19.371094 C 226.777344 21.289062 225.414062 23.214844 223.800781 24.976562 C 221.757812 27.210938 220.035156 29.730469 218.144531 32.105469 C 215.59375 35.308594 212.527344 37.996094 209.457031 40.671875 C 207.828125 42.089844 206.214844 43.558594 204.417969 44.738281 C 201.714844 46.511719 199.035156 48.328125 196.234375 49.964844 C 192.925781 51.894531 189.496094 53.617188 185.996094 55.113281 C 182.527344 56.59375 179.0625 58.09375 175.511719 59.410156 C 170.515625 61.257812 165.71875 63.625 160.75 65.539062 C 157.839844 66.660156 154.953125 67.871094 151.992188 68.835938 C 148.886719 69.851562 146.023438 71.414062 142.945312 72.425781 C 140 73.390625 137.300781 74.917969 134.410156 75.949219 C 130.40625 77.375 126.566406 79.1875 122.683594 80.867188 C 118.800781 82.550781 114.964844 84.382812 111.199219 86.363281 C 108.652344 87.703125 106.207031 89.199219 103.757812 90.671875 C 101.058594 92.292969 98.488281 94.136719 96.007812 96.109375 C 92.265625 99.09375 88.664062 102.238281 85.285156 105.621094 C 82.777344 108.128906 80.433594 110.808594 78.148438 113.53125 C 75.066406 117.203125 72.46875 121.222656 70.101562 125.355469 C 67.757812 129.445312 65.792969 133.746094 64.222656 138.222656 C 62.722656 142.503906 61.339844 146.832031 59.949219 151.144531 C 59.101562 153.769531 58.367188 156.476562 57.734375 159.183594 C 57.492188 160.230469 57.046875 161.234375 56.789062 162.28125 C 55.585938 167.238281 54.765625 172.28125 53.378906 177.199219 C 52.917969 178.828125 52.769531 180.546875 52.34375 182.191406 C 51.679688 184.761719 51.007812 187.34375 50.136719 189.851562 C 49.125 192.761719 48.585938 195.800781 47.539062 198.703125 C 45.707031 203.785156 44.371094 209.027344 42.511719 214.113281 C 41.355469 217.269531 39.957031 220.335938 38.933594 223.527344 C 37.652344 227.515625 35.800781 231.25 34.089844 235.035156 C 32.460938 238.628906 30.683594 242.167969 28.785156 245.648438 C 26.101562 250.574219 22.816406 255.070312 19.519531 259.566406 C 17.972656 261.671875 16.203125 263.609375 14.664062 265.71875 C 10.527344 271.382812 5.449219 276.152344 0.4375 281.160156 Z M 0.4375 281.160156 " fill-opacity="1" fill-rule="nonzero"/></g><path fill="#6fceae" d="M 446.816406 1231.761719 C 433.34375 1231.648438 418.527344 1230.277344 404.742188 1230.785156 C 390.101562 1231.351562 376.101562 1236.230469 361.71875 1238.523438 C 336.378906 1242.039062 313.214844 1225.132812 299.6875 1205.03125 C 289.734375 1190.785156 286.035156 1172.996094 288.011719 1155.777344 C 288.378906 1150.019531 290.746094 1144.960938 292.882812 1139.832031 C 295.738281 1132.964844 298.917969 1126.226562 303.554688 1120.328125 C 318.804688 1101.839844 340.359375 1090.230469 358.550781 1075.011719 C 360.332031 1073.601562 361.566406 1071.765625 362.609375 1069.761719 C 368.285156 1058.074219 374.171875 1045.335938 386.636719 1039.570312 C 406.941406 1028.296875 433.5625 1031.546875 450.910156 1047.007812 C 455.234375 1050.949219 458.847656 1055.5625 463.230469 1059.417969 C 475.878906 1071.140625 488.371094 1085.410156 505.957031 1089.140625 C 524.574219 1090.742188 534.25 1076.914062 554.203125 1083.199219 C 573.511719 1088.28125 580.046875 1110.734375 579.199219 1128.636719 C 577.765625 1144.84375 571.253906 1160.273438 562.550781 1173.878906 C 534.289062 1214.390625 495.953125 1232.652344 446.816406 1231.761719 Z M 446.816406 1231.761719 " fill-opacity="1" fill-rule="nonzero"/></svg>