<svg xmlns="http://www.w3.org/2000/svg" xmlns:xlink="http://www.w3.org/1999/xlink" width="1842" zoomAndPan="magnify" viewBox="0 0 1381.5 788.999998" height="1052" preserveAspectRatio="xMidYMid meet" version="1.0"><defs><clipPath id="9b7f72a9ac"><path d="M 0 0.144531 L 1381 0.144531 L 1381 788.855469 L 0 788.855469 Z M 0 0.144531 " clip-rule="nonzero"/></clipPath><clipPath id="6b80fcb483"><path d="M 397 125 L 984 125 L 984 664.519531 L 397 664.519531 Z M 397 125 " clip-rule="nonzero"/></clipPath><clipPath id="ca85e069bc"><path d="M 0 0.144531 L 269.25 0.144531 L 269.25 315.894531 L 0 315.894531 Z M 0 0.144531 " clip-rule="nonzero"/></clipPath><clipPath id="10103fed1d"><path d="M 1048 531 L 1381 531 L 1381 788.855469 L 1048 788.855469 Z M 1048 531 " clip-rule="nonzero"/></clipPath></defs><g clip-path="url(#9b7f72a9ac)"><path fill="#ffffff" d="M 0 0.144531 L 1381.5 0.144531 L 1381.5 796.644531 L 0 796.644531 Z M 0 0.144531 " fill-opacity="1" fill-rule="nonzero"/><path fill="#ffffff" d="M 0 0.144531 L 1381.5 0.144531 L 1381.5 789.144531 L 0 789.144531 Z M 0 0.144531 " fill-opacity="1" fill-rule="nonzero"/><path fill="#ffffff" d="M 0 0.144531 L 1381.5 0.144531 L 1381.5 789.144531 L 0 789.144531 Z M 0 0.144531 " fill-opacity="1" fill-rule="nonzero"/></g><path fill="#d6b85a" d="M 976.601562 238.894531 C 975.808594 238.054688 974.832031 237.3125 973.625 236.707031 C 973.578125 236.707031 973.53125 236.660156 973.484375 236.660156 C 970.414062 235.171875 966.972656 235.589844 964.226562 237.265625 C 964.738281 236.382812 969.667969 227.730469 965.296875 218.753906 C 962.226562 212.429688 956.410156 209.964844 954.921875 209.359375 C 957.851562 205.03125 960.738281 200.753906 963.667969 196.429688 C 967.53125 190.707031 966.691406 182.613281 961.109375 178.476562 C 961.0625 178.476562 961.015625 178.429688 961.015625 178.382812 C 954.550781 173.730469 947.246094 176.707031 946.875 176.847656 C 947.339844 175.777344 947.664062 174.660156 947.804688 173.453125 C 948.222656 169.542969 948.128906 161.777344 942.269531 155.453125 C 942.222656 155.40625 942.128906 155.3125 942.082031 155.265625 C 935.894531 148.753906 924.871094 151.589844 921.9375 160.054688 L 904.773438 209.964844 C 904.074219 197.777344 903.421875 185.542969 902.773438 173.359375 C 902.726562 171.871094 902.261719 170.476562 901.421875 169.21875 C 900.121094 167.265625 897.65625 164.566406 893.609375 163.636719 C 893.5625 163.636719 893.515625 163.589844 893.46875 163.589844 C 888.445312 162.519531 883.792969 166.613281 883.699219 171.730469 L 882.675781 233.542969 L 882.675781 233.636719 C 870.90625 235.078125 860.113281 242.476562 854.484375 253.636719 C 851.273438 260.054688 848.0625 266.429688 844.855469 272.847656 C 838.945312 268.289062 830.664062 263.171875 824.617188 251.871094 C 817.035156 237.589844 820.757812 228.847656 812.941406 223.3125 C 804.800781 217.589844 792.285156 221.078125 782.84375 225.03125 C 778.375 221.359375 772.886719 217.964844 767.070312 216.988281 L 767.070312 216.894531 C 764.929688 208.054688 758.234375 200.941406 749.578125 198.382812 C 740.277344 195.636719 730.085938 198.519531 723.480469 205.777344 C 723.296875 201.683594 722.320312 189.496094 715.015625 183.964844 C 707.757812 178.519531 695.476562 178.707031 683.566406 185.3125 C 673.378906 191.03125 661.375 192.753906 649.792969 191.21875 C 639.652344 189.824219 629.417969 192.429688 621.695312 198.800781 C 606.714844 211.171875 609.085938 231.21875 609.273438 232.476562 C 606.25 229.824219 602.898438 227.359375 596.898438 226.519531 C 591.410156 225.777344 584.523438 226.476562 579.265625 228.988281 C 586.292969 206.894531 593.875 186.289062 601.550781 167.683594 C 595.640625 168.613281 583.5 171.453125 571.683594 180.847656 C 558.703125 191.21875 553.167969 204.054688 550.84375 211.078125 C 551.496094 189.03125 552.191406 166.988281 552.890625 144.941406 C 547.910156 147.359375 537.210938 153.359375 529.257812 165.730469 C 518.371094 182.707031 520.046875 200.007812 520.699219 205.03125 C 505.113281 170.753906 485.945312 145.730469 471.617188 129.636719 C 472.640625 151.453125 475.992188 180.382812 485.527344 213.078125 C 479.480469 211.496094 472.363281 210.101562 464.359375 209.3125 C 452.21875 208.148438 441.566406 208.753906 433.097656 209.824219 C 439.660156 215.265625 447.472656 220.988281 456.546875 226.519531 C 471.199219 235.359375 485.015625 241.171875 496.554688 244.988281 C 487.902344 242.476562 477.992188 240.148438 466.917969 238.519531 C 451.148438 236.195312 437.007812 235.871094 425.238281 236.429688 C 437.472656 247.730469 451.382812 259.542969 467.105469 271.453125 C 446.683594 279.636719 432.449219 298.054688 432.449219 319.453125 C 432.449219 319.589844 432.449219 319.730469 432.449219 319.917969 C 426.121094 328.335938 422.398438 338.476562 422.398438 349.40625 C 422.398438 354.941406 423.375 360.242188 425.144531 365.265625 L 402.8125 365.265625 C 411.328125 400.894531 413.140625 430.101562 413.234375 450.148438 C 413.421875 508.429688 399.277344 536.101562 402.8125 594.941406 C 404.488281 622.800781 409.417969 645.359375 413.234375 659.871094 C 501.484375 659.871094 589.78125 659.871094 678.078125 659.871094 C 766.375 659.871094 854.671875 659.871094 942.917969 659.871094 C 946.734375 645.359375 951.664062 622.800781 953.339844 594.941406 C 956.875 536.101562 942.734375 508.429688 942.917969 450.148438 C 943.011719 430.101562 944.828125 400.894531 953.339844 365.265625 L 924.03125 365.265625 C 928.777344 362.335938 934.824219 357.964844 940.78125 351.683594 C 943.292969 349.03125 945.476562 346.382812 947.339844 343.824219 C 956.269531 331.683594 957.292969 314.988281 948.457031 302.800781 C 947.992188 302.148438 947.527344 301.496094 946.96875 300.894531 C 957.15625 284.195312 967.34375 267.496094 977.53125 250.847656 C 979.855469 247.078125 979.71875 242.054688 976.601562 238.894531 Z M 976.601562 238.894531 " fill-opacity="1" fill-rule="nonzero"/><path fill="#349370" d="M 922.125 257.964844 C 928.964844 247.824219 935.800781 237.730469 942.640625 227.589844 C 942.40625 229.777344 935.382812 291.125 935.152344 291.636719 C 927.707031 288.007812 920.960938 287.730469 919.378906 287.683594 C 924.589844 278.335938 925.382812 267.453125 922.078125 257.964844 Z M 922.125 257.964844 " fill-opacity="1" fill-rule="nonzero"/><path fill="#3fa07f" d="M 767.070312 216.894531 L 767.070312 216.988281 C 764.746094 216.519531 762.371094 216.476562 759.953125 216.988281 C 753.8125 218.242188 752.371094 222.101562 745.671875 226.707031 C 741.484375 216.660156 733.296875 209.078125 723.480469 205.777344 C 730.085938 198.519531 740.277344 195.636719 749.578125 198.382812 C 758.234375 200.941406 764.929688 208.054688 767.070312 216.894531 Z M 767.070312 216.894531 " fill-opacity="1" fill-rule="nonzero"/><path fill="#4aaf8f" d="M 745.671875 226.707031 C 744.789062 227.359375 743.8125 227.964844 742.695312 228.613281 C 732.273438 234.613281 721.714844 235.589844 714.640625 235.496094 L 714.597656 235.496094 C 703.710938 227.730469 703.804688 219.683594 691.613281 216.988281 C 689.335938 216.476562 687.101562 216.242188 684.914062 216.289062 C 686.21875 214.847656 697.570312 202.613281 715.015625 204.007812 C 717.945312 204.242188 720.785156 204.847656 723.480469 205.777344 C 733.296875 209.078125 741.484375 216.660156 745.671875 226.707031 Z M 745.671875 226.707031 " fill-opacity="1" fill-rule="nonzero"/><path fill="#53b79a" d="M 763.023438 249.824219 C 752.558594 245.496094 741.066406 247.683594 725.15625 241.171875 C 720.738281 239.359375 717.339844 237.453125 714.640625 235.496094 C 721.714844 235.589844 732.273438 234.613281 742.695312 228.613281 C 743.8125 227.964844 744.789062 227.359375 745.671875 226.707031 C 752.371094 222.101562 753.8125 218.242188 759.953125 216.988281 C 762.371094 216.476562 764.746094 216.519531 767.070312 216.988281 C 772.886719 217.964844 778.375 221.359375 782.84375 225.03125 C 787.773438 229.03125 791.449219 233.3125 792.984375 235.125 C 799.308594 242.519531 806.566406 250.988281 804.472656 259.359375 C 802.242188 268.054688 791.308594 270.941406 782.84375 274.429688 C 781.214844 268.613281 778.003906 260.941406 771.210938 254.988281 C 768.511719 252.613281 765.816406 250.988281 763.023438 249.824219 Z M 763.023438 249.824219 " fill-opacity="1" fill-rule="nonzero"/><path fill="#89a25b" d="M 636.117188 239.3125 C 630.625 241.359375 625.136719 241.871094 619.507812 239.683594 C 614.949219 237.917969 612.203125 235.125 609.273438 232.476562 C 609.085938 231.21875 606.714844 211.171875 621.695312 198.800781 C 629.417969 192.429688 639.652344 189.824219 649.792969 191.21875 C 661.375 192.753906 673.378906 191.03125 683.566406 185.3125 C 695.476562 178.707031 707.757812 178.519531 715.015625 183.964844 C 722.320312 189.496094 723.296875 201.683594 723.480469 205.777344 C 720.785156 204.847656 717.945312 204.242188 715.015625 204.007812 C 697.570312 202.613281 686.21875 214.847656 684.914062 216.289062 C 666.773438 216.566406 651.515625 233.683594 636.117188 239.3125 Z M 636.117188 239.3125 " fill-opacity="1" fill-rule="nonzero"/><path fill="#89a25b" d="M 834.246094 328.335938 C 830.757812 336.753906 820.292969 346.148438 789.402344 350.289062 C 796.007812 343.078125 803.542969 332.382812 801.730469 321.03125 C 798.660156 301.636719 770.699219 294.847656 772.605469 283.265625 C 773.304688 279.03125 777.585938 276.613281 782.84375 274.429688 C 791.308594 270.941406 802.242188 268.054688 804.472656 259.359375 C 806.566406 250.988281 799.308594 242.519531 792.984375 235.125 C 791.449219 233.3125 787.773438 229.03125 782.84375 225.03125 C 792.285156 221.078125 804.800781 217.589844 812.941406 223.3125 C 820.757812 228.847656 817.035156 237.589844 824.617188 251.871094 C 830.664062 263.171875 838.945312 268.289062 844.855469 272.847656 C 849.273438 276.242188 852.390625 279.3125 852.296875 284.382812 C 852.25 288.753906 849.878906 290.566406 846.667969 294.566406 C 844.621094 297.125 842.25 300.566406 839.875 306.195312 C 835.222656 317.265625 836.851562 322.101562 834.246094 328.335938 Z M 834.246094 328.335938 " fill-opacity="1" fill-rule="nonzero"/><path fill="#a7d676" d="M 648.957031 365.265625 L 628.765625 365.265625 C 629.554688 361.777344 630.019531 358.101562 630.019531 354.382812 C 630.019531 336.519531 620.066406 320.753906 604.898438 311.265625 L 604.898438 311.21875 C 599.875 299.777344 593.503906 286.289062 585.546875 271.359375 C 580.011719 260.941406 575.777344 253.683594 573.40625 248.148438 C 571.03125 242.660156 570.476562 238.847656 572.335938 235.265625 C 573.730469 232.519531 576.242188 230.476562 579.265625 228.988281 C 584.523438 226.476562 591.410156 225.777344 596.898438 226.519531 C 602.898438 227.359375 606.25 229.824219 609.273438 232.476562 C 612.203125 235.125 614.949219 237.917969 619.507812 239.683594 C 625.136719 241.871094 630.625 241.359375 636.117188 239.3125 C 651.515625 233.683594 666.773438 216.566406 684.914062 216.289062 C 687.101562 216.242188 689.335938 216.476562 691.613281 216.988281 C 703.804688 219.683594 703.710938 227.730469 714.597656 235.496094 L 714.640625 235.496094 C 717.339844 237.453125 720.738281 239.359375 725.15625 241.171875 C 741.066406 247.683594 752.558594 245.496094 763.023438 249.824219 C 765.816406 250.988281 768.511719 252.613281 771.210938 254.988281 C 778.003906 260.941406 781.214844 268.613281 782.84375 274.429688 C 777.585938 276.613281 773.304688 279.03125 772.609375 283.265625 C 770.699219 294.847656 798.660156 301.636719 801.730469 321.03125 C 803.542969 332.382812 796.007812 343.078125 789.402344 350.289062 L 783.398438 350.289062 C 784.144531 355.359375 784.5625 360.335938 784.75 365.265625 Z M 648.957031 365.265625 " fill-opacity="1" fill-rule="nonzero"/><path fill="#d14b62" d="M 585.546875 271.359375 C 593.503906 286.289062 599.875 299.777344 604.898438 311.21875 C 595.410156 305.265625 583.828125 301.777344 571.359375 301.777344 C 567.359375 301.777344 563.496094 302.148438 559.726562 302.847656 C 563.355469 285.589844 567.871094 267.3125 573.40625 248.148438 C 575.777344 253.683594 580.011719 260.941406 585.546875 271.359375 Z M 585.546875 271.359375 " fill-opacity="1" fill-rule="nonzero"/><path fill="#894687" d="M 533.398438 314.289062 C 531.675781 315.636719 530.046875 316.988281 528.511719 318.476562 C 517.859375 305.359375 500.601562 296.800781 481.0625 296.800781 C 460.824219 296.800781 443.007812 305.964844 432.449219 319.917969 C 432.449219 319.730469 432.449219 319.589844 432.449219 319.453125 C 432.449219 298.054688 446.683594 279.636719 467.105469 271.453125 C 468.5 272.476562 469.898438 273.542969 471.292969 274.566406 C 493.203125 290.753906 514.277344 303.777344 533.398438 314.289062 Z M 533.398438 314.289062 " fill-opacity="1" fill-rule="nonzero"/><path fill="#894687" d="M 630.019531 354.382812 C 630.019531 358.101562 629.554688 361.777344 628.765625 365.265625 L 571.40625 365.265625 C 571.589844 360.335938 572.011719 355.359375 572.753906 350.289062 L 539.722656 350.289062 C 539.722656 350.007812 539.722656 349.683594 539.722656 349.40625 C 539.722656 337.824219 535.585938 327.171875 528.511719 318.476562 C 530.046875 316.988281 531.675781 315.636719 533.398438 314.289062 C 537.398438 311.265625 541.863281 308.660156 546.75 306.660156 C 547.121094 306.476562 547.492188 306.335938 547.914062 306.195312 C 551.632812 304.707031 555.589844 303.589844 559.726562 302.847656 C 563.496094 302.148438 567.359375 301.777344 571.359375 301.777344 C 583.828125 301.777344 595.410156 305.265625 604.898438 311.21875 L 604.898438 311.265625 C 620.066406 320.753906 630.019531 336.519531 630.019531 354.382812 Z M 630.019531 354.382812 " fill-opacity="1" fill-rule="nonzero"/><path fill="#e15c63" d="M 432.449219 319.917969 C 443.007812 305.964844 460.824219 296.800781 481.0625 296.800781 C 500.601562 296.800781 517.859375 305.359375 528.511719 318.476562 C 535.585938 327.171875 539.722656 337.824219 539.722656 349.40625 C 539.722656 349.683594 539.722656 350.007812 539.722656 350.289062 L 527.628906 350.289062 C 526.886719 355.3125 526.375 360.335938 526.09375 365.265625 L 425.144531 365.265625 C 423.375 360.242188 422.398438 354.941406 422.398438 349.40625 C 422.398438 338.476562 426.121094 328.335938 432.449219 319.917969 Z M 432.449219 319.917969 " fill-opacity="1" fill-rule="nonzero"/><path fill="#4aaf8f" d="M 491.667969 232.054688 C 493.25 236.476562 494.878906 240.800781 496.554688 244.988281 C 485.015625 241.171875 471.199219 235.359375 456.546875 226.519531 C 447.472656 220.988281 439.660156 215.265625 433.097656 209.824219 C 441.566406 208.753906 452.21875 208.148438 464.359375 209.3125 C 472.363281 210.101562 479.480469 211.496094 485.527344 213.078125 C 487.34375 219.265625 489.390625 225.589844 491.667969 232.054688 Z M 491.667969 232.054688 " fill-opacity="1" fill-rule="nonzero"/><path fill="#4aaf8f" d="M 571.683594 180.847656 C 583.5 171.453125 595.640625 168.613281 601.550781 167.683594 C 593.875 186.289062 586.292969 206.894531 579.265625 228.988281 C 576.242188 230.476562 573.730469 232.519531 572.335938 235.265625 C 570.476562 238.847656 571.03125 242.660156 573.40625 248.148438 C 567.871094 267.3125 563.355469 285.589844 559.726562 302.847656 C 555.589844 303.589844 551.632812 304.707031 547.914062 306.195312 L 547.914062 306.148438 C 548.890625 274.476562 549.867188 242.753906 550.84375 211.078125 C 553.167969 204.054688 558.703125 191.21875 571.683594 180.847656 Z M 571.683594 180.847656 " fill-opacity="1" fill-rule="nonzero"/><path fill="#53b79a" d="M 552.890625 144.941406 C 552.191406 166.988281 551.496094 189.03125 550.84375 211.078125 C 549.867188 242.753906 548.890625 274.476562 547.914062 306.148438 L 547.914062 306.195312 C 547.492188 306.335938 547.121094 306.476562 546.75 306.660156 C 545.027344 283.871094 539.910156 250.566406 524.324219 213.359375 C 523.164062 210.519531 521.953125 207.777344 520.699219 205.078125 L 520.699219 205.03125 C 520.046875 200.007812 518.371094 182.707031 529.257812 165.730469 C 537.210938 153.359375 547.914062 147.359375 552.890625 144.941406 Z M 552.890625 144.941406 " fill-opacity="1" fill-rule="nonzero"/><path fill="#53b79a" d="M 496.554688 244.988281 C 508.042969 273.871094 521.628906 297.03125 533.398438 314.289062 C 514.277344 303.777344 493.203125 290.753906 471.292969 274.566406 C 469.898438 273.542969 468.5 272.476562 467.105469 271.453125 C 451.382812 259.542969 437.472656 247.730469 425.238281 236.429688 C 437.007812 235.871094 451.148438 236.195312 466.917969 238.519531 C 477.992188 240.148438 487.902344 242.476562 496.554688 244.988281 Z M 496.554688 244.988281 " fill-opacity="1" fill-rule="nonzero"/><path fill="#6fceae" d="M 524.324219 213.359375 C 539.910156 250.566406 545.027344 283.871094 546.75 306.660156 C 541.863281 308.660156 537.398438 311.265625 533.398438 314.289062 C 521.628906 297.03125 508.042969 273.871094 496.554688 244.988281 C 494.878906 240.800781 493.25 236.476562 491.667969 232.054688 C 489.390625 225.589844 487.34375 219.265625 485.527344 213.078125 C 475.992188 180.382812 472.640625 151.453125 471.617188 129.636719 C 485.945312 145.730469 505.113281 170.753906 520.699219 205.03125 L 520.699219 205.078125 C 521.953125 207.777344 523.164062 210.519531 524.324219 213.359375 Z M 524.324219 213.359375 " fill-opacity="1" fill-rule="nonzero"/><path fill="#4aaf8f" d="M 976.601562 238.894531 C 979.71875 242.054688 979.855469 247.078125 977.53125 250.847656 C 967.34375 267.496094 957.15625 284.195312 946.96875 300.894531 C 946.78125 300.660156 946.59375 300.476562 946.410156 300.242188 C 942.917969 296.195312 938.917969 293.496094 935.152344 291.636719 L 960.320312 241.542969 C 961.203125 239.777344 962.597656 238.289062 964.226562 237.3125 C 964.226562 237.3125 964.226562 237.3125 964.226562 237.265625 C 966.972656 235.589844 970.414062 235.171875 973.484375 236.660156 C 973.53125 236.660156 973.578125 236.707031 973.625 236.707031 C 974.832031 237.3125 975.808594 238.054688 976.601562 238.894531 Z M 976.601562 238.894531 " fill-opacity="1" fill-rule="nonzero"/><path fill="#3fa07f" d="M 965.296875 218.753906 C 969.667969 227.730469 964.738281 236.382812 964.226562 237.265625 C 964.226562 237.3125 964.226562 237.3125 964.226562 237.3125 C 962.597656 238.289062 961.203125 239.777344 960.320312 241.542969 L 935.152344 291.636719 C 935.382812 291.125 942.40625 229.777344 942.640625 227.589844 C 942.640625 227.542969 942.640625 227.542969 942.640625 227.542969 C 946.734375 221.496094 950.828125 215.40625 954.921875 209.359375 C 956.410156 209.964844 962.226562 212.429688 965.296875 218.753906 Z M 965.296875 218.753906 " fill-opacity="1" fill-rule="nonzero"/><path fill="#53b79a" d="M 961.109375 178.476562 C 966.691406 182.613281 967.53125 190.707031 963.667969 196.429688 C 960.738281 200.753906 957.851562 205.03125 954.921875 209.359375 C 950.828125 215.40625 946.734375 221.496094 942.640625 227.542969 C 942.640625 227.542969 942.640625 227.542969 942.640625 227.589844 C 935.800781 237.730469 928.964844 247.824219 922.125 257.964844 L 922.078125 257.964844 C 920.449219 253.03125 917.707031 248.476562 913.9375 244.707031 C 924.824219 222.289062 935.753906 199.824219 946.640625 177.40625 C 946.734375 177.21875 946.828125 177.03125 946.875 176.847656 C 947.246094 176.707031 954.550781 173.730469 961.015625 178.382812 C 961.015625 178.429688 961.0625 178.476562 961.109375 178.476562 Z M 961.109375 178.476562 " fill-opacity="1" fill-rule="nonzero"/><path fill="#dd864a" d="M 899.238281 323.078125 C 900.773438 320.519531 902.261719 317.964844 903.75 315.359375 C 909.144531 306.007812 914.355469 296.800781 919.378906 287.683594 C 920.960938 287.730469 927.707031 288.007812 935.152344 291.636719 C 938.917969 293.496094 942.917969 296.195312 946.410156 300.242188 C 946.59375 300.476562 946.78125 300.660156 946.96875 300.894531 C 947.527344 301.496094 947.992188 302.148438 948.457031 302.800781 C 957.292969 314.984375 956.269531 331.683594 947.339844 343.824219 C 945.480469 346.382812 943.292969 349.03125 940.78125 351.683594 C 934.824219 357.964844 928.777344 362.335938 924.03125 365.265625 L 873.652344 365.265625 C 882.210938 351.683594 890.722656 337.636719 899.238281 323.078125 Z M 899.238281 323.078125 " fill-opacity="1" fill-rule="nonzero"/><path fill="#6fceae" d="M 904.773438 209.964844 L 921.9375 160.054688 C 924.871094 151.589844 935.894531 148.753906 942.082031 155.265625 C 942.128906 155.3125 942.222656 155.40625 942.269531 155.453125 C 948.128906 161.777344 948.222656 169.542969 947.804688 173.453125 C 947.664062 174.660156 947.339844 175.777344 946.875 176.847656 C 946.828125 177.03125 946.734375 177.21875 946.640625 177.40625 C 935.753906 199.824219 924.824219 222.289062 913.9375 244.707031 C 912.542969 243.265625 910.960938 241.964844 909.238281 240.753906 C 909.054688 240.660156 908.914062 240.566406 908.773438 240.429688 C 905.609375 238.289062 902.398438 236.707031 899.238281 235.496094 C 898.261719 235.125 897.28125 234.800781 896.304688 234.566406 Z M 904.773438 209.964844 " fill-opacity="1" fill-rule="nonzero"/><path fill="#f69552" d="M 846.667969 294.566406 C 849.878906 290.566406 852.25 288.753906 852.296875 284.382812 C 852.390625 279.3125 849.273438 276.242188 844.855469 272.847656 C 848.0625 266.429688 851.273438 260.054688 854.484375 253.636719 C 860.113281 242.476562 870.90625 235.078125 882.675781 233.636719 C 887.1875 232.988281 891.792969 233.265625 896.304688 234.566406 C 897.28125 234.800781 898.261719 235.125 899.238281 235.496094 C 902.398438 236.707031 905.609375 238.289062 908.773438 240.429688 C 908.914062 240.566406 909.054688 240.660156 909.238281 240.753906 C 910.960938 241.964844 912.542969 243.265625 913.9375 244.707031 C 917.707031 248.476562 920.449219 253.03125 922.078125 257.964844 C 925.382812 267.453125 924.589844 278.335938 919.378906 287.683594 C 914.355469 296.800781 909.144531 306.007812 903.75 315.359375 C 902.261719 317.964844 900.773438 320.519531 899.238281 323.078125 C 890.722656 337.636719 882.210938 351.683594 873.652344 365.265625 L 830.058594 365.265625 C 829.78125 360.335938 829.269531 355.3125 828.523438 350.289062 L 789.402344 350.289062 C 820.292969 346.148438 830.757812 336.753906 834.246094 328.335938 C 836.851562 322.101562 835.222656 317.265625 839.875 306.195312 C 842.25 300.566406 844.621094 297.125 846.667969 294.566406 Z M 846.667969 294.566406 " fill-opacity="1" fill-rule="nonzero"/><path fill="#53b79a" d="M 902.773438 173.359375 C 903.421875 185.542969 904.074219 197.777344 904.773438 209.964844 L 896.304688 234.566406 C 891.792969 233.265625 887.1875 232.988281 882.675781 233.636719 L 882.675781 233.542969 L 883.699219 171.730469 C 883.792969 166.613281 888.445312 162.519531 893.46875 163.589844 C 893.515625 163.589844 893.5625 163.636719 893.609375 163.636719 C 897.65625 164.566406 900.121094 167.265625 901.421875 169.21875 C 902.261719 170.476562 902.726562 171.871094 902.773438 173.359375 Z M 902.773438 173.359375 " fill-opacity="1" fill-rule="nonzero"/><path fill="#7f5d46" d="M 830.058594 365.265625 C 835.691406 461.824219 758.699219 540.054688 678.078125 540.054688 C 597.457031 540.054688 520.464844 461.824219 526.09375 365.265625 C 526.375 360.335938 526.886719 355.3125 527.628906 350.289062 L 572.753906 350.289062 C 572.011719 355.359375 571.589844 360.335938 571.40625 365.265625 C 568.289062 442.429688 626.625 500.101562 678.078125 500.101562 C 729.527344 500.101562 787.867188 442.429688 784.75 365.265625 C 784.5625 360.335938 784.144531 355.359375 783.398438 350.289062 L 828.523438 350.289062 C 829.269531 355.3125 829.78125 360.335938 830.058594 365.265625 Z M 830.058594 365.265625 " fill-opacity="1" fill-rule="nonzero"/><path fill="#c4a653" d="M 723.480469 486.101562 C 708.921875 495.125 693.195312 500.101562 678.078125 500.101562 C 626.625 500.101562 568.289062 442.429688 571.40625 365.265625 L 595.503906 365.265625 C 595.503906 365.265625 592.433594 479.3125 723.480469 486.101562 Z M 723.480469 486.101562 " fill-opacity="1" fill-rule="nonzero"/><path fill="#c4a653" d="M 859.367188 365.265625 C 859.367188 365.265625 861.324219 539.496094 686.917969 539.730469 C 764.234375 534.335938 835.503906 458.289062 830.0625 365.265625 Z M 859.367188 365.265625 " fill-opacity="1" fill-rule="nonzero"/><path fill="#c4a653" d="M 942.917969 450.148438 C 942.734375 508.429688 956.875 536.101562 953.339844 594.941406 C 951.664062 622.800781 946.734375 645.359375 942.917969 659.871094 C 854.671875 659.871094 766.375 659.871094 678.078125 659.871094 C 589.78125 659.871094 501.484375 659.871094 413.234375 659.871094 C 409.417969 645.359375 404.488281 622.800781 402.8125 594.941406 C 401.789062 577.917969 402.253906 563.542969 403.417969 550.242188 C 404.070312 552.195312 425.097656 612.847656 663.050781 617.871094 C 908.585938 623.03125 893.699219 540.054688 893.699219 540.054688 C 893.699219 540.054688 885.605469 476.566406 908.585938 427.453125 C 931.617188 378.289062 924.03125 365.265625 924.03125 365.265625 L 953.339844 365.265625 C 944.828125 400.894531 943.011719 430.101562 942.917969 450.148438 Z M 942.917969 450.148438 " fill-opacity="1" fill-rule="nonzero"/><g clip-path="url(#6b80fcb483)"><path fill="#3a322b" d="M 979.910156 235.613281 C 978.695312 234.378906 977.289062 233.359375 975.503906 232.457031 C 974.144531 231.800781 972.714844 231.460938 971.285156 231.273438 C 972.058594 227.175781 972.066406 222.023438 969.492188 216.738281 C 967.417969 212.46875 964.371094 209.625 961.640625 207.746094 L 967.511719 199.046875 C 972.871094 191.105469 971.242188 180.210938 963.714844 174.632812 C 959.882812 171.851562 955.890625 171.148438 952.558594 171.1875 C 952.660156 166.097656 951.589844 158.679688 945.757812 152.390625 C 945.714844 152.339844 945.484375 152.09375 945.4375 152.042969 C 941.503906 147.90625 935.773438 146.183594 930.097656 147.421875 C 924.1875 148.707031 919.488281 152.867188 917.539062 158.535156 L 908.105469 185.953125 L 907.414062 173.101562 C 907.289062 170.757812 906.558594 168.527344 905.296875 166.640625 C 903.457031 163.898438 900.117188 160.363281 894.445312 159.054688 C 890.820312 158.257812 887.042969 159.152344 884.074219 161.503906 C 880.945312 163.980469 879.113281 167.683594 879.046875 171.660156 L 878.097656 229.625 C 866.503906 232.257812 856.136719 239.996094 850.335938 251.550781 L 843.183594 265.785156 C 838.21875 262.03125 832.902344 257.507812 828.730469 249.679688 C 825.585938 243.769531 824.574219 238.925781 823.6875 234.660156 C 822.503906 228.972656 821.382812 223.605469 815.625 219.535156 C 808.246094 214.320312 797.472656 214.390625 783.574219 219.710938 C 778.832031 216.183594 774.542969 214.152344 770.703125 213.050781 C 767.546875 203.894531 760.191406 196.6875 750.878906 193.945312 C 742.84375 191.578125 734.195312 192.808594 727.078125 196.988281 C 725.839844 190.992188 723.246094 184.367188 717.789062 180.265625 C 708.808594 173.527344 694.488281 173.925781 681.304688 181.28125 C 672.484375 186.203125 661.511719 188.09375 650.425781 186.59375 C 638.8125 185.03125 627.261719 188.171875 618.722656 195.21875 C 608.257812 203.851562 605.296875 215.730469 604.589844 223.890625 C 602.59375 223.019531 600.300781 222.316406 597.507812 221.933594 C 593.964844 221.441406 590.15625 221.519531 586.449219 222.09375 C 592.429688 203.964844 598.921875 186.273438 605.867188 169.460938 C 606.507812 167.902344 606.257812 166.117188 605.210938 164.796875 C 604.164062 163.476562 602.476562 162.808594 600.820312 163.09375 C 592.609375 164.433594 580.386719 167.96875 568.789062 177.226562 C 563.539062 181.417969 559.421875 186.003906 556.136719 190.574219 L 557.550781 145.097656 C 557.601562 143.46875 556.796875 141.933594 555.429688 141.050781 C 554.070312 140.164062 552.335938 140.0625 550.871094 140.761719 C 543.542969 144.3125 533.175781 151.09375 525.359375 163.242188 C 520.289062 171.125 517.734375 179.046875 516.515625 186.152344 C 505.144531 164.769531 491.300781 144.789062 475.082031 126.5625 C 473.773438 125.089844 471.683594 124.601562 469.851562 125.34375 C 468.023438 126.085938 466.863281 127.902344 466.957031 129.871094 C 468.183594 155.941406 472.203125 181.714844 478.949219 206.808594 C 474.269531 205.871094 469.535156 205.164062 464.804688 204.703125 C 454.070312 203.652344 443.203125 203.832031 432.480469 205.25 C 430.644531 205.492188 429.125 206.796875 428.613281 208.578125 C 428.101562 210.355469 428.695312 212.265625 430.121094 213.445312 C 437.667969 219.6875 445.753906 225.429688 454.148438 230.519531 C 455.390625 231.269531 456.644531 232.007812 457.898438 232.738281 C 447 231.617188 435.984375 231.289062 425.042969 231.777344 C 423.167969 231.859375 421.523438 233.0625 420.878906 234.824219 C 420.230469 236.582031 420.707031 238.5625 422.085938 239.835938 C 433.667969 250.554688 445.816406 260.824219 458.292969 270.515625 C 439.832031 280.648438 428.171875 298.75 427.832031 318.558594 C 421.492188 327.46875 417.765625 338.046875 417.765625 349.40625 C 417.765625 353.195312 418.222656 356.949219 419.03125 360.632812 L 402.824219 360.632812 C 401.398438 360.632812 400.054688 361.289062 399.171875 362.40625 C 398.292969 363.519531 397.964844 364.980469 398.296875 366.367188 C 405 394.417969 408.457031 422.625 408.558594 450.191406 C 408.65625 476.5625 405.75 496.769531 402.941406 516.300781 C 399.492188 540.261719 396.230469 562.894531 398.183594 595.257812 C 399.515625 617.367188 403.058594 639.511719 408.71875 661.066406 C 409.246094 663.09375 411.09375 664.519531 413.210938 664.519531 L 942.9375 664.519531 C 945.054688 664.519531 946.902344 663.09375 947.4375 661.050781 C 953.09375 639.492188 956.640625 617.347656 957.96875 595.242188 C 959.917969 562.878906 956.664062 540.25 953.214844 516.289062 C 950.40625 496.753906 947.492188 476.550781 947.59375 450.175781 C 947.703125 422.601562 951.152344 394.398438 957.859375 366.355469 C 958.1875 364.96875 957.867188 363.511719 956.984375 362.390625 C 956.097656 361.273438 954.753906 360.617188 953.332031 360.617188 L 938.105469 360.617188 C 940.203125 358.789062 942.246094 356.894531 944.160156 354.871094 C 946.640625 352.25 948.972656 349.460938 951.089844 346.585938 C 961.449219 332.511719 961.984375 314.144531 952.566406 300.632812 L 981.511719 253.261719 C 985.054688 247.453125 984.402344 240.195312 979.910156 235.613281 Z M 961.128906 220.808594 C 963.917969 226.542969 961.574219 232.269531 960.621094 234.195312 C 958.820312 235.558594 957.261719 237.296875 956.171875 239.453125 L 942.953125 265.746094 C 943.984375 256.824219 945.347656 244.964844 947.144531 229.21875 L 956.433594 215.457031 C 958.09375 216.605469 959.898438 218.273438 961.128906 220.808594 Z M 926.21875 283.804688 C 929.234375 275.503906 929.480469 266.734375 927.242188 258.699219 L 935.859375 245.933594 C 934.09375 261.25 932.269531 276.953125 931.289062 285.113281 C 929.484375 284.535156 927.769531 284.101562 926.21875 283.804688 Z M 958.351562 182.234375 C 961.765625 184.761719 962.421875 189.976562 959.808594 193.847656 L 922.847656 248.585938 C 921.847656 246.957031 920.730469 245.394531 919.484375 243.917969 L 950.199219 180.707031 C 952.0625 180.300781 955.335938 180.050781 958.351562 182.234375 Z M 926.347656 161.558594 C 927.234375 158.988281 929.378906 157.101562 932.089844 156.511719 C 934.609375 155.945312 937.011719 156.675781 938.855469 158.613281 C 943.417969 163.539062 943.511719 169.699219 943.160156 172.933594 C 943.074219 173.761719 942.832031 174.582031 942.449219 175.371094 L 912.355469 237.300781 C 912.191406 237.1875 912.042969 237.050781 911.882812 236.941406 L 911.375 236.589844 C 908.488281 234.640625 905.394531 233.050781 902.203125 231.746094 L 909.128906 211.617188 C 909.128906 211.617188 909.128906 211.613281 909.128906 211.609375 Z M 889.859375 168.800781 C 890.308594 168.441406 891.246094 167.855469 892.566406 168.167969 C 895.078125 168.746094 896.679688 170.476562 897.582031 171.8125 C 897.914062 172.3125 898.101562 172.910156 898.140625 173.601562 L 900.058594 209.378906 L 893.265625 229.125 C 891.320312 228.808594 889.371094 228.664062 887.425781 228.640625 L 888.355469 171.8125 C 888.375 170.652344 888.9375 169.527344 889.859375 168.800781 Z M 897.59375 239.851562 C 900.589844 240.976562 903.46875 242.46875 906.132812 244.273438 L 906.5625 244.574219 C 919.476562 253.542969 923.242188 271.113281 915.320312 285.4375 C 910.285156 294.53125 905.089844 303.726562 899.714844 313.003906 C 890.453125 329.015625 880.808594 345.003906 871.050781 360.613281 L 834.339844 360.613281 C 834.039062 356.949219 833.65625 353.285156 833.121094 349.617188 C 832.785156 347.335938 830.828125 345.640625 828.515625 345.640625 L 823.167969 345.640625 C 830.789062 341.589844 835.894531 336.453125 838.519531 330.144531 C 839.863281 326.921875 840.253906 324.125 840.671875 321.167969 C 841.183594 317.535156 841.71875 313.777344 844.160156 307.992188 C 845.464844 304.90625 846.761719 302.566406 848.003906 300.660156 L 869.699219 312.953125 C 870.425781 313.363281 871.210938 313.558594 871.988281 313.558594 C 873.613281 313.558594 875.1875 312.707031 876.042969 311.199219 C 877.308594 308.96875 876.527344 306.125 874.289062 304.859375 L 853.777344 293.238281 C 855.527344 290.921875 856.894531 288.339844 856.964844 284.445312 C 857.0625 278.714844 854.339844 274.917969 850.660156 271.625 L 858.648438 255.722656 C 865.890625 241.320312 882.988281 234.363281 897.59375 239.851562 Z M 531.699219 354.945312 L 567.496094 354.945312 C 567.144531 358.285156 566.945312 361.617188 566.808594 364.945312 C 566.800781 365.054688 566.742188 365.152344 566.742188 365.269531 C 566.742188 365.355469 566.785156 365.421875 566.789062 365.507812 C 565.46875 402.367188 577.632812 438.042969 601.3125 465.296875 C 622.769531 489.996094 651.460938 504.734375 678.074219 504.734375 C 704.683594 504.734375 733.375 489.992188 754.832031 465.296875 C 778.511719 438.046875 790.675781 402.367188 789.355469 365.507812 C 789.359375 365.421875 789.402344 365.355469 789.402344 365.269531 C 789.402344 365.152344 789.34375 365.0625 789.335938 364.945312 C 789.207031 361.617188 789 358.285156 788.648438 354.945312 L 824.449219 354.945312 C 830.066406 401.214844 815.964844 447.660156 785.445312 482.945312 C 756.628906 516.269531 717.488281 535.382812 678.066406 535.382812 C 638.652344 535.382812 599.511719 516.269531 570.691406 482.945312 C 540.183594 447.660156 526.085938 401.21875 531.699219 354.945312 Z M 571.347656 306.445312 C 601.128906 306.445312 625.355469 327.953125 625.355469 354.386719 C 625.355469 356.480469 625.152344 358.558594 624.847656 360.625 L 576.375 360.625 C 576.605469 357.40625 576.914062 354.175781 577.367188 350.949219 C 577.558594 349.617188 577.160156 348.265625 576.277344 347.25 C 575.390625 346.234375 574.113281 345.648438 572.761719 345.648438 L 544.179688 345.648438 C 543.484375 335.976562 540.136719 326.976562 534.765625 319.199219 C 544.699219 311.074219 557.789062 306.445312 571.347656 306.445312 Z M 576.570312 264.488281 C 578.054688 267.214844 579.691406 270.214844 581.457031 273.539062 C 586.300781 282.652344 590.847656 292 595.222656 301.398438 C 587.851562 298.675781 579.796875 297.140625 571.347656 297.140625 C 569.441406 297.140625 567.558594 297.246094 565.679688 297.394531 C 568.375 285.203125 571.367188 273.007812 574.652344 260.953125 C 575.277344 262.113281 575.886719 263.238281 576.570312 264.488281 Z M 648.933594 369.921875 L 669.988281 369.921875 C 669.996094 369.921875 670.007812 369.925781 670.015625 369.925781 C 670.027344 369.925781 670.042969 369.921875 670.058594 369.921875 L 691.222656 369.921875 C 691.269531 369.921875 691.316406 369.925781 691.363281 369.925781 C 691.371094 369.925781 691.378906 369.921875 691.386719 369.921875 L 780.144531 369.921875 C 780.375 402.976562 769.058594 434.738281 747.8125 459.195312 C 728.101562 481.886719 702.03125 495.433594 678.078125 495.433594 C 654.125 495.433594 628.054688 481.886719 608.34375 459.195312 C 587.09375 434.738281 575.773438 402.976562 576.011719 369.921875 Z M 810.261719 227.125 C 812.917969 229.003906 813.507812 231.371094 814.585938 236.550781 C 815.554688 241.1875 816.753906 246.957031 820.523438 254.046875 C 826.261719 264.820312 834.023438 270.582031 839.695312 274.785156 C 845.527344 279.113281 847.722656 281.050781 847.667969 284.289062 C 847.636719 286.117188 847 286.945312 844.796875 289.554688 C 843.011719 291.671875 840.75 294.378906 838.390625 298.625 C 837.828125 296.355469 837.167969 294.054688 836.300781 291.722656 C 834.242188 286.222656 831.417969 281.003906 827.90625 276.210938 C 826.390625 274.140625 823.484375 273.683594 821.40625 275.203125 C 819.335938 276.722656 818.886719 279.632812 820.402344 281.703125 C 823.40625 285.808594 825.828125 290.28125 827.585938 294.976562 C 832.238281 307.417969 831.386719 319.078125 829.785156 326.851562 C 826.390625 334.558594 816.542969 340.210938 800.394531 343.691406 C 805.53125 335.574219 807.527344 327.734375 806.339844 320.292969 C 804.410156 308.167969 794.628906 300.578125 786.773438 294.476562 C 781.847656 290.65625 776.757812 286.703125 777.203125 284.019531 C 777.644531 281.386719 783.382812 279.167969 788.449219 277.214844 C 796.496094 274.113281 806.507812 270.246094 808.976562 260.488281 C 811.691406 249.773438 803.285156 239.976562 796.53125 232.101562 C 794.863281 230.148438 793.226562 228.371094 791.625 226.761719 C 799.957031 224.246094 806.324219 224.34375 810.261719 227.125 Z M 789.460938 238.164062 C 795.09375 244.730469 801.484375 252.175781 799.953125 258.214844 C 798.699219 263.167969 792.132812 265.824219 785.632812 268.335938 C 783.003906 261.550781 779.25 255.867188 774.296875 251.507812 C 772.101562 249.578125 769.886719 248.101562 767.664062 246.921875 L 767.664062 235.242188 C 767.664062 232.671875 765.578125 230.589844 763.011719 230.589844 C 760.441406 230.589844 758.359375 232.671875 758.359375 235.242188 L 758.359375 243.550781 C 755.148438 242.820312 751.890625 242.394531 748.5625 241.96875 C 743.046875 241.261719 737.332031 240.445312 730.867188 238.292969 C 735.917969 237.042969 740.636719 235.167969 745.015625 232.628906 C 749.589844 229.980469 752.332031 227.480469 754.539062 225.464844 C 757.007812 223.214844 758.25 222.078125 760.921875 221.519531 C 765.4375 220.574219 775.160156 221.480469 789.460938 238.164062 Z M 739.613281 224.929688 C 732.800781 228.710938 724.894531 230.683594 716.085938 230.804688 C 712.96875 228.355469 710.882812 225.867188 708.882812 223.417969 C 705.722656 219.5625 702.464844 215.59375 695.863281 213.335938 C 700.441406 210.542969 706.867188 207.992188 714.613281 208.648438 C 725.097656 209.488281 734.351562 215.628906 739.613281 224.929688 Z M 748.25 202.859375 C 753.304688 204.347656 757.515625 207.769531 760.160156 212.238281 C 759.777344 212.296875 759.375 212.339844 759.019531 212.414062 C 753.863281 213.488281 751.152344 215.96875 748.273438 218.585938 C 747.945312 218.882812 747.59375 219.195312 747.25 219.507812 C 743.535156 213.269531 738.359375 208.234375 732.296875 204.726562 C 737.125 202.0625 742.878906 201.285156 748.25 202.859375 Z M 624.644531 202.386719 C 631.195312 196.980469 640.136719 194.589844 649.179688 195.808594 C 662.25 197.582031 675.273438 195.296875 685.835938 189.394531 C 695.664062 183.921875 706.253906 183.238281 712.195312 187.703125 C 715.703125 190.339844 717.359375 195.492188 718.140625 199.796875 C 717.214844 199.65625 716.308594 199.445312 715.363281 199.371094 C 698.671875 198.039062 687.019531 207.601562 682.792969 211.769531 C 671.058594 212.671875 660.675781 219.410156 651.285156 225.542969 C 647.277344 228.167969 643.464844 230.640625 639.78125 232.582031 C 639.589844 229.3125 639.855469 225.484375 641.152344 221.40625 C 642.289062 217.824219 644.070312 214.492188 646.449219 211.488281 C 648.042969 209.46875 647.703125 206.542969 645.683594 204.953125 C 643.671875 203.359375 640.75 203.691406 639.148438 205.710938 C 636.070312 209.605469 633.757812 213.941406 632.28125 218.589844 C 630.199219 225.160156 630.140625 231.21875 630.75 235.992188 C 627.515625 236.648438 624.332031 236.601562 621.171875 235.371094 C 618.074219 234.167969 616.042969 232.355469 613.714844 230.25 C 613.4375 225.53125 613.59375 211.496094 624.644531 202.386719 Z M 596.238281 231.128906 C 600.96875 231.785156 603.5 233.613281 606.207031 236.003906 C 606.210938 236.007812 606.214844 236.007812 606.214844 236.015625 C 606.601562 236.359375 607 236.710938 607.398438 237.074219 C 610.058594 239.476562 613.078125 242.199219 617.808594 244.03125 C 631.71875 249.445312 644.261719 241.246094 656.382812 233.332031 C 667.785156 225.871094 678.554688 218.835938 690.621094 221.507812 C 696.328125 222.769531 698.347656 225.234375 701.6875 229.316406 C 705.703125 234.21875 710.703125 240.320312 723.371094 245.496094 C 732.6875 249.300781 740.488281 250.308594 747.375 251.195312 C 752.707031 251.878906 757.101562 252.453125 761.167969 254.121094 C 761.1875 254.128906 761.207031 254.140625 761.222656 254.148438 C 763.605469 255.136719 765.878906 256.496094 768.15625 258.496094 C 772.035156 261.90625 774.992188 266.46875 777.082031 271.988281 C 772.527344 274.339844 768.875 277.417969 768.03125 282.503906 C 766.671875 290.65625 773.664062 296.085938 781.070312 301.832031 C 787.972656 307.191406 795.796875 313.265625 797.15625 321.761719 C 798.277344 328.804688 794.921875 336.835938 787.292969 345.652344 L 783.390625 345.652344 C 782.042969 345.652344 780.761719 346.238281 779.878906 347.257812 C 778.996094 348.269531 778.59375 349.625 778.785156 350.953125 C 779.242188 354.183594 779.542969 357.410156 779.78125 360.628906 L 696.300781 360.628906 L 701.613281 271.992188 C 702.351562 259.648438 697.425781 247.882812 688.066406 239.691406 C 688.007812 239.640625 687.871094 239.527344 687.808594 239.476562 C 685.832031 237.894531 683.027344 238.238281 681.402344 240.175781 C 679.78125 242.117188 680.066406 245.054688 681.976562 246.722656 C 689.121094 252.972656 692.898438 261.980469 692.332031 271.433594 L 686.984375 360.625 L 673.8125 360.625 C 671.5625 349.953125 669.890625 339.085938 668.894531 328.25 C 667.902344 317.460938 667.535156 306.484375 667.792969 295.636719 C 667.851562 293.070312 665.824219 290.941406 663.25 290.878906 C 660.8125 290.84375 658.546875 292.851562 658.492188 295.421875 C 658.222656 306.625 658.605469 317.957031 659.632812 329.105469 C 660.597656 339.648438 662.195312 350.21875 664.3125 360.625 L 653.472656 360.625 C 653.160156 344.613281 651.140625 328.671875 647.28125 313.164062 C 643.804688 299.214844 638.886719 285.542969 632.664062 272.542969 C 631.554688 270.222656 628.773438 269.25 626.460938 270.355469 C 624.144531 271.460938 623.164062 274.242188 624.277344 276.558594 C 630.230469 289 634.933594 302.070312 638.253906 315.414062 C 641.933594 330.1875 643.859375 345.378906 644.171875 360.628906 L 634.289062 360.628906 C 634.535156 358.5625 634.671875 356.480469 634.671875 354.390625 C 634.671875 335.429688 624.378906 318.636719 608.621094 308.214844 C 602.808594 295.03125 596.453125 281.90625 589.6875 269.183594 C 587.90625 265.824219 586.25 262.796875 584.753906 260.046875 C 577.460938 246.679688 574.578125 241.113281 576.496094 237.382812 C 579.042969 232.363281 588.761719 230.097656 596.238281 231.128906 Z M 574.597656 184.480469 C 581.160156 179.242188 587.960938 176.121094 593.875 174.265625 C 587.265625 190.851562 581.078125 208.167969 575.40625 225.878906 C 572.34375 227.703125 569.769531 230.066406 568.195312 233.136719 C 565.773438 237.867188 566.191406 242.464844 568.507812 248.390625 C 563.730469 265.023438 559.472656 281.996094 555.8125 298.933594 C 554.789062 299.167969 553.75 299.378906 552.746094 299.652344 L 555.472656 211.933594 C 558.113281 204.164062 563.539062 193.308594 574.597656 184.480469 Z M 533.1875 168.261719 C 537.617188 161.371094 543.027344 156.507812 547.996094 153.128906 L 544.617188 261.675781 C 540.734375 244.578125 535.421875 227.820312 528.617188 211.558594 C 527.550781 209.015625 526.402344 206.511719 525.269531 204.003906 C 524.484375 197.785156 523.878906 182.726562 533.1875 168.261719 Z M 477.191406 143.40625 C 494.8125 165.199219 509.191406 189.269531 520.027344 215.148438 C 531.867188 243.433594 539.152344 273.234375 541.785156 303.773438 C 539.324219 304.953125 536.929688 306.261719 534.644531 307.738281 C 518.675781 283.640625 505.675781 257.691406 496.054688 230.496094 C 493.878906 224.347656 491.875 218.140625 490.046875 211.890625 C 490.027344 211.8125 490.003906 211.75 489.984375 211.679688 C 483.484375 189.414062 479.207031 166.558594 477.191406 143.40625 Z M 445.304688 213.445312 C 451.511719 213.175781 457.738281 213.347656 463.90625 213.945312 C 469.921875 214.535156 475.945312 215.542969 481.84375 216.949219 C 483.523438 222.535156 485.335938 228.089844 487.285156 233.601562 C 487.710938 234.789062 488.136719 235.980469 488.570312 237.167969 C 478.296875 233.140625 468.378906 228.242188 458.976562 222.542969 C 454.304688 219.714844 449.730469 216.675781 445.304688 213.445312 Z M 466.234375 243.128906 C 475.273438 244.460938 484.289062 246.382812 493.070312 248.847656 C 500.359375 266.820312 509.089844 284.199219 519.175781 300.804688 C 503.644531 291.558594 488.523438 281.507812 474.054688 270.804688 C 461.371094 261.417969 448.976562 251.378906 437.09375 240.855469 C 446.855469 240.957031 456.613281 241.714844 466.234375 243.128906 Z M 466.535156 276.773438 C 467.199219 277.269531 467.855469 277.789062 468.519531 278.285156 C 475.210938 283.238281 482.082031 287.992188 489.027344 292.652344 C 486.417969 292.355469 483.773438 292.148438 481.074219 292.148438 C 464.957031 292.148438 450.269531 297.671875 439.082031 306.671875 C 443.082031 293.898438 452.945312 282.949219 466.535156 276.773438 Z M 427.074219 349.390625 C 427.074219 322.957031 451.300781 301.453125 481.082031 301.453125 C 509.433594 301.453125 532.703125 320.964844 534.871094 345.640625 L 527.628906 345.640625 C 525.316406 345.640625 523.359375 347.335938 523.023438 349.617188 C 522.488281 353.285156 522.105469 356.949219 521.804688 360.613281 L 428.578125 360.613281 C 427.585938 356.957031 427.074219 353.195312 427.074219 349.390625 Z M 944.003906 517.613281 C 947.386719 541.09375 950.578125 563.265625 948.683594 594.675781 C 947.457031 614.996094 944.316406 635.34375 939.328125 655.21875 L 416.820312 655.21875 C 411.839844 635.347656 408.695312 615 407.464844 594.675781 C 405.574219 563.265625 408.765625 541.09375 412.144531 517.613281 C 415.007812 497.75 417.964844 477.199219 417.863281 450.140625 C 417.765625 423.734375 414.671875 396.777344 408.671875 369.921875 L 425.113281 369.921875 C 425.121094 369.921875 425.128906 369.925781 425.140625 369.925781 C 425.148438 369.925781 425.15625 369.921875 425.167969 369.921875 L 521.289062 369.921875 C 520.046875 413.335938 534.964844 455.851562 563.664062 489.027344 C 594.257812 524.394531 635.957031 544.683594 678.078125 544.683594 C 720.195312 544.683594 761.898438 524.398438 792.492188 489.03125 C 821.183594 455.855469 836.109375 413.335938 834.867188 369.925781 L 947.480469 369.925781 C 941.476562 396.777344 938.390625 423.734375 938.285156 450.144531 C 938.183594 477.199219 941.144531 497.75 944.003906 517.613281 Z M 943.585938 341.070312 C 941.691406 343.640625 939.613281 346.136719 937.394531 348.480469 C 933 353.117188 928.035156 357.183594 922.644531 360.617188 L 881.972656 360.617188 C 888.472656 350.140625 894.863281 339.539062 901.160156 328.867188 L 916.210938 334.972656 C 916.785156 335.203125 917.375 335.3125 917.957031 335.3125 C 919.792969 335.3125 921.539062 334.21875 922.269531 332.410156 C 923.238281 330.027344 922.089844 327.316406 919.707031 326.347656 L 905.9375 320.761719 C 906.535156 319.730469 907.167969 318.699219 907.765625 317.664062 C 912.652344 309.214844 917.363281 300.855469 921.972656 292.558594 C 926.894531 293.121094 935.882812 295.257812 942.917969 303.3125 C 943.550781 304.039062 944.140625 304.773438 944.671875 305.515625 C 952 315.632812 951.554688 330.25 943.585938 341.070312 Z M 973.5625 248.410156 L 946.089844 293.371094 C 944.515625 291.996094 942.90625 290.789062 941.285156 289.757812 L 964.480469 243.632812 C 965.839844 240.945312 969.023438 239.660156 971.542969 240.875 C 972.203125 241.210938 972.769531 241.617188 973.269531 242.136719 C 974.746094 243.636719 974.867188 246.273438 973.5625 248.410156 Z M 973.5625 248.410156 " fill-opacity="1" fill-rule="nonzero"/></g><path fill="#3a322b" d="M 712.753906 354.574219 C 713.347656 354.828125 713.96875 354.945312 714.578125 354.945312 C 716.386719 354.945312 718.109375 353.882812 718.855469 352.117188 C 722.375 343.867188 725.183594 335.257812 727.207031 326.539062 C 729.265625 317.683594 730.539062 308.589844 731.003906 299.511719 C 731.132812 296.945312 729.160156 294.761719 726.59375 294.628906 C 724.152344 294.460938 721.84375 296.46875 721.714844 299.039062 C 721.277344 307.566406 720.078125 316.113281 718.144531 324.429688 C 716.242188 332.625 713.601562 340.710938 710.296875 348.46875 C 709.292969 350.835938 710.390625 353.566406 712.753906 354.574219 Z M 712.753906 354.574219 " fill-opacity="1" fill-rule="nonzero"/><path fill="#3a322b" d="M 745.824219 353.5625 C 747.285156 353.5625 748.722656 352.878906 749.628906 351.589844 C 753.3125 346.382812 756.59375 340.84375 759.394531 335.128906 C 762.292969 329.234375 764.71875 323.066406 766.609375 316.796875 C 767.351562 314.335938 765.960938 311.738281 763.5 311 C 761.042969 310.25 758.445312 311.652344 757.703125 314.105469 C 755.957031 319.898438 753.71875 325.59375 751.046875 331.039062 C 748.457031 336.3125 745.425781 341.421875 742.03125 346.238281 C 740.550781 348.335938 741.046875 351.238281 743.144531 352.722656 C 743.964844 353.285156 744.898438 353.5625 745.824219 353.5625 Z M 745.824219 353.5625 " fill-opacity="1" fill-rule="nonzero"/><g clip-path="url(#ca85e069bc)"><path fill="#6fceae" d="M 0.492188 315.792969 C 0.0117188 315.085938 0.0976562 314.464844 0.0976562 313.859375 C 0.09375 210.363281 0.09375 106.863281 0.0976562 3.363281 C 0.0976562 0.539062 0.105469 0.539062 2.917969 0.539062 C 91.035156 0.539062 179.148438 0.539062 267.265625 0.550781 C 267.855469 0.550781 268.703125 0.246094 268.96875 0.746094 C 269.273438 1.316406 268.628906 1.945312 268.257812 2.457031 C 265.992188 5.621094 264.1875 9.078125 262.085938 12.34375 C 260.046875 15.527344 258.128906 18.808594 255.945312 21.890625 C 254.414062 24.042969 252.886719 26.207031 251.078125 28.183594 C 248.785156 30.6875 246.851562 33.519531 244.730469 36.183594 C 241.871094 39.785156 238.429688 42.800781 234.984375 45.800781 C 233.15625 47.394531 231.347656 49.042969 229.332031 50.367188 C 226.296875 52.359375 223.292969 54.402344 220.152344 56.234375 C 216.4375 58.402344 212.589844 60.335938 208.664062 62.015625 C 204.773438 63.679688 200.882812 65.359375 196.902344 66.839844 C 191.300781 68.917969 185.917969 71.574219 180.339844 73.722656 C 177.078125 74.980469 173.835938 76.339844 170.519531 77.421875 C 167.035156 78.5625 163.816406 80.316406 160.367188 81.453125 C 157.0625 82.539062 154.035156 84.25 150.792969 85.40625 C 146.296875 87.007812 141.992188 89.042969 137.636719 90.929688 C 133.28125 92.816406 128.976562 94.878906 124.753906 97.101562 C 121.894531 98.601562 119.152344 100.28125 116.402344 101.933594 C 113.378906 103.757812 110.492188 105.824219 107.710938 108.042969 C 103.507812 111.394531 99.46875 114.921875 95.679688 118.71875 C 92.863281 121.539062 90.234375 124.542969 87.671875 127.597656 C 84.214844 131.722656 81.300781 136.234375 78.644531 140.875 C 76.015625 145.464844 73.8125 150.296875 72.050781 155.320312 C 70.367188 160.128906 68.8125 164.984375 67.253906 169.828125 C 66.304688 172.773438 65.480469 175.8125 64.769531 178.851562 C 64.496094 180.027344 64 181.152344 63.710938 182.328125 C 62.359375 187.894531 61.441406 193.554688 59.882812 199.078125 C 59.367188 200.90625 59.199219 202.839844 58.722656 204.683594 C 57.976562 207.570312 57.222656 210.464844 56.246094 213.28125 C 55.113281 216.550781 54.507812 219.964844 53.332031 223.222656 C 51.277344 228.925781 49.777344 234.808594 47.691406 240.519531 C 46.398438 244.0625 44.828125 247.507812 43.675781 251.089844 C 42.242188 255.566406 40.164062 259.757812 38.242188 264.007812 C 36.417969 268.042969 34.421875 272.015625 32.292969 275.925781 C 29.28125 281.453125 25.597656 286.503906 21.898438 291.550781 C 20.164062 293.914062 18.175781 296.089844 16.449219 298.457031 C 11.808594 304.816406 6.109375 310.167969 0.492188 315.792969 Z M 0.492188 315.792969 " fill-opacity="1" fill-rule="nonzero"/></g><g clip-path="url(#10103fed1d)"><path fill="#6fceae" d="M 1283.867188 825.042969 C 1263.972656 824.875 1242.082031 822.847656 1221.722656 823.597656 C 1200.097656 824.4375 1179.417969 831.644531 1158.179688 835.03125 C 1120.746094 840.222656 1086.535156 815.246094 1066.554688 785.550781 C 1051.851562 764.511719 1046.390625 738.230469 1049.308594 712.796875 C 1049.847656 704.289062 1053.347656 696.816406 1056.503906 689.238281 C 1060.722656 679.097656 1065.417969 669.140625 1072.265625 660.425781 C 1094.789062 633.117188 1126.625 615.96875 1153.5 593.484375 C 1156.128906 591.402344 1157.949219 588.691406 1159.492188 585.730469 C 1167.878906 568.460938 1176.566406 549.644531 1194.984375 541.132812 C 1224.972656 524.472656 1264.292969 529.277344 1289.917969 552.117188 C 1296.304688 557.9375 1301.640625 564.753906 1308.117188 570.449219 C 1326.796875 587.765625 1345.246094 608.847656 1371.222656 614.355469 C 1398.71875 616.726562 1413.015625 596.292969 1442.484375 605.582031 C 1471.003906 613.085938 1480.65625 646.253906 1479.402344 672.699219 C 1477.285156 696.644531 1467.671875 719.4375 1454.8125 739.535156 C 1413.070312 799.382812 1356.449219 826.355469 1283.867188 825.042969 Z M 1283.867188 825.042969 " fill-opacity="1" fill-rule="nonzero"/></g></svg>