<?xml version="1.0" standalone="no"?>
<!DOCTYPE svg PUBLIC "-//W3C//DTD SVG 20010904//EN"
 "http://www.w3.org/TR/2001/REC-SVG-20010904/DTD/svg10.dtd">
<svg version="1.0" xmlns="http://www.w3.org/2000/svg"
 width="1544.000000pt" height="329.000000pt" viewBox="0 0 1544.000000 329.000000"
 preserveAspectRatio="xMidYMid meet">

<g transform="translate(0.000000,329.000000) scale(0.100000,-0.100000)"
fill="#03AC0E" stroke="none">
<path d="M10580 2025 l0 -1085 205 0 205 0 0 552 0 552 48 46 c64 61 136 85
237 77 83 -6 144 -32 172 -74 49 -72 48 -56 51 -620 l3 -533 200 0 200 0 -4
568 c-4 615 -4 612 -62 739 -39 85 -108 159 -183 197 -69 35 -217 60 -302 51
-125 -13 -219 -56 -312 -143 l-48 -45 0 89 c0 49 0 230 0 402 l1 312 -206 0
-205 0 0 -1085z"/>
<path d="M1255 3019 c-102 -9 -183 -30 -285 -74 -235 -98 -360 -285 -348 -520
8 -152 75 -282 199 -383 79 -64 266 -158 420 -211 192 -65 322 -119 370 -155
81 -60 119 -180 85 -270 -41 -108 -147 -158 -331 -157 -150 1 -263 43 -321
118 -35 47 -64 124 -64 173 l0 40 -210 0 -210 0 0 -48 c0 -230 189 -459 460
-556 114 -41 208 -56 359 -56 280 0 483 68 617 207 143 148 175 413 75 611
-34 68 -119 164 -190 216 -84 62 -246 136 -434 197 -324 107 -415 179 -405
320 10 139 130 220 328 220 155 0 251 -49 303 -153 16 -31 31 -75 34 -97 l6
-41 208 0 209 0 0 33 c0 54 -37 184 -70 245 -103 194 -305 313 -580 342 -105
11 -110 11 -225 -1z"/>
<path d="M9445 3019 c-263 -26 -493 -161 -579 -342 -92 -192 -57 -418 88 -575
108 -116 238 -186 542 -292 268 -94 347 -139 385 -225 27 -58 25 -149 -3 -205
-29 -57 -98 -105 -175 -120 -123 -26 -319 -5 -387 42 -87 59 -118 108 -138
212 l-13 66 -207 0 -208 0 0 -24 c0 -61 33 -185 66 -250 88 -173 249 -293 484
-357 77 -22 105 -24 285 -23 173 0 211 3 280 22 235 64 391 201 441 385 22 80
19 239 -5 317 -71 230 -254 370 -656 501 -239 77 -349 139 -390 218 -55 108 1
235 129 291 87 39 262 41 350 5 83 -35 152 -124 165 -214 l6 -46 208 -3 207
-2 0 39 c0 63 -20 140 -56 220 -62 135 -220 266 -384 320 -119 39 -288 55
-435 40z"/>
<path d="M2906 2490 c-190 -22 -363 -110 -451 -230 -39 -54 -84 -166 -85 -212
l0 -28 200 0 199 0 11 40 c26 96 117 147 241 137 79 -7 119 -25 152 -69 37
-51 48 -89 50 -174 l2 -79 -190 -6 c-248 -9 -331 -26 -467 -96 -83 -43 -150
-113 -190 -200 -27 -57 -32 -81 -36 -169 -5 -122 17 -211 72 -285 96 -130 247
-199 436 -199 154 0 251 34 347 123 29 27 44 35 47 26 2 -8 11 -40 20 -72 l17
-57 205 0 c227 0 218 -3 189 67 -37 89 -45 193 -45 612 0 442 -5 495 -56 600
-96 195 -365 305 -668 271z m324 -983 l0 -133 -37 -44 c-91 -106 -284 -140
-385 -69 -85 61 -90 208 -10 292 60 63 139 85 310 86 l122 1 0 -133z"/>
<path d="M7670 2484 c-93 -25 -175 -87 -231 -174 -16 -24 -16 -22 -23 68 l-8
92 -189 0 -189 0 0 -765 0 -765 200 0 200 0 0 500 0 500 24 39 c55 87 129 116
297 116 l127 0 6 44 c3 24 6 110 6 192 0 168 9 154 -100 163 -43 4 -84 0 -120
-10z"/>
<path d="M12768 2490 c-164 -20 -288 -79 -399 -190 -84 -84 -135 -166 -172
-280 -69 -212 -58 -512 27 -703 84 -191 244 -325 450 -377 110 -28 293 -28
402 0 358 91 550 412 514 861 -11 134 -31 212 -81 316 -111 231 -314 361 -589
377 -47 2 -115 1 -152 -4z m204 -336 c142 -48 218 -203 218 -443 0 -198 -40
-324 -127 -401 -120 -105 -320 -87 -416 38 -49 65 -76 145 -87 263 -27 278 53
487 208 544 50 19 149 18 204 -1z"/>
<path d="M14555 2494 c-97 -15 -193 -62 -266 -131 l-47 -44 -7 75 -7 76 -189
0 -189 0 0 -1060 0 -1060 205 0 205 0 0 361 0 361 39 -35 c93 -84 187 -117
336 -117 168 0 282 47 388 159 113 120 178 283 198 503 14 141 2 315 -31 443
-58 232 -197 392 -390 449 -56 17 -193 28 -245 20z m51 -339 c60 -18 127 -73
155 -127 39 -77 51 -132 56 -268 9 -231 -23 -359 -112 -446 -40 -40 -63 -54
-105 -64 -119 -29 -249 11 -311 94 l-29 40 0 321 c0 317 0 323 23 355 30 44
64 69 128 91 66 22 129 24 195 4z"/>
<path d="M3804 2454 c4 -10 124 -353 267 -763 189 -542 259 -754 255 -774 -9
-44 -71 -169 -98 -198 -33 -35 -97 -57 -190 -64 l-78 -7 0 -148 c0 -170 -10
-154 109 -169 73 -9 175 -1 239 20 130 43 236 156 305 329 14 36 152 430 307
875 155 446 290 834 301 863 l18 52 -217 0 -217 0 -139 -470 c-77 -259 -142
-470 -146 -470 -3 0 -69 210 -146 468 l-139 467 -219 3 c-201 2 -218 1 -212
-14z"/>
<path d="M5400 1918 c0 -606 3 -633 59 -754 78 -166 218 -244 439 -244 165 0
270 35 370 125 58 52 60 51 64 -40 l3 -60 188 -3 187 -2 0 765 0 765 -200 0
-200 0 0 -545 0 -545 -40 -44 c-60 -65 -125 -90 -235 -91 -116 0 -166 24 -204
100 l-26 49 -3 538 -3 538 -199 0 -200 0 0 -552z"/>
</g>
</svg>
